<?xml version="1.0" standalone="no"?>
<!DOCTYPE svg PUBLIC "-//W3C//DTD SVG 20010904//EN"
 "http://www.w3.org/TR/2001/REC-SVG-20010904/DTD/svg10.dtd">
<svg version="1.0" xmlns="http://www.w3.org/2000/svg"
 width="180.000000pt" height="180.000000pt" viewBox="0 0 180.000000 180.000000"
 preserveAspectRatio="xMidYMid meet">
<metadata>
Created by potrace 1.14, written by Peter Selinger 2001-2017
</metadata>
<g transform="translate(0.000000,180.000000) scale(0.100000,-0.100000)"
fill="#000000" stroke="none">
<path d="M140 1491 c-6 -13 -10 -219 -10 -600 0 -514 2 -581 16 -595 14 -14
78 -16 561 -16 484 0 548 2 572 16 18 10 95 122 211 303 101 157 183 291 183
296 0 6 -82 139 -183 296 -116 181 -193 293 -211 303 -24 14 -89 16 -578 16
-534 0 -551 -1 -561 -19z m1255 -331 c91 -140 164 -259 164 -265 0 -5 -73
-125 -164 -265 l-163 -255 -501 -3 -501 -2 0 525 0 525 501 -2 501 -3 163
-255z"/>
<path d="M440 875 l0 -355 50 0 50 0 0 355 0 355 -50 0 -50 0 0 -355z"/>
<path d="M613 1059 l-60 -170 56 -182 57 -182 47 -3 c34 -2 47 1 47 10 0 8
-22 86 -50 175 -27 89 -50 169 -50 178 0 10 25 87 55 172 30 86 55 159 55 164
0 5 -22 9 -48 9 l-49 0 -60 -171z"/>
<path d="M832 1218 c-9 -9 -12 -102 -12 -355 l0 -343 50 0 50 0 0 305 0 305
35 0 35 0 0 -305 0 -305 50 0 50 0 0 345 c0 330 -1 345 -19 355 -28 14 -224
13 -239 -2z"/>
</g>
</svg>
