<svg width="100" height="100" viewBox="0 0 100 100" fill="none" xmlns="http://www.w3.org/2000/svg">
<g clip-path="url(#clip0_2011_2697)">
<path d="M84.0312 57.7344C83.621 57.7344 83.2275 57.5714 82.9374 57.2813C82.6473 56.9912 82.4844 56.5978 82.4844 56.1875V37.625C82.4844 36.8045 82.1584 36.0176 81.5782 35.4374C80.998 34.8572 80.2111 34.5312 79.3906 34.5312H20.6094C19.7889 34.5312 19.002 34.8572 18.4218 35.4374C17.8416 36.0176 17.5156 36.8045 17.5156 37.625V56.1875C17.5156 56.5978 17.3527 56.9912 17.0626 57.2813C16.7725 57.5714 16.379 57.7344 15.9688 57.7344C15.5585 57.7344 15.165 57.5714 14.8749 57.2813C14.5848 56.9912 14.4219 56.5978 14.4219 56.1875V37.625C14.4219 35.984 15.0738 34.4102 16.2342 33.2498C17.3945 32.0894 18.9683 31.4375 20.6094 31.4375H79.3906C81.0317 31.4375 82.6055 32.0894 83.7658 33.2498C84.9262 34.4102 85.5781 35.984 85.5781 37.625V56.1875C85.5781 56.5978 85.4152 56.9912 85.1251 57.2813C84.835 57.5714 84.4415 57.7344 84.0312 57.7344Z" fill="#FF8A35"/>
<path d="M15.9688 99.5H11.3281C10.9179 99.5 10.5244 99.337 10.2343 99.0469C9.94422 98.7568 9.78125 98.3634 9.78125 97.9531V93.3125C9.78125 92.9022 9.94422 92.5088 10.2343 92.2187C10.5244 91.9286 10.9179 91.7656 11.3281 91.7656C11.7384 91.7656 12.1318 91.9286 12.4219 92.2187C12.712 92.5088 12.875 92.9022 12.875 93.3125V96.4062H14.8535L16.0492 92.8237C16.1788 92.4339 16.458 92.1117 16.8252 91.9277C17.1925 91.7438 17.6178 91.7133 18.0075 91.843C18.3973 91.9726 18.7196 92.2518 18.9035 92.619C19.0874 92.9863 19.1179 93.4116 18.9882 93.8013L17.4414 98.4419C17.3385 98.7508 17.1408 99.0194 16.8764 99.2094C16.6119 99.3993 16.2943 99.501 15.9688 99.5Z" fill="#FF8A35"/>
<path d="M87.125 99.5H82.4844C82.1599 99.4997 81.8436 99.3974 81.5805 99.2076C81.3173 99.0177 81.1205 98.7498 81.0179 98.4419L79.4711 93.8013C79.4069 93.6083 79.3813 93.4046 79.3959 93.2017C79.4104 92.9989 79.4648 92.8009 79.5558 92.619C79.6469 92.4372 79.7729 92.275 79.9266 92.1419C80.0804 92.0087 80.2588 91.9072 80.4518 91.843C80.6448 91.7788 80.8485 91.7532 81.0514 91.7678C81.2542 91.7823 81.4522 91.8367 81.6341 91.9277C81.8159 92.0188 81.9781 92.1448 82.1112 92.2985C82.2444 92.4523 82.3459 92.6307 82.4101 92.8237L83.5997 96.4062H85.5781V93.3125C85.5781 92.9022 85.7411 92.5088 86.0312 92.2187C86.3213 91.9286 86.7148 91.7656 87.125 91.7656C87.5353 91.7656 87.9287 91.9286 88.2188 92.2187C88.5089 92.5088 88.6719 92.9022 88.6719 93.3125V97.9531C88.6719 98.3634 88.5089 98.7568 88.2188 99.0469C87.9287 99.337 87.5353 99.5 87.125 99.5Z" fill="#FF8A35"/>
<path d="M45.3594 57.7344C44.9491 57.7344 44.5557 57.5714 44.2656 57.2813C43.9755 56.9912 43.8125 56.5978 43.8125 56.1875V48.4531C43.8125 48.0429 43.6495 47.6494 43.3594 47.3593C43.0693 47.0692 42.6759 46.9062 42.2656 46.9062H29.8906C29.4804 46.9062 29.0869 47.0692 28.7968 47.3593C28.5067 47.6494 28.3438 48.0429 28.3438 48.4531V56.1875C28.3438 56.5978 28.1808 56.9912 27.8907 57.2813C27.6006 57.5714 27.2071 57.7344 26.7969 57.7344C26.3866 57.7344 25.9932 57.5714 25.7031 57.2813C25.413 56.9912 25.25 56.5978 25.25 56.1875V48.4531C25.25 47.2224 25.7389 46.042 26.6092 45.1717C27.4795 44.3014 28.6599 43.8125 29.8906 43.8125H42.2656C43.4964 43.8125 44.6768 44.3014 45.547 45.1717C46.4173 46.042 46.9062 47.2224 46.9062 48.4531V56.1875C46.9062 56.5978 46.7433 56.9912 46.4532 57.2813C46.1631 57.5714 45.7696 57.7344 45.3594 57.7344Z" fill="#FF8A35"/>
<path d="M73.2031 57.7344C72.7929 57.7344 72.3994 57.5714 72.1093 57.2813C71.8192 56.9912 71.6562 56.5978 71.6562 56.1875V48.4531C71.6562 48.0429 71.4933 47.6494 71.2032 47.3593C70.9131 47.0692 70.5196 46.9062 70.1094 46.9062H57.7344C57.3241 46.9062 56.9307 47.0692 56.6406 47.3593C56.3505 47.6494 56.1875 48.0429 56.1875 48.4531V56.1875C56.1875 56.5978 56.0245 56.9912 55.7344 57.2813C55.4443 57.5714 55.0509 57.7344 54.6406 57.7344C54.2304 57.7344 53.8369 57.5714 53.5468 57.2813C53.2567 56.9912 53.0938 56.5978 53.0938 56.1875V48.4531C53.0938 47.2224 53.5827 46.042 54.453 45.1717C55.3232 44.3014 56.5036 43.8125 57.7344 43.8125H70.1094C71.3401 43.8125 72.5205 44.3014 73.3908 45.1717C74.2611 46.042 74.75 47.2224 74.75 48.4531V56.1875C74.75 56.5978 74.587 56.9912 74.2969 57.2813C74.0068 57.5714 73.6134 57.7344 73.2031 57.7344Z" fill="#FF8A35"/>
<path d="M87.125 59.2812H12.875C10.8245 59.2837 8.85863 60.0994 7.40868 61.5493C5.95874 62.9993 5.14308 64.9651 5.14062 67.0156V85.5781C5.14063 86.8089 5.62955 87.9893 6.49983 88.8595C7.37012 89.7298 8.55048 90.2188 9.78125 90.2188H90.2188C91.4495 90.2188 92.6299 89.7298 93.5002 88.8595C94.3705 87.9893 94.8594 86.8089 94.8594 85.5781V67.0156C94.8569 64.9651 94.0413 62.9993 92.5913 61.5493C91.1414 60.0994 89.1755 59.2837 87.125 59.2812ZM91.7656 85.5781C91.7656 85.9884 91.6027 86.3818 91.3126 86.6719C91.0225 86.962 90.629 87.125 90.2188 87.125H9.78125C9.37099 87.125 8.97754 86.962 8.68744 86.6719C8.39735 86.3818 8.23438 85.9884 8.23438 85.5781V80.9375H87.125C87.5353 80.9375 87.9287 80.7745 88.2188 80.4844C88.5089 80.1943 88.6719 79.8009 88.6719 79.3906C88.6719 78.9804 88.5089 78.5869 88.2188 78.2968C87.9287 78.0067 87.5353 77.8438 87.125 77.8438H8.23438V67.0156C8.23438 65.7849 8.7233 64.6045 9.59358 63.7342C10.4639 62.8639 11.6442 62.375 12.875 62.375H87.125C88.3558 62.375 89.5361 62.8639 90.4064 63.7342C91.2767 64.6045 91.7656 65.7849 91.7656 67.0156V85.5781Z" fill="#FF8A35"/>
<path d="M85.5781 25.25C85.1679 25.25 84.7744 25.087 84.4843 24.7969C84.1942 24.5068 84.0312 24.1134 84.0312 23.7031C84.0312 22.4724 83.5423 21.292 82.672 20.4217C81.8018 19.5514 80.6214 19.0625 79.3906 19.0625C78.9804 19.0625 78.5869 18.8995 78.2968 18.6094C78.0067 18.3193 77.8438 17.9259 77.8438 17.5156C77.8438 17.1054 78.0067 16.7119 78.2968 16.4218C78.5869 16.1317 78.9804 15.9688 79.3906 15.9688C80.6214 15.9687 81.8018 15.4798 82.672 14.6095C83.5423 13.7393 84.0312 12.5589 84.0312 11.3281C84.0312 10.9179 84.1942 10.5244 84.4843 10.2343C84.7744 9.94422 85.1679 9.78125 85.5781 9.78125C85.9884 9.78125 86.3818 9.94422 86.6719 10.2343C86.962 10.5244 87.125 10.9179 87.125 11.3281C87.125 12.5589 87.6139 13.7393 88.4842 14.6095C89.3545 15.4798 90.5349 15.9688 91.7656 15.9688C92.1759 15.9688 92.5693 16.1317 92.8594 16.4218C93.1495 16.7119 93.3125 17.1054 93.3125 17.5156C93.3125 17.9259 93.1495 18.3193 92.8594 18.6094C92.5693 18.8995 92.1759 19.0625 91.7656 19.0625C90.5349 19.0625 89.3545 19.5514 88.4842 20.4217C87.6139 21.292 87.125 22.4724 87.125 23.7031C87.125 24.1134 86.962 24.5068 86.6719 24.7969C86.3818 25.087 85.9884 25.25 85.5781 25.25ZM84.0312 17.5156C84.6173 17.9556 85.1381 18.4764 85.5781 19.0625C86.0181 18.4764 86.5389 17.9556 87.125 17.5156C86.5389 17.0756 86.0181 16.5548 85.5781 15.9688C85.1381 16.5548 84.6173 17.0756 84.0312 17.5156Z" fill="#FF8A35"/>
<path d="M14.4219 25.25C14.0116 25.25 13.6182 25.087 13.3281 24.7969C13.038 24.5068 12.875 24.1134 12.875 23.7031C12.875 22.4724 12.3861 21.292 11.5158 20.4217C10.6455 19.5514 9.46515 19.0625 8.23438 19.0625C7.82412 19.0625 7.43066 18.8995 7.14057 18.6094C6.85047 18.3193 6.6875 17.9259 6.6875 17.5156C6.6875 17.1054 6.85047 16.7119 7.14057 16.4218C7.43066 16.1317 7.82412 15.9688 8.23438 15.9688C9.46515 15.9687 10.6455 15.4798 11.5158 14.6095C12.3861 13.7393 12.875 12.5589 12.875 11.3281C12.875 10.9179 13.038 10.5244 13.3281 10.2343C13.6182 9.94422 14.0116 9.78125 14.4219 9.78125C14.8321 9.78125 15.2256 9.94422 15.5157 10.2343C15.8058 10.5244 15.9688 10.9179 15.9688 11.3281C15.9688 12.5589 16.4577 13.7393 17.328 14.6095C18.1982 15.4798 19.3786 15.9688 20.6094 15.9688C21.0196 15.9688 21.4131 16.1317 21.7032 16.4218C21.9933 16.7119 22.1562 17.1054 22.1562 17.5156C22.1562 17.9259 21.9933 18.3193 21.7032 18.6094C21.4131 18.8995 21.0196 19.0625 20.6094 19.0625C19.3786 19.0625 18.1982 19.5514 17.328 20.4217C16.4577 21.292 15.9688 22.4724 15.9688 23.7031C15.9688 24.1134 15.8058 24.5068 15.5157 24.7969C15.2256 25.087 14.8321 25.25 14.4219 25.25ZM12.875 17.5156C13.4611 17.9556 13.9819 18.4764 14.4219 19.0625C14.8619 18.4764 15.3827 17.9556 15.9688 17.5156C15.3827 17.0756 14.8619 16.5548 14.4219 15.9688C13.9819 16.5548 13.4611 17.0756 12.875 17.5156Z" fill="#FF8A35"/>
<path d="M50 15.9688C49.5897 15.9688 49.1963 15.8058 48.9062 15.5157C48.6161 15.2256 48.4531 14.8321 48.4531 14.4219C48.4531 13.1911 47.9642 12.0107 47.0939 11.1405C46.2236 10.2702 45.0433 9.78125 43.8125 9.78125C43.4022 9.78125 43.0088 9.61828 42.7187 9.32818C42.4286 9.03809 42.2656 8.64463 42.2656 8.23438C42.2656 7.82412 42.4286 7.43066 42.7187 7.14057C43.0088 6.85047 43.4022 6.6875 43.8125 6.6875C45.0433 6.6875 46.2236 6.19858 47.0939 5.32829C47.9642 4.45801 48.4531 3.27765 48.4531 2.04688C48.4531 1.63662 48.6161 1.24316 48.9062 0.953069C49.1963 0.662974 49.5897 0.5 50 0.5C50.4103 0.5 50.8037 0.662974 51.0938 0.953069C51.3839 1.24316 51.5469 1.63662 51.5469 2.04688C51.5469 3.27765 52.0358 4.45801 52.9061 5.32829C53.7764 6.19858 54.9567 6.6875 56.1875 6.6875C56.5978 6.6875 56.9912 6.85047 57.2813 7.14057C57.5714 7.43066 57.7344 7.82412 57.7344 8.23438C57.7344 8.64463 57.5714 9.03809 57.2813 9.32818C56.9912 9.61828 56.5978 9.78125 56.1875 9.78125C54.9567 9.78125 53.7764 10.2702 52.9061 11.1405C52.0358 12.0107 51.5469 13.1911 51.5469 14.4219C51.5469 14.8321 51.3839 15.2256 51.0938 15.5157C50.8037 15.8058 50.4103 15.9688 50 15.9688ZM48.4531 8.23438C49.0392 8.67438 49.56 9.19517 50 9.78125C50.44 9.19517 50.9608 8.67438 51.5469 8.23438C50.9608 7.79437 50.44 7.27358 50 6.6875C49.56 7.27358 49.0392 7.79437 48.4531 8.23438Z" fill="#FF8A35"/>
</g>
<defs>
<clipPath id="clip0_2011_2697">
<rect width="99" height="99" fill="white" transform="translate(0.5 0.5)"/>
</clipPath>
</defs>
</svg>
