<svg width="19" height="20" viewBox="0 0 19 20" fill="none" xmlns="http://www.w3.org/2000/svg">
<path d="M16.6875 1.91895H14.5312V1.2002C14.5312 1.00957 14.4555 0.826754 14.3207 0.691962C14.1859 0.557171 14.0031 0.481445 13.8125 0.481445C13.6219 0.481445 13.4391 0.557171 13.3043 0.691962C13.1695 0.826754 13.0938 1.00957 13.0938 1.2002V1.91895H5.90625V1.2002C5.90625 1.00957 5.83052 0.826754 5.69573 0.691962C5.56094 0.557171 5.37812 0.481445 5.1875 0.481445C4.99688 0.481445 4.81406 0.557171 4.67927 0.691962C4.54448 0.826754 4.46875 1.00957 4.46875 1.2002V1.91895H2.3125C1.93125 1.91895 1.56562 2.0704 1.29603 2.33998C1.02645 2.60956 0.875 2.9752 0.875 3.35645V17.7314C0.875 18.1127 1.02645 18.4783 1.29603 18.7479C1.56562 19.0175 1.93125 19.1689 2.3125 19.1689H16.6875C17.0687 19.1689 17.4344 19.0175 17.704 18.7479C17.9735 18.4783 18.125 18.1127 18.125 17.7314V3.35645C18.125 2.9752 17.9735 2.60956 17.704 2.33998C17.4344 2.0704 17.0687 1.91895 16.6875 1.91895ZM13.2429 11.0525L8.93039 15.365C8.86364 15.4318 8.78437 15.4848 8.69711 15.521C8.60986 15.5571 8.51633 15.5758 8.42188 15.5758C8.32742 15.5758 8.23389 15.5571 8.14664 15.521C8.05938 15.4848 7.98011 15.4318 7.91336 15.365L5.75711 13.2087C5.62224 13.0738 5.54648 12.8909 5.54648 12.7002C5.54648 12.5095 5.62224 12.3265 5.75711 12.1917C5.89198 12.0568 6.07489 11.981 6.26562 11.981C6.45636 11.981 6.63927 12.0568 6.77414 12.1917L8.42188 13.8403L12.2259 10.0354C12.2926 9.96865 12.3719 9.91568 12.4592 9.87954C12.5464 9.8434 12.6399 9.8248 12.7344 9.8248C12.8288 9.8248 12.9223 9.8434 13.0096 9.87954C13.0968 9.91568 13.1761 9.96865 13.2429 10.0354C13.3097 10.1022 13.3626 10.1815 13.3988 10.2687C13.4349 10.356 13.4535 10.4495 13.4535 10.5439C13.4535 10.6384 13.4349 10.7319 13.3988 10.8192C13.3626 10.9064 13.3097 10.9857 13.2429 11.0525ZM2.3125 6.23145V3.35645H4.46875V4.0752C4.46875 4.26582 4.54448 4.44864 4.67927 4.58343C4.81406 4.71822 4.99688 4.79395 5.1875 4.79395C5.37812 4.79395 5.56094 4.71822 5.69573 4.58343C5.83052 4.44864 5.90625 4.26582 5.90625 4.0752V3.35645H13.0938V4.0752C13.0938 4.26582 13.1695 4.44864 13.3043 4.58343C13.4391 4.71822 13.6219 4.79395 13.8125 4.79395C14.0031 4.79395 14.1859 4.71822 14.3207 4.58343C14.4555 4.44864 14.5312 4.26582 14.5312 4.0752V3.35645H16.6875V6.23145H2.3125Z" fill="white"/>
</svg>
