<svg width="60" height="60" viewBox="0 0 60 60" fill="none" xmlns="http://www.w3.org/2000/svg">
<g clip-path="url(#clip0_2005_3233)">
<path d="M8.7221 48.8369C9.26451 48.8369 9.62612 48.4753 9.62612 47.9329V46.2153L11.5246 48.1137C11.8862 48.4753 12.4286 48.4753 12.7902 48.1137C13.1518 47.7521 13.1518 47.2097 12.7902 46.8481L9.62612 43.684V41.7856L10.7109 43.232C10.9821 43.5936 11.615 43.684 11.9766 43.4128C12.3382 43.1416 12.4286 42.5088 12.1574 42.1472L9.62612 38.9831V35.8191C9.62612 35.2766 9.26451 34.915 8.7221 34.915C8.17969 34.915 7.81808 35.2766 7.81808 35.8191V38.9831L5.28683 42.1472C5.01563 42.5088 5.01563 43.1416 5.46763 43.4128C5.82924 43.684 6.46205 43.684 6.73326 43.232L7.81808 41.7856V43.684L4.65402 46.8481C4.29241 47.2097 4.29241 47.7521 4.65402 48.1137C5.01563 48.4753 5.55804 48.4753 5.91964 48.1137L7.81808 46.2153V47.9329C7.81808 48.4753 8.17969 48.8369 8.7221 48.8369Z" fill="#FF8A35"/>
<path d="M2.75558 35.9096L19.2087 12.2243L35.3002 35.9096C35.5714 36.3616 36.1138 36.452 36.5658 36.1808C37.0179 35.9096 37.1083 35.3672 36.8371 34.9152L29.6049 24.2478L35.5714 18.7333L46.4196 32.9263C46.6908 33.2879 47.3237 33.3783 47.6853 33.1071C48.0469 32.8359 48.1373 32.2031 47.8661 31.8415L43.8884 26.5982L49.0413 22.0781L56.8158 33.8304C57.0871 34.2824 57.6295 34.3728 58.0815 34.1016C58.5335 33.8304 58.6239 33.2879 58.3527 32.8359L49.9453 20.2701C49.6741 19.8181 49.0413 19.7277 48.5893 20.0893L42.7132 25.1518L36.2946 16.8348C36.0234 16.4732 35.3906 16.3828 34.9386 16.7444L28.4297 22.7109L20.0223 10.1451C19.6607 9.60268 18.8471 9.60268 18.5759 10.1451L1.30915 34.9152C1.03794 35.3672 1.12835 35.9096 1.48995 36.1808C1.94196 36.452 2.48437 36.3616 2.75558 35.9096Z" fill="#FF8A35"/>
<path d="M14.1462 27.1406L19.2087 19.9084L19.8415 20.8124C20.1127 21.2644 20.6552 21.3548 21.1072 21.0836C21.5592 20.8124 21.6496 20.27 21.3784 19.818L20.0223 17.8292C19.6607 17.2868 18.9375 17.2868 18.5759 17.8292L12.7902 26.1461C12.519 26.5981 12.6094 27.1406 12.971 27.4118C13.3326 27.683 13.875 27.5926 14.1462 27.1406Z" fill="#FF8A35"/>
<path d="M58.4431 49.0179C58.0815 48.6562 57.5391 48.6562 57.1775 49.0179C56.9967 49.1987 53.1094 53.3571 46.1484 54.9844V48.7467L48.8605 51.4587C49.2221 51.8203 49.7645 51.8203 50.1261 51.4587C50.4877 51.0971 50.4877 50.5547 50.1261 50.1931L46.058 46.125V43.0513L47.8661 45.3114C48.1373 45.673 48.7701 45.7634 49.1317 45.4922C49.4933 45.221 49.5837 44.5882 49.3125 44.2266L45.8772 39.8873C45.6964 39.7065 45.4252 39.5257 45.154 39.5257C44.8828 39.5257 44.6116 39.7065 44.4308 39.8873L40.9955 44.2266C40.7243 44.5882 40.7243 45.221 41.1763 45.4922C41.538 45.7634 42.1708 45.7634 42.442 45.3114L44.25 43.0513V46.125L40.3627 50.1027C40.0011 50.4643 40.0011 51.0067 40.3627 51.3683C40.7243 51.7299 41.2668 51.7299 41.6284 51.3683L44.3404 48.6563V55.2556C39.3683 55.9788 34.2154 55.1652 29.6049 52.6339C27.0737 51.2779 24.452 50.3739 21.74 49.9219V45.4018L23.6384 47.3002C24 47.6618 24.5424 47.6618 24.904 47.3002C25.2656 46.9386 25.2656 46.3962 24.904 46.0346L21.74 42.8705V40.0681L22.8248 41.5145C23.096 41.8761 23.7288 41.9665 24.0904 41.6953C24.452 41.4241 24.5424 40.7913 24.2712 40.4297L21.5592 36.9944C21.3784 36.8136 21.1072 36.6328 20.8359 36.6328C20.5647 36.6328 20.2935 36.8136 20.1127 36.9944L17.4007 40.4297C17.1295 40.7913 17.1295 41.4241 17.5815 41.6953C17.9431 41.9665 18.5759 41.9665 18.8471 41.5145L19.9319 40.0681V42.8705L16.7679 46.0346C16.4063 46.3962 16.4063 46.9386 16.7679 47.3002C17.1295 47.6618 17.6719 47.6618 18.0335 47.3002L19.9319 45.4018V49.7411C9.71653 48.7467 3.65961 54.0804 1.30916 55.0748C0.857153 55.346 0.676349 55.8884 0.947554 56.3404C1.21876 56.7924 1.76117 56.9732 2.21318 56.702C3.75001 56.25 15.0502 46.8482 28.7913 54.442C32.5882 56.5212 36.7467 57.5156 40.9051 57.5156C51.4822 57.5156 58.3527 50.4643 58.4431 50.4643C58.8047 49.9219 58.8047 49.3795 58.4431 49.0179Z" fill="#FF8A35"/>
<path d="M24 55.7979C19.8415 54.8939 15.5926 54.8939 11.4342 55.7979C10.9821 55.8883 10.6205 56.3403 10.7109 56.8827C10.8013 57.3347 11.3437 57.6963 11.7958 57.6059C15.683 56.7923 19.6607 56.7923 23.548 57.6059C24 57.6963 24.5424 57.4251 24.6328 56.8827C24.8136 56.4307 24.5424 55.8883 24 55.7979Z" fill="#FF8A35"/>
<path d="M26.5313 30.3047L24.2712 28.8583L23.4576 25.7846C23.3672 25.3326 22.8248 24.971 22.3728 25.1518C21.9208 25.2422 21.5592 25.7846 21.74 26.2366L22.644 29.6719C22.7344 29.8527 22.8248 30.1239 23.0056 30.2143L25.2656 31.6607L25.8984 33.6496C26.0792 34.1016 26.5313 34.3728 27.0737 34.2824C27.5257 34.1016 27.7969 33.6496 27.7065 33.1072L26.9833 30.8471C26.8025 30.5759 26.7121 30.3951 26.5313 30.3047Z" fill="#FF8A35"/>
<path d="M45.3348 14.2131C48.4989 14.2131 51.0301 11.6819 51.0301 8.51782C51.0301 5.35376 48.4989 2.82251 45.3348 2.82251C42.1708 2.82251 39.6395 5.35376 39.6395 8.51782C39.6395 11.6819 42.1708 14.2131 45.3348 14.2131ZM45.3348 4.63055C47.5045 4.63055 49.2221 6.34818 49.2221 8.51782C49.2221 10.6875 47.5045 12.4051 45.3348 12.4051C43.1652 12.4051 41.4476 10.6875 41.4476 8.51782C41.4476 6.34818 43.1652 4.63055 45.3348 4.63055Z" fill="#FF8A35"/>
</g>
<defs>
<clipPath id="clip0_2005_3233">
<rect width="57.8571" height="57.8571" fill="white" transform="translate(0.857147 1.28564)"/>
</clipPath>
</defs>
</svg>
