<svg width="60" height="60" viewBox="0 0 60 60" fill="none" xmlns="http://www.w3.org/2000/svg">
<g clip-path="url(#clip0_2005_3216)">
<path d="M16.2547 49.4531H17.7539C18.067 49.4531 18.3568 49.286 18.5143 49.015C18.6713 48.7445 18.6726 48.4099 18.517 48.138L11.4858 35.8333C11.3292 35.5595 11.0381 35.3906 10.7227 35.3906C10.4073 35.3906 10.1161 35.5595 9.95957 35.8333L2.92832 48.138C2.77268 48.4099 2.77405 48.7445 2.93106 49.015C3.08853 49.286 3.3783 49.4531 3.69141 49.4531H5.19058L2.92832 53.4114C2.77313 53.6833 2.77405 54.0175 2.93152 54.2885C3.08853 54.5595 3.3783 54.7266 3.69141 54.7266H9.85886V57.3633C9.85886 57.8485 10.2525 58.2422 10.7378 58.2422C11.223 58.2422 11.6167 57.8485 11.6167 57.3633V54.7266H17.7539C18.2414 54.7266 18.6351 54.3329 18.6351 53.8477C18.6351 53.6668 18.5806 53.4988 18.4872 53.3592L16.2547 49.4531ZM13.9774 49.01L16.2392 52.9688H5.20615L7.46796 49.01C7.6236 48.7381 7.62222 48.4039 7.46521 48.1329C7.30774 47.8619 7.01798 47.6953 6.70487 47.6953H5.20615L10.7227 38.0411L16.2392 47.6953H14.7405C14.4273 47.6953 14.1376 47.8619 13.9801 48.1329C13.8231 48.4039 13.8217 48.7381 13.9774 49.01Z" fill="#FF8A35"/>
<path d="M56.9669 53.3592L54.7348 49.4531H56.2335C56.5466 49.4531 56.8364 49.286 56.9939 49.015C57.1509 48.7445 57.1523 48.4099 56.9966 48.138L49.9654 35.8333C49.8088 35.5595 49.5177 35.3906 49.2023 35.3906C48.8869 35.3906 48.5957 35.5595 48.4392 35.8333L41.4079 48.138C41.2523 48.4099 41.2537 48.7445 41.4111 49.015C41.5682 49.286 41.8579 49.4531 42.171 49.4531H43.6702L41.4079 53.4114C41.2528 53.6833 41.2537 54.0175 41.4111 54.2885C41.5682 54.5595 41.8579 54.7261 42.171 54.7261H48.3385V57.3628C48.3385 57.8485 48.7322 58.2417 49.2174 58.2417C49.7031 58.2417 50.0963 57.8485 50.0963 57.3628V54.7266H56.2335C56.7215 54.7266 57.1147 54.3329 57.1147 53.8477C57.1147 53.6668 57.0603 53.4988 56.9669 53.3592ZM52.457 49.01L54.7188 52.9688H43.6853L45.9476 49.01C46.1028 48.7381 46.1018 48.4039 45.9444 48.1329C45.7874 47.8619 45.4976 47.6953 45.1845 47.6953H43.6853L49.2023 38.0411L54.7188 47.6953H53.2201C52.907 47.6953 52.6172 47.8619 52.4597 48.1329C52.3027 48.4039 52.3013 48.7381 52.457 49.01Z" fill="#FF8A35"/>
<path d="M42.0854 28.418C42.0854 24.9623 39.4707 22.1077 36.1162 21.7245C35.7477 20.3508 34.492 19.3359 33.0034 19.3359H27.144C25.6833 19.3359 24.4473 20.3133 24.0532 21.6476C19.0704 21.265 15.1323 17.0911 15.1323 12.0117C15.1323 11.526 14.7386 11.1328 14.2534 11.1328C13.7682 11.1328 13.3745 11.526 13.3745 12.0117C13.3745 18.0162 18.0304 22.9536 23.9214 23.4041V30.4404C22.7856 31.8452 22.1635 33.5966 22.1635 35.4099V41.3086C22.1635 41.7938 22.5572 42.1875 23.0424 42.1875H25.6792V50.625H23.0424C22.5572 50.625 22.1635 51.0182 22.1635 51.5039V57.9016L21.0068 58.287C20.5463 58.4404 20.2972 58.9384 20.4506 59.3985C20.5737 59.767 20.9166 60 21.2842 60C21.3766 60 21.47 59.9854 21.5625 59.9547L23.3029 59.3742C23.3052 59.3733 26.8359 58.1969 26.8359 58.1969C27.1948 58.0769 27.437 57.7414 27.437 57.3628V42.1875H32.7104V57.3633C32.7104 57.7414 32.9526 58.0774 33.311 58.1969L36.8417 59.3738C36.844 59.3742 38.5844 59.9547 38.5844 59.9547C38.6769 59.9854 38.7703 60 38.8628 60C39.2308 60 39.5737 59.767 39.6964 59.399C39.8497 58.9384 39.6011 58.4404 39.1406 58.287L37.9834 57.9016V51.5039C37.9834 51.0182 37.5902 50.625 37.1045 50.625H34.4678V42.1875H37.1045C37.5902 42.1875 37.9834 41.7938 37.9834 41.3086V35.4099C37.9834 35.1494 37.9692 34.8907 37.944 34.6339C40.416 33.598 42.0854 31.143 42.0854 28.418ZM23.9214 57.3157V52.3828H25.6792V56.7297L23.9214 57.3157ZM36.226 52.3828V57.3157L34.4682 56.7297V52.3828H36.226ZM34.4682 29.8828H32.71V28.125H34.4682V29.8828ZM25.6792 28.125H27.437V29.8828H25.6792V28.125ZM29.1948 28.125H30.9521V29.8828H29.1948V28.125ZM27.144 21.0938H33.0034C33.8109 21.0938 34.4682 21.7506 34.4682 22.5586V26.3672H25.6792V22.5586C25.6792 21.7506 26.3361 21.0938 27.144 21.0938ZM36.226 40.4297H23.9214V35.4099C23.9214 34.0402 24.3791 32.7168 25.215 31.6406H34.9324C35.7683 32.7168 36.226 34.0402 36.226 35.4099V40.4297ZM37.565 32.8752C37.2675 31.9968 36.817 31.1714 36.226 30.4404V23.5167C38.5542 23.9333 40.3276 25.9717 40.3276 28.418C40.3276 30.3204 39.2267 32.0448 37.565 32.8752Z" fill="#FF8A35"/>
<path d="M13.84 9.27155C13.9691 9.34067 14.1115 9.375 14.2534 9.375C14.3953 9.375 14.5377 9.34067 14.6667 9.27155C14.8553 9.1713 19.2925 6.76712 19.2925 3.23318C19.2925 1.4502 17.8404 0 16.0561 0C15.406 0 14.7812 0.194092 14.2534 0.548401C13.7256 0.194092 13.1007 0 12.4507 0C10.6659 0 9.21432 1.4502 9.21432 3.23318C9.21432 6.76712 13.6514 9.1713 13.84 9.27155ZM12.4507 1.75781C12.887 1.75781 13.299 1.94962 13.5814 2.28424C13.7485 2.48245 13.9943 2.59644 14.2534 2.59644C14.512 2.59644 14.7578 2.48245 14.9249 2.28424C15.2074 1.94962 15.6194 1.75781 16.0561 1.75781C16.8713 1.75781 17.5342 2.41974 17.5342 3.23318C17.5342 5.05325 15.4449 6.73553 14.252 7.47986C13.0595 6.73828 10.9721 5.06149 10.9721 3.23318C10.9721 2.41974 11.6354 1.75781 12.4507 1.75781Z" fill="#FF8A35"/>
<path d="M23.9214 17.5781H36.226C38.1647 17.5781 39.7417 16.0011 39.7417 14.0625C39.7417 12.1239 38.1647 10.5469 36.226 10.5469H36.1624C35.7344 7.56958 33.1677 5.27344 30.0737 5.27344C26.9797 5.27344 24.413 7.56958 23.985 10.5469H23.9214C21.9827 10.5469 20.4057 12.1239 20.4057 14.0625C20.4057 16.0011 21.9827 17.5781 23.9214 17.5781ZM37.9839 14.0625C37.9839 15.0316 37.1951 15.8203 36.226 15.8203H34.3735C35.3174 14.8965 35.9656 13.6729 36.1624 12.3047H36.226C37.1951 12.3047 37.9839 13.0934 37.9839 14.0625ZM34.3684 10.4974C32.0068 10.2631 29.8476 9.18365 28.2399 7.43362C28.7984 7.1759 29.4196 7.03125 30.0737 7.03125C32.1785 7.03125 33.9413 8.51898 34.3684 10.4974ZM26.8158 8.47961C28.7718 10.6833 31.4534 12.0241 34.3867 12.2649C33.994 14.2877 32.2101 15.8203 30.0737 15.8203C27.6503 15.8203 25.6792 13.8487 25.6792 11.4258C25.6792 10.2933 26.1099 9.25964 26.8158 8.47961ZM23.9214 12.3047H23.985C24.1818 13.6729 24.83 14.8965 25.7739 15.8203H23.9214C22.9523 15.8203 22.1635 15.0316 22.1635 14.0625C22.1635 13.0934 22.9523 12.3047 23.9214 12.3047Z" fill="#FF8A35"/>
</g>
<defs>
<clipPath id="clip0_2005_3216">
<rect width="60" height="60" fill="white"/>
</clipPath>
</defs>
</svg>
