<svg width="110" height="110" viewBox="0 0 110 110" fill="none" xmlns="http://www.w3.org/2000/svg">
<g clip-path="url(#clip0_2011_2714)">
<path fill-rule="evenodd" clip-rule="evenodd" d="M7.41902 14.5665L18.766 3.14282L30.113 14.5665L28.3808 16.2589L19.9834 7.81041V17.1018L29.1415 26.3207L27.4035 28.0131L19.9834 20.5398V28.0097L35.175 43.3026L33.4429 44.995L19.9834 31.4519V52.5123H17.5431V31.4581L4.09519 44.995L2.35715 43.3026L17.5431 28.0154V20.4847L7.33117 30.4589L5.62239 28.7375L17.5431 17.0938V7.81589L9.15121 16.2589L7.41902 14.5665ZM41.3371 23.5443H43.7774V29.4262L47.4324 25.7476L49.1676 27.4387L43.7774 32.8637V39.4051C44.2312 39.3271 44.663 39.1962 45.0647 39.0194C45.7845 38.7006 46.4282 38.2369 46.949 37.6573L47.3119 37.2574H47.9205C49.4186 37.2574 50.7704 36.6314 51.7535 35.623C52.7484 34.6029 53.3628 33.1887 53.3628 31.618C53.3628 30.6617 53.1346 29.7633 52.7308 28.9751C52.3095 28.1578 51.7067 27.4565 50.9811 26.9523L50.3198 26.4886L50.4895 25.7178C50.5246 25.5555 50.5539 25.399 50.5656 25.2541C50.5831 25.115 50.589 24.9585 50.589 24.7846C50.589 23.695 50.1852 22.7097 49.5298 21.9736H49.5064C48.8509 21.2491 47.9497 20.7681 46.9432 20.6927L46.1766 20.6348L45.8957 19.9335C45.6499 19.3191 45.2286 18.7975 44.7019 18.4381C44.1928 18.0904 43.5783 17.8933 42.9112 17.8933C42.2441 17.8933 41.6296 18.0962 41.1146 18.4439C40.5821 18.8033 40.1607 19.3191 39.9208 19.9277L39.5931 20.7449L38.7153 20.6869H38.61C37.5391 20.6869 36.5618 21.139 35.8595 21.8693C35.1456 22.6112 34.7008 23.6428 34.7008 24.7846C34.7008 24.9585 34.7067 25.115 34.7243 25.2541C34.7418 25.4048 34.7652 25.5613 34.8003 25.7236L34.97 26.4944L34.3088 26.9581C33.5831 27.4681 32.9804 28.1636 32.559 28.9809C32.1552 29.7691 31.927 30.6675 31.927 31.6238C31.927 33.1887 32.5415 34.6087 33.5363 35.6288C34.5194 36.6372 35.8712 37.2574 37.3694 37.2574H37.4922L38.2296 37.2284L38.6158 37.6515C39.1366 38.2253 39.7804 38.6948 40.506 39.0136C40.7716 39.1317 41.0493 39.2293 41.3371 39.3046V23.5443ZM46.0361 41.216C45.3271 41.5263 44.5687 41.7417 43.7774 41.8419V52.518H41.3371V41.7786C40.6935 41.6631 40.0748 41.4718 39.4936 41.216C38.6334 40.8393 37.8551 40.3118 37.1879 39.6743C35.0754 39.6279 33.1618 38.7296 31.769 37.298C30.3528 35.8432 29.475 33.832 29.475 31.6238C29.475 30.2733 29.8027 29.004 30.3762 27.8854C30.8502 26.9581 31.5057 26.1409 32.2898 25.4686C32.2664 25.2309 32.2547 25.0049 32.2547 24.7846C32.2547 22.9995 32.9628 21.3766 34.1039 20.1943C35.128 19.1394 36.4974 18.4381 38.0248 18.2932C38.452 17.5514 39.043 16.9196 39.7453 16.4443C40.6523 15.83 41.7408 15.4706 42.917 15.4706C44.0933 15.4706 45.1817 15.8358 46.0947 16.4501C46.8203 16.9486 47.4289 17.6093 47.8619 18.3802H47.8502C49.2138 18.6468 50.4251 19.3597 51.3263 20.3624C52.368 21.5215 53.0058 23.0748 53.0058 24.7788C53.0058 24.9933 52.9941 25.2251 52.9707 25.4628C53.7549 26.1351 54.4045 26.9581 54.8843 27.8796C55.4578 28.9983 55.7855 30.2734 55.7855 31.618C55.7855 33.832 54.9077 35.8374 53.4916 37.2922C52.1632 38.6542 50.3666 39.541 48.3652 39.6569C47.6922 40.3003 46.9081 40.8335 46.0361 41.216Z" fill="#FF8A35"/>
<path fill-rule="evenodd" clip-rule="evenodd" d="M7.4191 69.6971L18.7661 58.2734L30.1131 69.6971L28.3809 71.3895L18.7661 61.7104L9.15128 71.3895L7.4191 69.6971Z" fill="#FF8A35"/>
<path fill-rule="evenodd" clip-rule="evenodd" d="M5.62256 83.8681L18.7778 71.0186L29.1417 81.4454L27.4036 83.1378L18.7544 74.4323L7.33134 85.5894L5.62256 83.8681Z" fill="#FF8A35"/>
<path fill-rule="evenodd" clip-rule="evenodd" d="M2.35715 98.4273L18.7661 81.9148L35.175 98.4273L33.4429 100.12L18.7661 85.3576L4.09519 100.12L2.35715 98.4273Z" fill="#FF8A35"/>
<path d="M19.9833 59.9948H17.543V107.643H19.9833V59.9948Z" fill="#FF8A35"/>
<path d="M43.7775 78.6749H41.3372V107.643H43.7775V78.6749Z" fill="#FF8A35"/>
<path fill-rule="evenodd" clip-rule="evenodd" d="M47.8504 73.5109C49.2139 73.7775 50.4253 74.4904 51.3324 75.4931C52.374 76.6522 53.0119 78.2055 53.0119 79.9095C53.0119 80.1298 53.0002 80.3558 52.9768 80.5934C53.7609 81.2658 54.4105 82.0888 54.8904 83.0103C55.4639 84.1289 55.7916 85.404 55.7916 86.7487C55.7916 88.9627 54.9138 90.9681 53.4976 92.4229C52.1692 93.7849 50.3726 94.6717 48.3713 94.7876C47.6983 95.4309 46.9141 95.9642 46.0422 96.3467C45.0356 96.7872 43.9296 97.0364 42.7709 97.0364C41.6122 97.0364 40.5003 96.7872 39.4938 96.3467C38.6336 95.97 37.8553 95.4425 37.1881 94.805C35.0697 94.7586 33.162 93.8603 31.7692 92.4287C30.353 90.9739 29.4752 88.9627 29.4752 86.7545C29.4752 85.404 29.8029 84.1347 30.3764 83.0161C30.8504 82.0888 31.5059 81.2716 32.29 80.5992C32.2666 80.3616 32.2549 80.1298 32.2549 79.9153C32.2549 78.1302 32.963 76.5073 34.1041 75.325C35.1282 74.2701 36.4976 73.5688 38.025 73.4239C38.4522 72.6878 39.0432 72.0503 39.7454 71.575C40.6525 70.9607 41.741 70.6013 42.9114 70.6013C44.0818 70.6013 45.1761 70.9665 46.089 71.5808C46.8146 72.0735 47.4232 72.7342 47.8504 73.5109ZM49.5065 77.1043C48.8511 76.3798 47.9499 75.8988 46.9434 75.8234L46.1826 75.7655L45.9017 75.0584C45.6618 74.4498 45.2405 73.934 44.7079 73.5688C44.1988 73.2211 43.5843 73.024 42.9172 73.024C42.2501 73.024 41.6356 73.2269 41.1207 73.5746C40.5881 73.934 40.1668 74.4498 39.9269 75.0584L39.6108 75.8408L38.7623 75.8176C38.6511 75.8176 38.7448 75.8176 38.616 75.8176C37.5451 75.8176 36.5678 76.2697 35.8656 77C35.1516 77.7419 34.7069 78.7735 34.7069 79.9153C34.7069 80.0892 34.7127 80.2457 34.7303 80.3848C34.7479 80.5355 34.7713 80.692 34.8064 80.8543L34.9761 81.6251L34.3148 82.0888C33.5892 82.5988 32.9864 83.2943 32.5651 84.1116C32.1613 84.8998 31.9331 85.7982 31.9331 86.7545C31.9331 88.3194 32.5475 89.7394 33.5423 90.7594C34.5255 91.7679 35.8773 92.3881 37.3754 92.3881H37.4924L38.2298 92.3591L38.616 92.788C39.1368 93.3618 39.7806 93.8313 40.5062 94.15C41.1967 94.4572 41.9692 94.6253 42.7885 94.6253C43.6077 94.6253 44.3802 94.4572 45.0649 94.1558C45.7847 93.8371 46.4284 93.3734 46.9492 92.7996L47.3121 92.3997H47.9207C49.4188 92.3997 50.7706 91.7737 51.7537 90.7652C52.7485 89.7452 53.363 88.331 53.363 86.7603C53.363 85.804 53.1348 84.9056 52.731 84.1174C52.3096 83.3001 51.7069 82.5988 50.9812 82.0888L50.32 81.6251L50.4897 80.8543C50.5248 80.692 50.554 80.5355 50.5657 80.3906C50.5833 80.2515 50.5892 80.095 50.5892 79.9153C50.5892 78.8257 50.1854 77.8404 49.53 77.1101L49.5065 77.1043Z" fill="#FF8A35"/>
<path d="M47.4313 80.8827L41.9352 86.4142L43.6703 88.1053L49.1664 82.5738L47.4313 80.8827Z" fill="#FF8A35"/>
</g>
<g clip-path="url(#clip1_2011_2714)">
<path fill-rule="evenodd" clip-rule="evenodd" d="M60.8477 14.5665L72.1946 3.14282L83.5416 14.5665L81.8094 16.2589L72.1946 6.58558L62.5798 16.2589L60.8477 14.5665Z" fill="#FF8A35"/>
<path fill-rule="evenodd" clip-rule="evenodd" d="M59.0511 28.7374L72.2064 15.8879L82.5702 26.3206L80.8322 28.013L72.183 19.3017L60.7599 30.4588L59.0511 28.7374Z" fill="#FF8A35"/>
<path fill-rule="evenodd" clip-rule="evenodd" d="M55.7857 43.3026L72.1947 26.7843L88.6036 43.3026L86.8714 44.995L72.1947 30.2271L57.5237 44.995L55.7857 43.3026Z" fill="#FF8A35"/>
<path d="M73.4119 4.86426H70.9716V52.5123H73.4119V4.86426Z" fill="#FF8A35"/>
<path d="M97.206 23.5444H94.7657V52.5181H97.206V23.5444Z" fill="#FF8A35"/>
<path fill-rule="evenodd" clip-rule="evenodd" d="M101.279 18.3802C102.643 18.6469 103.854 19.3597 104.755 20.3624C105.797 21.5216 106.435 23.0749 106.435 24.7789C106.435 24.9934 106.423 25.2252 106.399 25.4628C107.184 26.1352 107.833 26.9582 108.313 27.8797C108.887 28.9983 109.214 30.2734 109.214 31.6181C109.214 33.8321 108.336 35.8375 106.92 37.2923C105.592 38.6543 103.795 39.5411 101.794 39.657C101.121 40.3003 100.337 40.8335 99.4649 41.2161C98.4583 41.6566 97.3523 41.9058 96.1936 41.9058C95.0349 41.9058 93.9231 41.6566 92.9224 41.2161C92.0621 40.8393 91.2838 40.3119 90.6167 39.6744C88.5041 39.628 86.5905 38.7296 85.1978 37.298C83.7816 35.8433 82.9038 33.8321 82.9038 31.6239C82.9038 30.2734 83.2315 29.0041 83.805 27.8855C84.279 26.9582 84.9344 26.1409 85.7186 25.4686C85.6952 25.231 85.6835 25.005 85.6835 24.7847C85.6835 22.9996 86.3916 21.3767 87.5327 20.1944C88.5568 19.1395 89.9262 18.4382 91.4535 18.2933C91.8807 17.5514 92.4718 16.9197 93.174 16.4444C94.0811 15.83 95.1695 15.4707 96.3458 15.4707C97.522 15.4707 98.6105 15.8358 99.5234 16.4502C100.249 16.9487 100.858 17.6094 101.291 18.3802H101.279ZM102.935 21.9737C102.28 21.2492 101.378 20.7682 100.372 20.6928L99.6053 20.6348L99.3244 19.9335C99.0786 19.3192 98.6573 18.7975 98.1306 18.4382C97.6215 18.0904 97.007 17.8934 96.3399 17.8934C95.6728 17.8934 95.0583 18.0962 94.5434 18.444C94.0108 18.8033 93.5895 19.3192 93.3496 19.9277L93.0219 20.745L92.1441 20.687H92.0387C90.9678 20.687 89.9905 21.1391 89.2883 21.8694C88.5743 22.6112 88.1296 23.6429 88.1296 24.7847C88.1296 24.9586 88.1354 25.1151 88.153 25.2542C88.1706 25.4049 88.194 25.5614 88.2291 25.7236L88.3988 26.4945L87.7375 26.9582C87.0119 27.4682 86.4091 28.1637 85.9878 28.9809C85.584 29.7692 85.3558 30.6675 85.3558 31.6239C85.3558 33.1888 85.9702 34.6088 86.9651 35.6288C87.9482 36.6373 89.3 37.2575 90.7981 37.2575C90.921 37.2575 90.8976 37.2575 90.921 37.2575L91.6583 37.2285L92.0446 37.6516C92.5654 38.2254 93.2091 38.6949 93.9348 39.0136C94.6253 39.3208 95.3978 39.4889 96.217 39.4889C97.0363 39.4889 97.8088 39.3208 98.4935 39.0194C99.2132 38.7007 99.857 38.237 100.378 37.6574L100.741 37.2575H101.349C102.847 37.2575 104.199 36.6315 105.182 35.623C106.177 34.603 106.792 33.1888 106.792 31.6181C106.792 30.6617 106.563 29.7634 106.16 28.9751C105.738 28.1579 105.135 27.4566 104.41 26.9524L103.749 26.4887L103.918 25.7178C103.953 25.5556 103.983 25.3991 103.994 25.2542C104.012 25.1151 104.018 24.9586 104.018 24.7847C104.018 23.6951 103.614 22.7098 102.959 21.9737H102.935Z" fill="#FF8A35"/>
<path d="M100.861 25.7475L95.365 31.2791L97.1002 32.9702L102.596 27.4387L100.861 25.7475Z" fill="#FF8A35"/>
<path fill-rule="evenodd" clip-rule="evenodd" d="M60.8477 69.6971L72.1946 58.2734L83.5416 69.6971L81.8094 71.3895L72.1946 61.7104L62.5798 71.3895L60.8477 69.6971Z" fill="#FF8A35"/>
<path fill-rule="evenodd" clip-rule="evenodd" d="M59.0511 83.8681L72.2064 71.0186L82.5702 81.4454L80.8322 83.1378L72.183 74.4323L60.7599 85.5894L59.0511 83.8681Z" fill="#FF8A35"/>
<path fill-rule="evenodd" clip-rule="evenodd" d="M55.7857 98.4273L72.1947 81.9148L88.6036 98.4273L86.8714 100.12L72.1947 85.3576L57.5237 100.12L55.7857 98.4273Z" fill="#FF8A35"/>
<path d="M73.4119 59.9948H70.9716V107.643H73.4119V59.9948Z" fill="#FF8A35"/>
<path d="M97.206 78.6749H94.7657V107.643H97.206V78.6749Z" fill="#FF8A35"/>
<path fill-rule="evenodd" clip-rule="evenodd" d="M101.279 73.5109C102.643 73.7775 103.854 74.4904 104.761 75.4931C105.803 76.6522 106.44 78.2055 106.44 79.9095C106.44 80.1298 106.429 80.3558 106.405 80.5934C107.189 81.2658 107.839 82.0888 108.319 83.0103C108.892 84.1289 109.22 85.404 109.22 86.7487C109.22 88.9627 108.342 90.9681 106.926 92.4229C105.598 93.7849 103.801 94.6717 101.8 94.7876C101.127 95.4309 100.343 95.9642 99.4707 96.3467C98.4642 96.7872 97.3582 97.0364 96.1995 97.0364C95.0408 97.0364 93.9289 96.7872 92.9224 96.3467C92.0621 95.97 91.2838 95.4425 90.6167 94.805C88.4983 94.7586 86.5905 93.8603 85.1978 92.4287C83.7816 90.9739 82.9038 88.9627 82.9038 86.7545C82.9038 85.404 83.2315 84.1347 83.805 83.0161C84.279 82.0888 84.9344 81.2716 85.7186 80.5992C85.6952 80.3616 85.6835 80.1298 85.6835 79.9153C85.6835 78.1302 86.3916 76.5073 87.5327 75.325C88.5568 74.2701 89.9262 73.5688 91.4535 73.4239C91.8807 72.6878 92.4718 72.0503 93.174 71.575C94.0811 70.9607 95.1695 70.6013 96.3399 70.6013C97.5103 70.6013 98.6046 70.9665 99.5175 71.5808C100.243 72.0735 100.852 72.7342 101.279 73.5109ZM102.935 77.1043C102.28 76.3798 101.378 75.8988 100.372 75.8234L99.6112 75.7655L99.3303 75.0584C99.0904 74.4498 98.669 73.934 98.1365 73.5688C97.6274 73.2211 97.0129 73.024 96.3458 73.024C95.6786 73.024 95.0642 73.2269 94.5492 73.5746C94.0167 73.934 93.5953 74.4498 93.3554 75.0584L93.0394 75.8408L92.1909 75.8176C92.0797 75.8176 92.1733 75.8176 92.0446 75.8176C90.9737 75.8176 89.9964 76.2697 89.2941 77C88.5802 77.7419 88.1354 78.7735 88.1354 79.9153C88.1354 80.0892 88.1413 80.2457 88.1589 80.3848C88.1764 80.5355 88.1998 80.692 88.2349 80.8543L88.4046 81.6251L87.7434 82.0888C87.0177 82.5988 86.415 83.2943 85.9936 84.1116C85.5898 84.8998 85.3616 85.7982 85.3616 86.7545C85.3616 88.3194 85.9761 89.7394 86.9709 90.7594C87.954 91.7679 89.3058 92.3881 90.804 92.3881H90.921L91.6583 92.3591L92.0446 92.788C92.5654 93.3618 93.2091 93.8313 93.9348 94.15C94.6253 94.4572 95.3978 94.6253 96.217 94.6253C97.0363 94.6253 97.8088 94.4572 98.4935 94.1558C99.2132 93.8371 99.857 93.3734 100.378 92.7996L100.741 92.3997H101.349C102.847 92.3997 104.199 91.7737 105.182 90.7652C106.177 89.7452 106.792 88.331 106.792 86.7603C106.792 85.804 106.563 84.9056 106.16 84.1174C105.738 83.3001 105.135 82.5988 104.41 82.0888L103.749 81.6251L103.918 80.8543C103.953 80.692 103.983 80.5355 103.994 80.3906C104.012 80.2515 104.018 80.095 104.018 79.9153C104.018 78.8257 103.614 77.8404 102.959 77.1101L102.935 77.1043Z" fill="#FF8A35"/>
<path d="M100.86 80.8827L95.3638 86.4142L97.0989 88.1053L102.595 82.5738L100.86 80.8827Z" fill="#FF8A35"/>
</g>
<defs>
<clipPath id="clip0_2011_2714">
<rect width="53.4286" height="104.5" fill="white" transform="translate(2.35715 3.14282)"/>
</clipPath>
<clipPath id="clip1_2011_2714">
<rect width="53.4286" height="104.5" fill="white" transform="translate(55.7857 3.14282)"/>
</clipPath>
</defs>
</svg>
