<svg width="18" height="18" viewBox="0 0 18 18" fill="none" xmlns="http://www.w3.org/2000/svg">
<path d="M17.9272 13.0897C17.774 14.2542 17.2021 15.3231 16.3184 16.0967C15.4346 16.8704 14.2995 17.2959 13.125 17.2938C6.30156 17.2938 0.75 11.7422 0.75 4.91877C0.747895 3.74426 1.1734 2.60913 1.94705 1.72542C2.7207 0.841697 3.78958 0.269816 4.95406 0.116584C5.24853 0.0806285 5.54673 0.140871 5.80414 0.28832C6.06156 0.435769 6.26439 0.662514 6.38234 0.934709L8.19734 4.98666V4.99697C8.28765 5.20533 8.32495 5.43282 8.30591 5.6591C8.28686 5.88539 8.21207 6.10344 8.0882 6.29377C8.07273 6.31697 8.05641 6.33846 8.03922 6.35994L6.25 8.48088C6.89367 9.78885 8.2618 11.1449 9.58695 11.7903L11.6787 10.0106C11.6992 9.9933 11.7207 9.97723 11.7431 9.96244C11.9333 9.8356 12.1521 9.75818 12.3797 9.73717C12.6073 9.71616 12.8366 9.75224 13.0468 9.84213L13.058 9.84729L17.1065 11.6614C17.3792 11.779 17.6065 11.9816 17.7544 12.2391C17.9023 12.4965 17.9629 12.7949 17.9272 13.0897Z" fill="#FFFFFF"/>
</svg>
