<svg width="96" height="96" viewBox="0 0 96 96" fill="none" xmlns="http://www.w3.org/2000/svg">
<g clip-path="url(#clip0_2011_2979)">
<path d="M85.1887 48.0699L85.9666 50.6631C86.1889 51.4039 85.8232 52.2632 85.1575 52.6075C85.1575 52.6075 85.6207 52.2761 85.1464 52.6155C84.0251 53.4176 83.8461 54.1405 85.1187 56.0493C88.1153 60.5442 87.13 64.5234 83.7233 66.9605C82.6816 67.7057 82.1412 67.848 82.1412 67.848C81.4712 68.1479 80.7197 67.7902 80.5008 67.0606L79.7228 64.4674C79.5006 63.7266 79.8662 62.8673 80.5319 62.523C80.5319 62.523 80.0687 62.8544 80.5431 62.515C81.6643 61.7129 81.8433 60.99 80.5708 59.0812C77.5742 54.5863 78.5595 50.6071 81.9662 48.17C83.0078 47.4248 83.5483 47.2825 83.5483 47.2825C84.2182 46.9826 84.9698 47.3403 85.1887 48.0699ZM26.8199 41.2967V37.0428C26.8199 36.3038 27.4374 35.6864 28.1991 35.6864H30.9065C31.6799 35.6864 32.2857 36.2937 32.2857 37.0428V41.297C38.9958 41.9454 44.232 45.0003 48.0655 49.6856C49.5704 51.525 50.7476 53.487 51.6409 55.4522C52.1856 56.6506 52.5217 57.6089 52.6863 58.2126C53.1605 59.9511 51.8517 61.6646 50.0497 61.6646H9.0559C7.58844 61.6646 6.58365 60.6871 6.2503 59.5042C6.1032 58.9823 6.09358 58.4847 6.15939 57.9512C6.24592 57.2499 6.48511 56.4323 6.84673 55.5483C7.62322 53.6502 8.91254 51.5543 10.5745 49.6299C14.5608 45.0141 20.0489 41.9466 26.8199 41.2967ZM6.32299 78.0622H14.5217C16.0311 78.0622 17.2547 79.2857 17.2547 80.7951V90.3643C17.2547 91.1077 16.6371 91.7268 15.8754 91.7268H13.1681C12.3946 91.7268 11.7888 91.1206 11.7888 90.3729V83.528H6.32299V90.3729C6.32299 91.1105 5.70547 91.7268 4.94372 91.7268H2.23641C1.46297 91.7268 0.857147 91.119 0.857147 90.3693V68.4879C0.857147 67.7385 1.47466 67.1305 2.23641 67.1305H4.94372C5.71716 67.1305 6.32299 67.7405 6.32299 68.4929V78.0622ZM26.8199 86.2609V75.3292H15.8848C15.1316 75.3292 14.5217 74.7117 14.5217 73.95V71.2427C14.5217 70.4692 15.132 69.8634 15.8848 69.8634H26.8199V64.382H32.2857V69.8634H43.2208C43.974 69.8634 44.5839 70.4809 44.5839 71.2427V73.95C44.5839 74.7234 43.9736 75.3292 43.2208 75.3292H32.2857V86.2609H36.3723C37.1457 86.2609 37.7516 86.8784 37.7516 87.6402V90.3475C37.7516 91.1209 37.1383 91.7268 36.3817 91.7268H22.7239C21.9768 91.7268 21.354 91.1092 21.354 90.3475V87.6402C21.354 86.8667 21.9716 86.2609 22.7333 86.2609H26.8199ZM52.7826 83.528H47.3168V90.3729C47.3168 91.1105 46.6993 91.7268 45.9375 91.7268H43.2302C42.4568 91.7268 41.8509 91.1168 41.8509 90.3643V80.7951C41.8509 79.2857 43.0745 78.0622 44.5839 78.0622H52.7826V68.4929C52.7826 67.7495 53.4001 67.1305 54.1619 67.1305H56.8692C57.6426 67.1305 58.2484 67.7382 58.2484 68.4879V90.3693C58.2484 91.1187 57.6309 91.7268 56.8692 91.7268H54.1619C53.3884 91.7268 52.7826 91.1206 52.7826 90.3729V83.528ZM80.1118 86.9513L76.2194 91.1976C75.7194 91.743 74.8448 91.7833 74.2811 91.2709L72.2779 89.4497C71.7056 88.9294 71.6682 88.0737 72.175 87.5209L79.1374 79.9255L76.2743 76.8022C75.7744 76.2568 75.8136 75.3858 76.3773 74.8734L78.3805 73.0522C78.9528 72.5319 79.8119 72.5726 80.3187 73.1255L82.8447 75.8811L85.3707 73.1255C85.8707 72.5801 86.7453 72.5398 87.3089 73.0522L89.3122 74.8734C89.8845 75.3936 89.9219 76.2493 89.4151 76.8022L86.5521 79.9255L93.5145 87.5209C94.0144 88.0662 93.9752 88.9373 93.4116 89.4497L91.4083 91.2709C90.836 91.7911 89.9769 91.7505 89.4701 91.1976L85.5776 86.9513V90.3636C85.5776 91.1169 84.9601 91.7268 84.1984 91.7268H81.4911C80.7176 91.7268 80.1118 91.1164 80.1118 90.3636V86.9513ZM66.4472 26.1367C60.4098 26.1367 55.5155 21.2424 55.5155 15.205C55.5155 9.16759 60.4098 4.27332 66.4472 4.27332C72.4846 4.27332 77.3789 9.16759 77.3789 15.205C77.3789 21.2424 72.4846 26.1367 66.4472 26.1367Z" fill="#FF8A35"/>
</g>
<defs>
<clipPath id="clip0_2011_2979">
<rect width="94.2857" height="94.2857" fill="white" transform="translate(0.857147 0.857178)"/>
</clipPath>
</defs>
</svg>
