<svg width="19" height="19" viewBox="0 0 19 19" fill="none" xmlns="http://www.w3.org/2000/svg">
<path d="M18.5211 8.28182L14.7019 11.5182L15.8655 16.3581C15.9297 16.6209 15.9131 16.8964 15.818 17.1499C15.7228 17.4034 15.5532 17.6235 15.3307 17.7825C15.1082 17.9414 14.8428 18.032 14.5678 18.0428C14.2929 18.0537 14.0209 17.9843 13.7861 17.8434L9.50017 15.2529L5.21165 17.8434C4.97692 17.9834 4.70523 18.0522 4.43079 18.041C4.15634 18.0297 3.89142 17.939 3.66938 17.7802C3.44734 17.6214 3.2781 17.4017 3.18299 17.1486C3.08787 16.8955 3.07113 16.6205 3.13486 16.3581L4.30268 11.5182L0.483499 8.28182C0.275818 8.10555 0.125619 7.8731 0.051661 7.6135C-0.0222975 7.3539 -0.0167383 7.07866 0.0676444 6.82214C0.152027 6.56563 0.311493 6.33921 0.526128 6.17116C0.740763 6.00312 1.00105 5.9009 1.27449 5.87726L6.28187 5.48053L8.21353 0.889798C8.31809 0.639606 8.49604 0.425598 8.72477 0.274982C8.95349 0.124366 9.22266 0.0439453 9.49805 0.0439453C9.77344 0.0439453 10.0426 0.124366 10.2713 0.274982C10.5001 0.425598 10.678 0.639606 10.7826 0.889798L12.7134 5.48053L17.7208 5.87726C17.9947 5.90002 18.2558 6.00167 18.4712 6.16948C18.6866 6.33729 18.8468 6.5638 18.9317 6.82063C19.0166 7.07746 19.0225 7.35318 18.9485 7.61325C18.8746 7.87332 18.7241 8.10618 18.516 8.28265L18.5211 8.28182Z" fill="white"/>
</svg>
