<svg width="60" height="60" viewBox="0 0 60 60" fill="none" xmlns="http://www.w3.org/2000/svg">
<path d="M30.0005 2.74776e-06C22.6928 -0.00312504 15.6358 2.66413 10.1571 7.5C10.0552 7.58986 9.97202 7.69892 9.91227 7.82093C9.85253 7.94295 9.81741 8.07553 9.80891 8.21112C9.8004 8.34671 9.81869 8.48265 9.86273 8.61117C9.90676 8.73969 9.97568 8.85828 10.0655 8.96017C10.1554 9.06206 10.2645 9.14525 10.3865 9.20499C10.5085 9.26473 10.6411 9.29986 10.7767 9.30836C10.9123 9.31686 11.0482 9.29857 11.1767 9.25454C11.3052 9.2105 11.4238 9.14159 11.5257 9.05172C16.9438 4.27583 24.002 1.78573 31.2174 2.10462C38.4329 2.4235 45.2439 5.52653 50.2195 10.7618C55.1951 15.997 57.948 22.9569 57.8998 30.1793C57.8516 37.4016 55.006 44.3241 49.9609 49.4925C44.9159 54.6608 38.064 57.6726 30.845 57.8951C23.6259 58.1177 16.6016 55.5336 11.2478 50.6857C5.89396 45.8379 2.62745 39.1038 2.13451 31.8981C1.64158 24.6925 3.96059 17.5762 8.60434 12.0445C8.69551 11.941 8.76508 11.8204 8.80895 11.6896C8.85282 11.5589 8.8701 11.4207 8.85978 11.2831C8.84945 11.1456 8.81174 11.0115 8.74885 10.8888C8.68595 10.7661 8.59916 10.6571 8.49355 10.5684C8.38795 10.4797 8.26568 10.413 8.13393 10.3723C8.00218 10.3315 7.86361 10.3175 7.72636 10.3311C7.58912 10.3447 7.45598 10.3855 7.33477 10.4513C7.21356 10.5171 7.10672 10.6065 7.02054 10.7141C2.6308 15.9446 0.156759 22.5161 0.00720118 29.3429C-0.142357 36.1697 2.04152 42.8433 6.19799 48.261C10.3545 53.6787 16.2348 57.5163 22.8675 59.1398C29.5001 60.7632 36.4881 60.0754 42.677 57.1899C48.8658 54.3045 53.8851 49.394 56.9055 43.2699C59.926 37.1458 60.7668 30.1745 59.2891 23.5079C57.8114 16.8413 54.1036 10.8782 48.7783 6.60399C43.4531 2.32976 36.829 0.000125944 30.0005 2.74776e-06Z" fill="#FF8A35"/>
<path d="M47.3634 46.3013C47.5714 46.4802 47.8419 46.5691 48.1154 46.5485C48.3889 46.528 48.6431 46.3996 48.822 46.1917C52.516 41.8978 54.6307 36.47 54.8152 30.8089C54.9998 25.1477 53.243 19.5937 49.8366 15.0684C46.4301 10.5431 41.5787 7.31859 36.0874 5.93001C30.5961 4.54143 24.7951 5.07224 19.647 7.43435C14.4989 9.79646 10.3132 13.8479 7.78462 18.9162C5.25599 23.9846 4.53642 29.7653 5.74531 35.2989C6.9542 40.8325 10.0189 45.7864 14.4308 49.3386C18.8426 52.8907 24.3365 54.8275 30.0006 54.8275C35.6186 54.849 41.0741 52.9441 45.4579 49.4306C45.6587 49.2559 45.7844 49.0104 45.8089 48.7452C45.8333 48.4801 45.7546 48.2158 45.589 48.0072C45.4235 47.7987 45.184 47.662 44.9202 47.6255C44.6565 47.5891 44.3889 47.6558 44.173 47.8117C40.154 51.0336 35.1516 52.7797 30.0006 52.7586C24.8085 52.7584 19.7725 50.9829 15.7284 47.7267C11.6842 44.4705 8.875 39.9294 7.76696 34.8569C6.65891 29.7843 7.31863 24.4854 9.63663 19.8395C11.9546 15.1935 15.7916 11.4798 20.5107 9.31463C25.2298 7.14945 30.5474 6.66299 35.5811 7.93595C40.6147 9.20892 45.0618 12.1648 48.1843 16.313C51.3068 20.4613 52.9171 25.5525 52.7478 30.7419C52.5785 35.9313 50.6399 40.9068 47.2537 44.8427C47.0749 45.0507 46.986 45.3212 47.0065 45.5947C47.0271 45.8683 47.1555 46.1224 47.3634 46.3013Z" fill="#FF8A35"/>
<path d="M36.104 31.3376C35.9156 31.5327 35.8113 31.794 35.8137 32.0653C35.816 32.3365 35.9248 32.596 36.1166 32.7878C36.3084 32.9796 36.5679 33.0884 36.8391 33.0907C37.1104 33.0931 37.3717 32.9888 37.5668 32.8004L44.0933 26.2728C44.5095 25.8566 44.8396 25.3625 45.0649 24.8188C45.2901 24.275 45.406 23.6922 45.406 23.1037C45.406 22.5151 45.2901 21.9323 45.0649 21.3885C44.8396 20.8448 44.5095 20.3507 44.0933 19.9345C43.6772 19.5183 43.1831 19.1882 42.6393 18.963C42.0956 18.7378 41.5128 18.6218 40.9242 18.6218C40.3356 18.6218 39.7528 18.7378 39.2091 18.963C38.6653 19.1882 38.1712 19.5183 37.7551 19.9345L27.1268 30.5576L22.2513 25.6811C21.835 25.2648 21.3409 24.9346 20.797 24.7094C20.2532 24.4841 19.6703 24.3682 19.0816 24.3682C18.493 24.3682 17.9101 24.4841 17.3662 24.7094C16.8224 24.9346 16.3282 25.2648 15.912 25.6811C15.4957 26.0973 15.1655 26.5915 14.9403 27.1353C14.715 27.6792 14.5991 28.2621 14.5991 28.8507C14.5991 29.4394 14.715 30.0223 14.9403 30.5661C15.1655 31.11 15.4957 31.6041 15.912 32.0204L23.9571 40.0655C24.3732 40.4821 24.8673 40.8125 25.4112 41.0379C25.9551 41.2634 26.5381 41.3794 27.1268 41.3794C27.7155 41.3794 28.2985 41.2634 28.8424 41.0379C29.3862 40.8125 29.8804 40.4821 30.2964 40.0655L34.4592 35.9038C34.6357 35.707 34.7301 35.4501 34.7231 35.1858C34.716 34.9216 34.6081 34.67 34.4215 34.4828C34.2348 34.2956 33.9836 34.187 33.7193 34.1793C33.4551 34.1715 33.1979 34.2652 33.0006 34.4411L28.8378 38.6028C28.3782 39.0421 27.7668 39.2873 27.1309 39.2873C26.4951 39.2873 25.8837 39.0421 25.424 38.6028L17.3799 30.5566C17.1554 30.3326 16.9774 30.0666 16.8559 29.7737C16.7344 29.4808 16.6718 29.1668 16.6718 28.8497C16.6718 28.5326 16.7344 28.2186 16.8559 27.9257C16.9774 27.6328 17.1554 27.3668 17.3799 27.1428C17.8396 26.7034 18.4509 26.4583 19.0868 26.4583C19.7227 26.4583 20.334 26.7034 20.7937 27.1428L26.4016 32.7507C26.5956 32.9447 26.8587 33.0536 27.133 33.0536C27.4073 33.0536 27.6704 32.9447 27.8644 32.7507L39.2137 21.3973C39.6731 20.9575 40.2846 20.712 40.9206 20.712C41.5566 20.712 42.1681 20.9575 42.6275 21.3973C42.8519 21.6213 43.03 21.8873 43.1515 22.1802C43.273 22.4731 43.3355 22.7871 43.3355 23.1042C43.3355 23.4213 43.273 23.7353 43.1515 24.0281C43.03 24.321 42.8519 24.5871 42.6275 24.8111L36.104 31.3376Z" fill="#FF8A35"/>
</svg>
