<svg width="92" height="92" viewBox="0 0 92 92" fill="none" xmlns="http://www.w3.org/2000/svg">
<g clip-path="url(#clip0_2011_2983)">
<path d="M28.3823 88.3455H12.5433C10.6598 88.3455 9.12749 86.8131 9.12749 84.9297V36.0676H11.2083V36.4903C11.2083 37.3813 11.9304 38.1034 12.8213 38.1034C13.7122 38.1034 14.4343 37.3813 14.4343 36.4903V32.4188C14.4343 31.5279 13.7122 30.8058 12.8213 30.8058C11.9304 30.8058 11.2083 31.5279 11.2083 32.4188V32.8416H9.12749V16.2058C9.12749 11.0589 13.3278 6.99391 18.3393 6.99391H24.196L26.6151 12.8559C27.0074 13.8067 28.2426 14.0669 28.9751 13.345C32.1768 10.1893 33.7674 6.36377 33.7467 1.86833C33.7421 0.839773 32.6865 0.147616 31.7357 0.539934L23.9137 3.76791H18.3393C11.5608 3.76791 5.90149 9.26681 5.90149 16.2058V84.9297C5.90149 88.5919 8.88088 91.5715 12.5433 91.5715H28.3823C29.2732 91.5715 29.9953 90.8492 29.9953 89.9585C29.9953 89.0678 29.273 88.3455 28.3823 88.3455Z" fill="#FF8A35"/>
<path d="M37.8325 17.1298C37.4194 16.7032 36.7385 16.6923 36.312 17.1056C35.8854 17.5189 35.8747 18.1996 36.2878 18.6261L37.7843 20.1708C38.1988 20.5986 38.8797 20.6069 39.3048 20.1948C39.7313 19.7816 39.7421 19.1009 39.329 18.6743L37.8325 17.1298Z" fill="#FF8A35"/>
<path d="M41.8232 21.2489C41.4101 20.8224 40.7292 20.8114 40.3027 21.2247C39.8761 21.638 39.8654 22.3187 40.2785 22.7453L41.6297 24.14C42.0433 24.5669 42.724 24.5771 43.1502 24.164C43.5767 23.7507 43.5875 23.07 43.1744 22.6435L41.8232 21.2489Z" fill="#FF8A35"/>
<path d="M33.8419 13.0108C33.4288 12.5842 32.7479 12.5735 32.3214 12.9868C31.8948 13.4001 31.8841 14.0808 32.2972 14.5073L33.7937 16.052C34.2082 16.4798 34.8891 16.4881 35.3142 16.076C35.7408 15.6628 35.7515 14.9821 35.3384 14.5555L33.8419 13.0108Z" fill="#FF8A35"/>
<path d="M34.8237 9.90194L36.7733 10.8099C37.3154 11.0622 37.9531 10.8237 38.2022 10.2891C38.4528 9.75067 38.2198 9.11103 37.6814 8.86029L35.7318 7.95235C35.1932 7.70162 34.5538 7.93479 34.3029 8.47317C34.0521 9.01156 34.2853 9.6512 34.8237 9.90194Z" fill="#FF8A35"/>
<path d="M48.5998 15.1321C48.8504 14.5937 48.6174 13.954 48.079 13.7033L46.1294 12.7954C45.5908 12.5446 44.9512 12.7778 44.7005 13.3162C44.4497 13.8546 44.6829 14.4942 45.2213 14.745L47.1709 15.6529C47.7132 15.9052 48.3509 15.6669 48.5998 15.1321Z" fill="#FF8A35"/>
<path d="M42.8801 11.282L40.9305 10.3741C40.3921 10.1234 39.7525 10.3565 39.5016 10.8949C39.251 11.4333 39.484 12.073 40.0224 12.3237L41.972 13.2316C42.5141 13.484 43.1518 13.2454 43.4009 12.7108C43.6516 12.1724 43.4185 11.5326 42.8801 11.282Z" fill="#FF8A35"/>
<path d="M43.3455 5.6533L45.4778 5.93342C46.0722 6.01103 46.6074 5.59129 46.6841 5.00738C46.7615 4.41845 46.3468 3.87846 45.7581 3.80103L43.6258 3.52091C43.0364 3.44402 42.4969 3.85803 42.4195 4.44695C42.3421 5.0357 42.7568 5.57587 43.3455 5.6533Z" fill="#FF8A35"/>
<path d="M49.0317 6.40047L51.1641 6.68059C51.745 6.75784 52.292 6.35029 52.3703 5.75455C52.4477 5.16581 52.033 4.62563 51.4441 4.54838L49.3117 4.26826C48.7247 4.19119 48.1829 4.60538 48.1055 5.1943C48.0283 5.78287 48.4428 6.32304 49.0317 6.40047Z" fill="#FF8A35"/>
<path d="M37.6592 4.90592L39.7914 5.18605C40.385 5.26347 40.9208 4.84481 40.9977 4.26C41.0751 3.67126 40.6604 3.13108 40.0717 3.05384L37.9395 2.77371C37.3498 2.69683 36.8105 3.11101 36.7331 3.69976C36.6559 4.2885 37.0704 4.8285 37.6592 4.90592Z" fill="#FF8A35"/>
<path d="M54.5432 59.0268C54.4894 58.8878 54.4433 58.7471 54.403 58.6055C54.3971 58.6055 54.3914 58.6064 54.3855 58.6064C53.9914 58.6064 53.6101 58.5345 53.2549 58.4033C53.0022 60.4493 54.0994 62.5034 56.084 63.3742C58.4848 64.4277 61.2766 63.3543 62.3619 60.9789C62.2483 60.9709 62.1349 60.9594 62.0218 60.944C59.5082 63.0489 55.6965 62.0148 54.5432 59.0268Z" fill="#FF8A35"/>
<path d="M63.9956 37.4412C62.6908 37.8613 61.6286 38.8204 61.0778 40.0754L59.3132 44.097L66.4987 37.3242C65.6774 37.1425 64.8133 37.178 63.9956 37.4412Z" fill="#FF8A35"/>
<path d="M54.8407 50.3928C54.6824 49.6358 53.9397 49.1461 53.1782 49.3055C52.4189 49.4643 51.9321 50.2086 52.0909 50.9679C52.2294 51.6303 52.8135 52.0854 53.4644 52.0854C54.3571 52.0854 55.0231 51.2649 54.8407 50.3928Z" fill="#FF8A35"/>
<path d="M53.4438 55.5079C53.5528 56.0288 54.0634 56.3621 54.5835 56.2533C55.7137 56.0169 55.5354 54.3477 54.3873 54.3477C53.775 54.3477 53.3189 54.9102 53.4438 55.5079Z" fill="#FF8A35"/>
<path d="M51.3231 54.1027C50.3508 52.4931 47.8707 53.1995 47.879 55.0679C47.8861 56.6974 49.8943 57.5623 51.0655 56.3554C51.6441 55.7593 51.7677 54.8419 51.3227 54.104C51.3229 54.1038 51.3229 54.1033 51.3231 54.1027Z" fill="#FF8A35"/>
<path d="M65.6528 55.4487C63.1369 57.4422 59.4835 57.2348 57.2161 54.9045C57.2002 55.246 57.0672 55.7646 56.8819 56.0819C55.908 57.7475 57.1946 59.8358 59.1091 59.7161C59.1947 59.698 60.0093 59.703 60.704 58.9894C61.8383 57.9933 62.2209 59.0894 63.8187 58.4528C64.9802 57.99 65.7813 56.7803 65.6528 55.4487Z" fill="#FF8A35"/>
<path d="M63.8134 23.4809C68.3816 23.4809 72.0847 19.7778 72.0847 15.2097C72.0847 10.6415 68.3816 6.93835 63.8134 6.93835C59.2453 6.93835 55.5422 10.6415 55.5422 15.2097C55.5422 19.7778 59.2453 23.4809 63.8134 23.4809Z" fill="#FF8A35"/>
<path d="M69.5679 51.7928L67.5775 53.6689C67.7644 54.1075 67.897 54.576 67.9596 55.0687C68.2435 57.3021 67.0282 59.474 65.0564 60.4507C65.0582 64.8173 65.0657 83.4331 65.0671 86.7844C65.0682 89.4287 67.212 91.5714 69.8561 91.5714H69.8581C72.5031 91.5704 74.6464 89.4254 74.6451 86.7805L74.6317 53.4714L69.5679 51.7928Z" fill="#FF8A35"/>
<path d="M74.0076 17.3749C73.0174 22.0422 68.8944 25.5632 63.9516 25.6281L58.1568 37.004L51.7375 47.3708C52.7976 46.8165 54.0164 46.8059 55.0678 47.3091C55.8555 45.5141 58.3065 39.9284 59.1465 38.0141C60.5837 34.7392 64.4036 33.2491 67.6786 34.6863C67.8594 34.7657 68.0352 34.8571 68.2082 34.9536L72.01 26.2036L69.2208 38.0977L59.0694 47.6656C57.5072 49.1381 57.4342 51.5985 58.9069 53.1608C59.6718 53.9723 60.7029 54.3818 61.7365 54.3818C62.6928 54.3818 63.6513 54.0309 64.402 53.3233L75.4047 42.953C75.9599 42.4296 76.349 41.7545 76.523 41.0116L79.5793 27.9788L78.8884 41.5663C78.8567 42.1918 78.6737 42.7737 78.3774 43.2793L81.6698 46.0259L77.9753 43.8396C77.7527 44.0969 77.6564 44.1609 77.0709 44.7208L70.8182 50.6142C74.2973 52.7349 71.2668 50.9992 78.8683 55.4978C82.0667 57.3906 86.0998 55.0639 86.0962 51.3764H86.0983V31.9308C86.0985 24.6811 80.8874 18.652 74.0076 17.3749Z" fill="#FF8A35"/>
</g>
<defs>
<clipPath id="clip0_2011_2983">
<rect width="91.1429" height="91.1429" fill="white" transform="translate(0.428574 0.428589)"/>
</clipPath>
</defs>
</svg>
