<svg width="80" height="80" viewBox="0 0 80 80" fill="none" xmlns="http://www.w3.org/2000/svg">
<rect x="0.5" y="0.5" width="79" height="79" rx="9.5" fill="url(#paint0_linear_2002_3105)"/>
<rect x="0.5" y="0.5" width="79" height="79" rx="9.5" stroke="url(#paint1_linear_2002_3105)"/>
<path d="M40.0004 15C33.9107 14.9974 28.0299 17.2201 23.4642 21.25C23.3793 21.3249 23.31 21.4158 23.2602 21.5174C23.2104 21.6191 23.1812 21.7296 23.1741 21.8426C23.167 21.9556 23.1822 22.0689 23.2189 22.176C23.2556 22.2831 23.3131 22.3819 23.388 22.4668C23.4628 22.5517 23.5537 22.621 23.6554 22.6708C23.7571 22.7206 23.8676 22.7499 23.9806 22.757C24.0935 22.7641 24.2068 22.7488 24.3139 22.7121C24.421 22.6754 24.5199 22.618 24.6048 22.5431C29.1198 18.5632 35.0016 16.4881 41.0145 16.7538C47.0274 17.0196 52.7033 19.6054 56.8496 23.9681C60.9959 28.3308 63.29 34.1308 63.2498 40.1494C63.2097 46.168 60.8384 51.9368 56.6341 56.2437C52.4299 60.5507 46.72 63.0605 40.7041 63.246C34.6882 63.4314 28.8346 61.278 24.3731 57.2381C19.9116 53.1983 17.1895 47.5865 16.7788 41.5818C16.368 35.5771 18.3005 29.6468 22.1703 25.0371C22.2463 24.9508 22.3042 24.8503 22.3408 24.7413C22.3773 24.6324 22.3917 24.5172 22.3831 24.4026C22.3745 24.288 22.3431 24.1763 22.2907 24.074C22.2383 23.9717 22.166 23.8809 22.078 23.807C21.99 23.7331 21.8881 23.6775 21.7783 23.6436C21.6685 23.6096 21.553 23.5979 21.4386 23.6092C21.3243 23.6206 21.2133 23.6546 21.1123 23.7094C21.0113 23.7643 20.9223 23.8387 20.8505 23.9284C17.1923 28.2872 15.1306 33.7634 15.006 39.4524C14.8814 45.1414 16.7013 50.7027 20.165 55.2175C23.6287 59.7322 28.529 62.9302 34.0562 64.2831C39.5834 65.636 45.4068 65.0628 50.5641 62.6583C55.7215 60.2537 59.9042 56.1617 62.4213 51.0583C64.9383 45.9549 65.639 40.1455 64.4076 34.5899C63.1762 29.0344 60.0863 24.0652 55.6486 20.5033C51.2109 16.9415 45.6908 15.0001 40.0004 15Z" fill="white"/>
<path d="M54.4695 53.5847C54.6428 53.7337 54.8682 53.8078 55.0962 53.7907C55.3241 53.7735 55.5359 53.6666 55.685 53.4933C58.7633 49.9151 60.5256 45.3919 60.6794 40.6743C60.8331 35.9567 59.3692 31.3283 56.5305 27.5572C53.6917 23.7861 49.6489 21.0991 45.0728 19.9419C40.4967 18.7848 35.6626 19.2271 31.3725 21.1955C27.0824 23.164 23.5944 26.5401 21.4872 30.7638C19.38 34.9874 18.7804 39.8046 19.7878 44.416C20.7952 49.0273 23.3491 53.1556 27.0256 56.1157C30.7022 59.0758 35.2804 60.6898 40.0005 60.6899C44.6822 60.7077 49.2285 59.1204 52.8816 56.1924C53.0489 56.0468 53.1537 55.8422 53.1741 55.6213C53.1944 55.4003 53.1288 55.1801 52.9909 55.0063C52.853 54.8325 52.6533 54.7185 52.4335 54.6882C52.2138 54.6578 51.9907 54.7134 51.8109 54.8433C48.4617 57.5282 44.293 58.9833 40.0005 58.9657C35.6738 58.9656 31.4771 57.486 28.107 54.7725C24.7368 52.059 22.3958 48.2747 21.4725 44.0476C20.5491 39.8205 21.0989 35.4048 23.0305 31.5331C24.9622 27.6615 28.1596 24.5667 32.0922 22.7624C36.0248 20.9581 40.4562 20.5527 44.6509 21.6135C48.8456 22.6743 52.5515 25.1376 55.1536 28.5944C57.7557 32.0513 59.0976 36.294 58.9565 40.6185C58.8154 44.943 57.2 49.0892 54.3781 52.3692C54.2291 52.5425 54.155 52.7679 54.1721 52.9958C54.1893 53.2238 54.2962 53.4356 54.4695 53.5847Z" fill="white"/>
<path d="M45.0867 41.1146C44.9297 41.2772 44.8428 41.4949 44.8447 41.7209C44.8467 41.947 44.9374 42.1632 45.0972 42.323C45.257 42.4829 45.4732 42.5735 45.6993 42.5755C45.9253 42.5775 46.1431 42.4906 46.3057 42.3335L51.7444 36.8939C52.0913 36.5471 52.3664 36.1353 52.5541 35.6822C52.7418 35.2291 52.8384 34.7434 52.8384 34.2529C52.8384 33.7625 52.7418 33.2768 52.5541 32.8237C52.3664 32.3705 52.0913 31.9588 51.7444 31.612C51.3976 31.2652 50.9859 30.9901 50.5328 30.8024C50.0796 30.6147 49.594 30.5181 49.1035 30.5181C48.613 30.5181 48.1274 30.6147 47.6742 30.8024C47.2211 30.9901 46.8094 31.2652 46.4626 31.612L37.6057 40.4646L33.5427 36.4008C33.1959 36.0539 32.7841 35.7787 32.3309 35.591C31.8776 35.4033 31.3919 35.3067 30.9014 35.3067C30.4108 35.3067 29.9251 35.4033 29.4718 35.591C29.0186 35.7787 28.6068 36.0539 28.26 36.4008C27.9131 36.7476 27.6379 37.1594 27.4502 37.6126C27.2625 38.0659 27.1659 38.5516 27.1659 39.0422C27.1659 39.5327 27.2625 40.0184 27.4502 40.4717C27.6379 40.9249 27.9131 41.3367 28.26 41.6835L34.9643 48.3878C35.311 48.7349 35.7228 49.0103 36.176 49.1981C36.6292 49.386 37.115 49.4827 37.6057 49.4827C38.0963 49.4827 38.5821 49.386 39.0353 49.1981C39.4885 49.0103 39.9003 48.7349 40.247 48.3878L43.716 44.9197C43.8631 44.7557 43.9417 44.5416 43.9359 44.3214C43.93 44.1012 43.8401 43.8916 43.6846 43.7356C43.529 43.5796 43.3196 43.4891 43.0994 43.4826C42.8792 43.4761 42.6649 43.5542 42.5005 43.7008L39.0315 47.1689C38.6485 47.535 38.139 47.7393 37.6091 47.7393C37.0792 47.7393 36.5697 47.535 36.1867 47.1689L29.4832 40.4637C29.2962 40.277 29.1478 40.0553 29.0466 39.8113C28.9453 39.5672 28.8932 39.3055 28.8932 39.0413C28.8932 38.777 28.9453 38.5154 29.0466 38.2713C29.1478 38.0272 29.2962 37.8055 29.4832 37.6189C29.8663 37.2528 30.3758 37.0484 30.9057 37.0484C31.4355 37.0484 31.945 37.2528 32.3281 37.6189L37.0013 42.2922C37.163 42.4538 37.3822 42.5446 37.6108 42.5446C37.8394 42.5446 38.0587 42.4538 38.2203 42.2922L47.6781 32.8309C48.0609 32.4644 48.5705 32.2598 49.1005 32.2598C49.6305 32.2598 50.14 32.4644 50.5229 32.8309C50.7099 33.0176 50.8583 33.2393 50.9596 33.4834C51.0608 33.7275 51.113 33.9891 51.113 34.2534C51.113 34.5176 51.0608 34.7793 50.9596 35.0233C50.8583 35.2674 50.7099 35.4891 50.5229 35.6758L45.0867 41.1146Z" fill="white"/>
<defs>
<linearGradient id="paint0_linear_2002_3105" x1="12" y1="5.6" x2="67.6" y2="80" gradientUnits="userSpaceOnUse">
<stop stop-color="#FFB987"/>
<stop offset="0.515" stop-color="#FF8A35"/>
<stop offset="1" stop-color="#FF8A35"/>
</linearGradient>
<linearGradient id="paint1_linear_2002_3105" x1="12" y1="5.6" x2="67.6" y2="80" gradientUnits="userSpaceOnUse">
<stop stop-color="#FFC79F"/>
<stop offset="0.515" stop-color="#FF914F"/>
<stop offset="1" stop-color="#FB8129"/>
</linearGradient>
</defs>
</svg>
