<svg width="60" height="60" viewBox="0 0 60 60" fill="none" xmlns="http://www.w3.org/2000/svg">
<g clip-path="url(#clip0_2005_3194)">
<path d="M16.5891 11.0459H26.2848C27.0625 11.0459 27.6952 11.6786 27.6952 12.4563C27.6952 13.234 27.0625 13.8667 26.2848 13.8667H23.6285C21.9161 13.8667 20.523 15.2598 20.523 16.9721V18.3446C20.523 18.8127 20.9025 19.1921 21.3706 19.1921C21.8386 19.1921 22.2181 18.8127 22.2181 18.3446V16.9721C22.2181 16.1944 22.8508 15.5617 23.6285 15.5617H26.2848C27.9971 15.5617 29.3902 14.1686 29.3902 12.4563C29.3902 10.744 27.9971 9.3509 26.2848 9.3509H16.5891C16.1775 9.3509 15.8428 9.01607 15.8428 8.60463C15.8428 8.19319 16.1775 7.85836 16.5891 7.85836H23.0529C23.521 7.85836 23.9005 7.4789 23.9005 7.01085C23.9005 6.54279 23.521 6.16333 23.0529 6.16333H16.5891C15.2429 6.16333 14.1478 7.25843 14.1478 8.60463C14.1478 9.95083 15.243 11.0459 16.5891 11.0459Z" fill="#FF8A35"/>
<path d="M28.6651 17.4051C28.4673 17.8406 28.5427 18.3547 28.8575 18.715L32.9405 23.3883C33.4576 23.98 34.2048 24.3194 34.9905 24.3194H43.1726C43.8998 24.3194 44.5834 24.0362 45.0974 23.522L52.1902 16.4292C52.5212 16.0982 52.5212 15.5616 52.1902 15.2307C51.8592 14.8997 51.3226 14.8997 50.9917 15.2307L43.8989 22.3235C43.705 22.5174 43.447 22.6243 43.1728 22.6243H34.9906C34.6941 22.6243 34.4123 22.4963 34.2171 22.273L30.8187 18.3834H44.0482C44.7198 18.3834 45.3767 18.1102 45.8507 17.634L53.3623 10.084C53.7195 9.72501 54.2147 9.51912 54.7211 9.51912H56.7034L53.7885 12.434C53.4575 12.765 53.4575 13.3016 53.7885 13.6325C54.1195 13.9635 54.6562 13.9635 54.987 13.6325L58.2821 10.3375C58.7047 9.91485 58.83 9.28509 58.6013 8.73285C58.3726 8.18072 57.8386 7.82397 57.241 7.82397H54.7208C53.7666 7.82397 52.8333 8.21191 52.1603 8.88834L44.6488 16.4382C44.4908 16.597 44.2718 16.6881 44.0478 16.6881H43.3077C43.372 16.4171 43.3398 16.1252 43.203 15.8642L42.0708 13.7027C41.8964 13.3697 41.5704 13.137 41.1988 13.0803C40.8272 13.0239 40.4466 13.1483 40.1807 13.4142L39.5039 14.0913V14.062C39.5039 13.4078 38.9717 12.8755 38.3174 12.8755H34.3623C33.708 12.8755 33.1758 13.4078 33.1758 14.062V14.4189C32.2026 14.6708 31.4807 15.5538 31.4807 16.6046C31.4807 16.6327 31.482 16.6604 31.4831 16.6883H29.778C29.2997 16.6883 28.8628 16.9697 28.6651 17.4051ZM40.8903 15.102L41.5282 16.3198L41.1597 16.6883H39.304L40.8903 15.102ZM34.8708 14.5705H37.8089V15.7863L36.962 16.6332C36.9444 16.6508 36.9289 16.6698 36.9125 16.6882H35.9986C35.9996 16.6604 36.001 16.6326 36.001 16.6045C36.001 15.7702 35.5453 15.0418 34.8709 14.6502V14.5705H34.8708ZM33.1758 16.6046C33.1758 16.293 33.4292 16.0396 33.7408 16.0396C34.0523 16.0396 34.3058 16.293 34.3058 16.6046C34.3058 16.6333 34.3015 16.6607 34.2973 16.6883H33.1843C33.1801 16.6609 33.1758 16.6333 33.1758 16.6046Z" fill="#FF8A35"/>
<path d="M57.3018 49.4059H50.6127V46.6833C53.7873 44.4324 55.9187 41.1861 56.633 37.4942C56.7219 37.0346 56.4215 36.5901 55.962 36.5011C55.5022 36.4121 55.0579 36.7127 54.9689 37.1721C54.3287 40.481 52.392 43.3903 49.5045 45.391H32.935C29.366 42.9154 27.2432 38.9759 27.2432 34.803V30.1954H55.1961V33.3782C55.1961 33.8463 55.5755 34.2257 56.0436 34.2257C56.5117 34.2257 56.8911 33.8463 56.8911 33.3782V29.8994C56.8911 29.1281 56.2635 28.5005 55.4921 28.5005H53.3085C53.3329 28.405 53.3468 28.3063 53.3468 28.2052C53.3468 27.8882 53.2233 27.5902 52.9992 27.3663L51.481 25.8481C51.2569 25.624 50.9589 25.5005 50.642 25.5005C50.325 25.5005 50.027 25.624 49.803 25.8481L48.7187 26.9324C48.1003 26.1024 47.1138 25.5624 46.0017 25.5624C44.2857 25.5624 42.8644 26.8442 42.6427 28.5005H40.4644V27.0879C40.4644 26.4336 39.9322 25.9014 39.2779 25.9014H35.3228C34.6685 25.9014 34.1363 26.4336 34.1363 27.0879V28.5005H28.1628C27.1449 26.2925 25.0159 24.6987 22.4964 24.4401V22.0965C22.4964 21.3488 21.8881 20.7405 21.1404 20.7405H12.5976C11.8499 20.7405 11.2416 21.3488 11.2416 22.0965V24.4387C7.94148 24.7774 5.31034 27.4074 4.96986 30.7069H4.02415C3.28319 30.7069 2.68033 31.3098 2.68033 32.0508V36.4639C2.68033 40.684 4.7842 44.664 8.33066 47.1995V49.4059H2.26968C1.49075 49.4059 0.857147 50.0395 0.857147 50.8184V52.8524C0.857147 53.6314 1.49075 54.265 2.26968 54.265H57.3018C58.0807 54.265 58.7143 53.6314 58.7143 52.8524V50.8184C58.7143 50.0396 58.0807 49.4059 57.3018 49.4059ZM50.642 27.4063L51.441 28.2053L51.1457 28.5006H49.5477L50.642 27.4063ZM46.0015 27.2574C46.6479 27.2574 47.2104 27.6213 47.4963 28.1548L47.1507 28.5005H44.3697C44.5681 27.7849 45.2236 27.2574 46.0015 27.2574ZM35.8313 27.5964H38.7694V28.5005H35.8313V27.5964ZM33.5216 47.0863H48.9178V49.406H33.5216V47.0863ZM31.8265 46.6815V49.4059H25.4073V47.1995C26.7393 46.2472 27.8662 45.0902 28.7558 43.7941C29.6246 44.8756 30.6552 45.8492 31.8265 46.6815ZM12.9366 22.4356H20.8012V24.4017H12.9366V22.4356ZM4.37536 36.4641V32.4021H12.3834C12.8514 32.4021 13.2309 32.0226 13.2309 31.5546C13.2309 31.0865 12.8514 30.707 12.3834 30.707H6.67823C7.03408 28.107 9.26847 26.0968 11.9647 26.0968H21.7732C23.6961 26.0968 25.3835 27.1197 26.3229 28.6494C25.8643 28.8792 25.548 29.3526 25.548 29.8995V30.707H16.3385C15.8704 30.707 15.4909 31.0865 15.4909 31.5546C15.4909 32.0226 15.8704 32.4021 16.3385 32.4021H25.5481V34.8034C25.5481 37.4745 26.3129 40.0581 27.7026 42.3047C26.8538 43.6967 25.7026 44.9297 24.2984 45.9082H9.43955C6.26374 43.6951 4.37536 40.183 4.37536 36.4641ZM23.7122 47.6031V49.406H10.0257V47.6031H23.7122ZM57.0193 52.5699H2.55218V51.1009H57.0193V52.5699Z" fill="#FF8A35"/>
</g>
<defs>
<clipPath id="clip0_2005_3194">
<rect width="57.8571" height="57.8571" fill="white" transform="translate(0.857147 1.28564)"/>
</clipPath>
</defs>
</svg>
