<svg width="80" height="80" viewBox="0 0 80 80" fill="none" xmlns="http://www.w3.org/2000/svg">
<rect x="0.5" y="0.5" width="79" height="79" rx="9.5" fill="url(#paint0_linear_2002_3114)"/>
<rect x="0.5" y="0.5" width="79" height="79" rx="9.5" stroke="url(#paint1_linear_2002_3114)"/>
<path d="M33.3482 55.0669H34.8214V56.5401H33.3482V55.0669Z" fill="white"/>
<path d="M33.3482 52.1206H34.8214V53.5938H33.3482V52.1206Z" fill="white"/>
<path d="M56.1499 44.7499L54.8241 44.7594L54.3814 43.4424L53.9674 43.3569C53.4783 43.256 52.9951 43.256 52.5059 43.3569L52.089 43.4431L51.6552 44.758L50.2453 44.7521L50.0354 45.1381C49.7974 45.5741 49.6155 46.1634 49.5588 46.6754L49.5131 47.0923L50.6674 47.9615L50.2247 49.3743L50.5016 49.6859C50.8375 50.0637 51.2338 50.3628 51.6787 50.5757L52.0824 50.7687L53.2367 49.8973L54.3917 50.7679L54.7953 50.575C55.2402 50.3628 55.6365 50.0637 55.9724 49.6851L56.2494 49.3735L55.8067 47.9607L56.9609 47.0915L56.9153 46.6746C56.8681 46.2422 56.681 45.7251 56.3606 45.1373L56.1499 44.7499ZM54.0904 47.409L54.5824 48.9809C54.5648 48.9957 54.5456 49.0104 54.5265 49.0244L53.2367 48.0528L51.9469 49.0244C51.9277 49.0104 51.9086 48.9957 51.8909 48.9809L52.3829 47.409L51.099 46.4426C51.1182 46.3704 51.1403 46.2989 51.1639 46.229L52.7196 46.2356L53.2072 44.7543C53.2278 44.7543 53.2484 44.7535 53.2691 44.7543L53.7685 46.2408L55.2594 46.2297C55.2947 46.31 55.3264 46.3866 55.3522 46.4595L54.0904 47.409Z" fill="white"/>
<path d="M53.2366 40.335C49.5808 40.335 46.6071 43.3094 46.6071 46.9644C46.6071 50.6195 49.5808 53.5939 53.2366 53.5939C56.8924 53.5939 59.8661 50.6195 59.8661 46.9644C59.8661 43.3094 56.8924 40.335 53.2366 40.335ZM53.2366 52.1207C50.394 52.1207 48.0804 49.8077 48.0804 46.9644C48.0804 44.1211 50.394 41.8082 53.2366 41.8082C56.0792 41.8082 58.3929 44.1211 58.3929 46.9644C58.3929 49.8077 56.0792 52.1207 53.2366 52.1207Z" fill="white"/>
<path d="M53.2366 37.3884C49.2891 37.3884 45.8934 39.7897 44.4297 43.2083C44.0769 42.9748 43.7108 42.7649 43.3263 42.5903C43.3742 42.5358 43.4139 42.4842 43.467 42.4253C43.8603 41.9988 44.3973 41.414 44.3973 40.3282C44.3973 39.2424 43.8589 38.659 43.4648 38.2333C43.1274 37.8687 42.9241 37.6484 42.9241 37.1387C42.9241 36.629 43.1274 36.4087 43.4648 36.0441C43.8589 35.6183 44.3973 35.0349 44.3973 33.9492C44.3973 32.8634 43.8589 32.28 43.4648 31.8543C43.1274 31.4889 42.9241 31.2679 42.9241 30.7589V27.1915C42.9241 21.8475 38.5767 17.5 33.2326 17.5C30.2721 17.5 27.5143 18.8259 25.6647 21.1374L25.5549 21.2744C23.6257 21.8718 22.2991 23.6536 22.2991 25.6933V30.7589C22.2991 31.2679 22.0958 31.4889 21.7584 31.8543C21.3644 32.28 20.8259 32.8634 20.8259 33.9492C20.8259 35.0349 21.3644 35.6183 21.7584 36.0441C22.0958 36.4087 22.2991 36.6297 22.2991 37.1387C22.2991 37.6477 22.0958 37.8687 21.7584 38.2333C21.3644 38.6598 20.8259 39.2432 20.8259 40.3282C20.8259 41.4132 21.3629 41.9988 21.7555 42.4253C21.8093 42.4842 21.849 42.5358 21.8969 42.5903C19.0271 43.8941 17.1429 46.7735 17.1429 49.966V59.4866H46.6071V62.64L53.2366 60.9827L59.8661 62.64V53.8582C61.6781 52.1146 62.8125 49.6713 62.8125 46.9643C62.8125 41.6843 58.5166 37.3884 53.2366 37.3884ZM22.8398 39.2336C23.2339 38.8078 23.7723 38.2244 23.7723 37.1387C23.7723 36.0529 23.2339 35.4695 22.8398 35.0438C22.5024 34.6792 22.2991 34.4582 22.2991 33.9492C22.2991 33.4402 22.5024 33.2192 22.8398 32.8538C23.2339 32.4281 23.7723 31.8447 23.7723 30.7589V25.6933C23.7723 24.2436 24.7542 22.9862 26.1604 22.6342L26.402 22.5737L26.8152 22.0574C28.3835 20.0973 30.7229 18.9732 33.2326 18.9732C37.7642 18.9732 41.4509 22.6599 41.4509 27.1915V30.7589C41.4509 31.8447 41.9894 32.4281 42.3834 32.8538C42.7208 33.2192 42.9241 33.4402 42.9241 33.9492C42.9241 34.4582 42.7208 34.6792 42.3834 35.0438C41.9894 35.4703 41.4509 36.0537 41.4509 37.1387C41.4509 38.2237 41.9894 38.8078 42.3834 39.2336C42.7208 39.5982 42.9241 39.8192 42.9241 40.3282C42.9241 40.8394 42.7208 41.0619 42.3834 41.4287C42.2243 41.6025 42.0453 41.8036 41.8862 42.0467L36.5414 40.1602C35.9971 39.968 35.6324 39.4723 35.5794 38.9051C38.2886 36.9862 39.9777 33.8483 39.9777 30.4002V27.0759H37.9461C36.1274 27.0759 34.4185 26.368 33.1324 25.0819L32.6116 24.5611L32.0908 25.0819C30.8047 26.368 29.0958 27.0759 27.2771 27.0759H25.2455V30.4002C25.2455 33.8483 26.9346 36.9862 29.6438 38.9058C29.59 39.4723 29.2262 39.9687 28.6818 40.161L23.337 42.0474C23.1779 41.8044 22.9996 41.6033 22.8398 41.4294C22.5024 41.0619 22.2991 40.8401 22.2991 40.3282C22.2991 39.8192 22.5024 39.5982 22.8398 39.2336ZM32.6116 49.0666C32.1719 48.6526 31.7571 48.215 31.3763 47.7502L32.6116 46.0214L33.8469 47.7502C33.4661 48.215 33.0514 48.6526 32.6116 49.0666ZM32.6116 38.8181C29.0766 37.532 26.7187 34.1805 26.7187 30.4002V28.5491H27.2771C29.2519 28.5491 31.1207 27.8626 32.6116 26.6023C34.1025 27.8626 35.972 28.5491 37.9461 28.5491H38.5045V30.4002C38.5045 34.1805 36.1466 37.532 32.6116 38.8181ZM32.3788 40.2973L32.6116 40.3746L32.8444 40.2973C33.3298 40.1352 33.7946 39.9363 34.2417 39.7117C34.3294 39.9702 34.4517 40.214 34.6049 40.4372L32.6116 43.4264L30.6183 40.4357C30.7716 40.2125 30.8938 39.9695 30.9808 39.7109C31.4279 39.9363 31.8927 40.1352 32.3788 40.2973ZM29.1724 41.5495C29.2844 41.5097 29.3897 41.4581 29.495 41.4066L31.7174 44.7397L30.4614 46.498C29.5304 45.0646 28.8696 43.4647 28.5109 41.783L29.1724 41.5495ZM34.7625 46.4987L33.5066 44.7405L35.7289 41.4073C35.8335 41.4589 35.9389 41.5104 36.0508 41.5502L36.713 41.7837C36.3543 43.4654 35.6936 45.0653 34.7625 46.4987ZM18.6161 49.966C18.6161 47.1602 20.3935 44.6477 23.0394 43.7144L27.1106 42.2773C27.7809 45.2406 29.3197 47.958 31.5207 50.0588L30.4018 51.0532V58.0134H24.5089V47.7009H23.0357V58.0134H18.6161V49.966ZM42.1875 58.0134V48.4375H40.7143V58.0134H31.875V51.7147L33.3121 50.4367C35.7267 48.2909 37.4025 45.4174 38.1126 42.2773L42.1838 43.7144C42.8195 43.939 43.4103 44.2624 43.9502 44.6698C43.7683 45.4064 43.6607 46.1717 43.6607 46.9643C43.6607 49.6713 44.7951 52.1146 46.6071 53.8582V58.0134H42.1875ZM58.3929 60.7528L53.2366 59.4638L48.0804 60.7528V55.0206C49.5705 55.9774 51.3376 56.5402 53.2366 56.5402C55.1356 56.5402 56.9027 55.9774 58.3929 55.0206V60.7528ZM53.2366 55.067C48.7691 55.067 45.1339 51.4318 45.1339 46.9643C45.1339 42.4968 48.7691 38.8616 53.2366 38.8616C57.7041 38.8616 61.3393 42.4968 61.3393 46.9643C61.3393 51.4318 57.7041 55.067 53.2366 55.067Z" fill="white"/>
<path d="M60.6027 17.5H46.6071C45.3888 17.5 44.3973 18.4915 44.3973 19.7098V29.2857C44.3973 30.5041 45.3888 31.4955 46.6071 31.4955H51.0268V33.7392C51.0268 34.9392 52.0028 35.9152 53.2027 35.9152C53.932 35.9152 54.6089 35.5528 55.0133 34.9465L57.3137 31.4955H60.6027C61.821 31.4955 62.8125 30.5041 62.8125 29.2857V19.7098C62.8125 18.4915 61.821 17.5 60.6027 17.5ZM61.3393 29.2857C61.3393 29.6916 61.0093 30.0223 60.6027 30.0223H56.5256L53.7876 34.1289C53.6565 34.3248 53.4377 34.442 53.2027 34.442C52.8153 34.442 52.5 34.1267 52.5 33.7392V30.0223H46.6071C46.2005 30.0223 45.8705 29.6916 45.8705 29.2857V19.7098C45.8705 19.304 46.2005 18.9732 46.6071 18.9732H60.6027C61.0093 18.9732 61.3393 19.304 61.3393 19.7098V29.2857Z" fill="white"/>
<path d="M52.5001 26.0342L50.811 24.3451L49.7695 25.3867L52.5001 28.1173L58.9137 21.7037L57.8721 20.6621L52.5001 26.0342Z" fill="white"/>
<defs>
<linearGradient id="paint0_linear_2002_3114" x1="12" y1="5.6" x2="67.6" y2="80" gradientUnits="userSpaceOnUse">
<stop stop-color="#FFB987"/>
<stop offset="0.515" stop-color="#FF8A35"/>
<stop offset="1" stop-color="#FF8A35"/>
</linearGradient>
<linearGradient id="paint1_linear_2002_3114" x1="12" y1="5.6" x2="67.6" y2="80" gradientUnits="userSpaceOnUse">
<stop stop-color="#FFC79F"/>
<stop offset="0.515" stop-color="#FF914F"/>
<stop offset="1" stop-color="#FB8129"/>
</linearGradient>
</defs>
</svg>
