<svg width="209" height="116" viewBox="0 0 209 116" fill="none" xmlns="http://www.w3.org/2000/svg">
<path d="M51.0179 13.1199V2.13795C51.0179 1.06205 51.8888 0.19043 52.9659 0.19043C54.041 0.19043 54.9132 1.06205 54.9132 2.13795V12.7373L51.0179 13.1199Z" fill="white"/>
<path d="M191.27 103.094H28.1003C26.1468 103.094 24.5622 101.51 24.5622 99.5571V54.3994H191.27C192.961 54.3994 194.527 55.297 195.38 56.758L208.243 78.7459L195.38 100.736C194.527 102.197 192.961 103.094 191.27 103.094ZM28.2389 99.4184H191.893L203.986 78.7459L191.893 58.0753H28.2389V99.4184Z" fill="white"/>
<path d="M98.0788 58.114H17.6519C16.0271 58.114 14.5137 57.2851 13.6385 55.9152L0.0636597 34.6515L13.6385 13.3872C14.5137 12.0173 16.0271 11.1865 17.6519 11.1865H98.0788V58.114ZM17.0558 54.44H94.404V14.8624H17.0558L4.42374 34.6515L17.0558 54.44Z" fill="white"/>
<path d="M137.789 58.1156H94.404V11.1875H137.789C139.744 11.1875 141.327 12.7704 141.327 14.7254V54.5784C141.327 56.5315 139.744 58.1156 137.789 58.1156ZM98.0789 54.4404H137.652V14.8628H98.0789V54.4404Z" fill="white"/>
<path d="M125.544 29.803L121.691 36.9251L115.708 25.8646V23.7208H120.585L118.761 21.5053L120.585 19.2891H113.005H112.951V25.8646L100.809 48.31H117.845H127.85H135.557L125.544 29.803ZM116.697 33.4894L114.33 36.2442L111.96 33.4894L114.33 29.1109L116.697 33.4894ZM117.845 45.5534H105.434L110.556 36.0851L114.33 40.4716L118.102 36.0851L123.224 45.5534H117.845ZM126.358 45.5534L123.258 39.8216L125.544 35.5954L130.932 45.5534H126.359H126.358Z" fill="white"/>
<path d="M54.9131 102.023V113.225C54.9131 114.301 54.041 115.173 52.9646 115.173C51.89 115.173 51.0185 114.301 51.0185 113.225V102.023H54.9131Z" fill="white"/>
<path d="M39.2684 36.5072V48.8132H35.4035V22.0654H39.2684V32.541V36.5072Z" fill="white"/>
<path d="M61.2248 48.8132H57.1569L55.8007 25.9976C55.8007 25.8404 55.7104 25.7605 55.5296 25.7605H55.326C55.1446 25.7605 55.0567 25.8404 55.0567 25.9976L53.6999 48.8132H49.5639L51.8015 23.4558C51.869 22.5291 52.3208 22.0654 53.1571 22.0654H57.5302C58.4339 22.0654 58.9198 22.5291 58.9885 23.4558L61.2248 48.8132Z" fill="white"/>
<path d="M73.9584 44.3381C73.9584 47.3232 72.8492 48.8132 70.6357 48.8132H64.3643V45.1528H69.2121C69.7995 45.1528 70.0941 44.7343 70.0941 43.898V41.5246H66.7374C64.5456 41.5246 63.4494 40.0333 63.4494 37.0489V22.0654H67.3137V36.61C67.3137 37.4686 67.5959 37.8982 68.1611 37.8982H70.0595V22.0654H73.9584V44.3381Z" fill="white"/>
<path d="M87.3804 44.4397C87.3804 47.3554 86.2743 48.8132 84.0596 48.8132H78.6695C77.6532 48.8132 77.1437 48.2945 77.1437 47.2532V23.6242C77.1437 22.5854 77.6532 22.0654 78.6695 22.0654H86.2619V25.7265H81.3478C81.1225 25.7265 81.008 25.862 81.008 26.1332V32.0655H84.0596C86.2743 32.0655 87.3804 33.5129 87.3804 36.4063V44.4397ZM82.839 45.1528C83.4047 45.1528 83.6863 44.7343 83.6863 43.8992V36.8811C83.6863 36.0212 83.4047 35.5922 82.839 35.5922H81.0086V44.7795C81.0086 45.029 81.1225 45.1528 81.3478 45.1528H82.8396H82.839Z" fill="white"/>
<path d="M44.0588 48.8137L39.8021 34.8579L44.3286 22.0938L48.2165 22.1272L43.6725 34.9452L47.8958 48.7995L44.0588 48.8137Z" fill="white"/>
<path d="M45.9361 92.1947H42.0706V69.5147C42.0706 69.2435 41.9592 69.1086 41.7327 69.1086H39.6647C39.4394 69.1086 39.3267 69.2435 39.3267 69.5147V92.1947H35.4612V67.0063C35.4612 65.9675 35.97 65.4463 36.9876 65.4463H44.411C45.4273 65.4463 45.9361 65.9675 45.9361 67.0063V92.1947Z" fill="white"/>
<path d="M52.9188 92.1947H49.0539V67.0063C49.0539 65.9663 49.5627 65.4463 50.5803 65.4463H55.9691C58.1851 65.4463 59.2912 66.9048 59.2912 69.8199V77.5159C59.2912 80.408 58.1851 81.8554 55.9691 81.8554H52.9188V92.1947ZM54.7485 78.3293C55.3143 78.3293 55.5959 77.9108 55.5959 77.0757V70.3962C55.5959 69.5611 55.3143 69.1414 54.7485 69.1414H53.2574C53.0321 69.1414 52.9188 69.267 52.9188 69.5147V78.3293H54.7485Z" fill="white"/>
<path d="M69.5285 92.1947V76.8721C69.5285 76.7359 69.4833 76.6684 69.3923 76.6684H69.2908C69.1559 76.6684 69.0872 76.7359 69.0872 76.8721L65.9025 91.2451C65.7663 91.8796 65.3702 92.1947 64.7141 92.1947H63.2242C62.8609 92.1947 62.6195 92.1099 62.4944 91.9409C62.3694 91.7713 62.3081 91.5175 62.3081 91.1776V65.4463H66.0028V79.3804C66.0028 79.5166 66.048 79.5841 66.139 79.5841H66.2411C66.3315 79.5841 66.3977 79.5166 66.4447 79.3804L69.1559 66.3953C69.2908 65.7639 69.6857 65.4463 70.3431 65.4463H72.2749C72.9972 65.4463 73.36 65.7973 73.36 66.4974V92.1947H69.5291H69.5285Z" fill="white"/>
<path d="M102.107 92.1947H98.0374L96.6824 69.3797C96.6824 69.2212 96.5914 69.1414 96.4101 69.1414H96.2076C96.0263 69.1414 95.9365 69.2212 95.9365 69.3797L94.5804 92.1947H90.4437L92.682 66.8361C92.7507 65.91 93.2019 65.4463 94.0381 65.4463H98.4112C99.3137 65.4463 99.7996 65.91 99.8683 66.8361L102.107 92.1947Z" fill="white"/>
<path d="M120.082 87.8552C120.082 90.7486 118.975 92.196 116.761 92.196H113.099C110.907 92.196 109.812 90.7486 109.812 87.8552V80.4316H108.32V92.196H104.591V65.4463H108.32V76.8721H109.812V69.8199C109.812 66.9048 110.907 65.4463 113.099 65.4463H116.761C118.974 65.4463 120.082 66.9048 120.082 69.8199V87.8552ZM115.371 88.5337C115.958 88.5337 116.252 88.1152 116.252 87.2801V70.3962C116.252 69.5611 115.958 69.1414 115.371 69.1414H114.422C113.856 69.1414 113.574 69.5611 113.574 70.3962V87.2801C113.574 88.1152 113.856 88.5337 114.422 88.5337H115.371Z" fill="white"/>
<path d="M133.134 92.1947H129.235V81.8554H126.219C124.002 81.8554 122.896 80.4093 122.896 77.5159V65.4463H126.557V77.0757C126.557 77.9108 126.85 78.3293 127.438 78.3293H129.235V65.4463H133.134V92.1947Z" fill="white"/>
<path d="M144.421 92.1947H137.844C136.806 92.1947 136.285 91.676 136.285 90.6353V67.0063C136.285 65.9675 136.806 65.4463 137.844 65.4463H144.421V69.1414H140.488C140.263 69.1414 140.15 69.2664 140.15 69.514V76.8721H144.421V80.431H140.15V88.1604C140.15 88.4092 140.263 88.5331 140.488 88.5331H144.421V92.1941V92.1947Z" fill="white"/>
<path d="M157.911 92.1947H154.081V80.4316H151.369V92.1947H147.505V65.4463H151.369V76.8721H154.081V65.4463H157.911V92.1947Z" fill="white"/>
<path d="M168.319 92.1947V76.8721C168.319 76.7359 168.272 76.6684 168.182 76.6684H168.082C167.946 76.6684 167.877 76.7359 167.877 76.8721L164.691 91.2451C164.556 91.8796 164.16 92.1947 163.504 92.1947H162.014C161.652 92.1947 161.408 92.1099 161.285 91.9409C161.161 91.7713 161.098 91.5175 161.098 91.1776V65.4463H164.793V79.3804C164.793 79.5166 164.839 79.5841 164.929 79.5841H165.03C165.12 79.5841 165.189 79.5166 165.234 79.3804L167.946 66.3953C168.082 65.7639 168.477 65.4463 169.132 65.4463H171.064C171.787 65.4463 172.15 65.7973 172.15 66.4974V92.1947H168.319H168.319Z" fill="white"/>
<path d="M182.555 92.1947V76.8721C182.555 76.7359 182.509 76.6684 182.419 76.6684H182.319C182.182 76.6684 182.114 76.7359 182.114 76.8721L178.928 91.2451C178.793 91.8796 178.397 92.1947 177.742 92.1947H176.251C175.889 92.1947 175.645 92.1099 175.521 91.9409C175.397 91.7713 175.335 91.5175 175.335 91.1776V65.4463H179.03V79.3804C179.03 79.5166 179.075 79.5841 179.166 79.5841H179.266C179.357 79.5841 179.424 79.5166 179.47 79.3804L182.182 66.3953C182.319 65.7639 182.714 65.4463 183.368 65.4463H185.3C186.024 65.4463 186.387 65.7973 186.387 66.4974V92.1947H182.556H182.555Z" fill="white"/>
<path d="M182.856 61.5174C182.856 62.7134 181.886 63.6834 180.691 63.6834C179.495 63.6834 178.527 62.7134 178.527 61.5174C178.527 60.3226 179.495 59.3525 180.691 59.3525C181.886 59.3525 182.856 60.3226 182.856 61.5174Z" fill="white"/>
<path d="M80.4114 79.8893V92.1947H76.5458V65.4463H80.4114V75.923V79.8893Z" fill="white"/>
<path d="M85.201 92.1943L80.9449 78.2391L85.4709 65.4756L89.3587 65.5072L84.8148 78.3252L89.0387 92.1794L85.201 92.1943Z" fill="white"/>
</svg>
