<svg width="60" height="60" viewBox="0 0 60 60" fill="none" xmlns="http://www.w3.org/2000/svg">
<g clip-path="url(#clip0_2005_3202)">
<path d="M28.5616 32.2662L29.9483 31.0176L25.7061 26.3031C25.6044 26.1903 25.5483 26.0447 25.5483 25.8935V25.733C25.5483 25.3449 25.9552 25.0499 26.3051 25.1367L26.7484 23.3236C26.5571 23.2769 26.3602 23.2537 26.1615 23.2537C24.7944 23.2537 23.682 24.3661 23.682 25.7332V25.8936C23.682 26.5077 23.9078 27.0965 24.3193 27.5519L28.5616 32.2662Z" fill="#FF8A35"/>
<path d="M33.0138 7.38936C33.0138 5.84586 31.7578 4.58984 30.2143 4.58984C28.6708 4.58984 27.4148 5.84586 27.4148 7.38936C27.4148 8.93286 28.6708 10.189 30.2143 10.189C31.7578 10.189 33.0138 8.93286 33.0138 7.38936ZM29.2811 7.38936C29.2811 6.8752 29.6992 6.45619 30.2143 6.45619C30.7294 6.45619 31.1475 6.8752 31.1475 7.38936C31.1475 7.90352 30.7294 8.32253 30.2143 8.32253C29.6992 8.32265 29.2811 7.90363 29.2811 7.38936Z" fill="#FF8A35"/>
<path d="M54.477 21.3871C52.2243 21.3871 50.3393 22.9931 49.9054 25.1198H40.4486C40.1397 21.9815 37.4858 19.5207 34.2672 19.5207C33.1539 19.5207 32.0864 19.8147 31.1476 20.3616V13.847C34.3073 13.3916 36.7466 10.6732 36.7466 7.38938C36.7465 3.78733 33.8154 0.857178 30.2143 0.857178C26.6131 0.857178 23.6821 3.78733 23.6821 7.38938C23.6821 10.6732 26.1215 13.3916 29.2811 13.847V20.3616C28.3433 19.8157 27.2748 19.5207 26.1615 19.5207C22.9429 19.5207 20.289 21.9816 19.9801 25.1198H10.5233C10.0894 22.9931 8.2044 21.3871 5.9517 21.3871C3.37886 21.3871 1.28572 23.4802 1.28572 26.0531C1.28572 28.6259 3.37886 30.7189 5.95158 30.7189C8.20428 30.7189 10.0893 29.1129 10.5232 26.9862H18.2546C18.1501 27.2792 18.0829 27.5909 18.0829 27.9194V29.0243C17.7899 28.9198 17.4783 28.8527 17.1498 28.8527C15.6063 28.8527 14.3502 30.1087 14.3502 31.6522V34.6664C13.4852 33.9601 12.3962 33.5187 11.1942 33.5187C9.84767 33.5187 8.7511 34.6142 8.7511 35.9618C8.7511 36.3387 8.84071 36.7167 9.00863 37.0545L10.1237 39.2857C10.4466 39.9305 10.6174 40.6519 10.6174 41.3732V45.553C10.6174 47.0302 11.1261 48.4794 12.0481 49.6338L14.3502 52.5098V58.7143H27.4148V52.5096L29.717 49.6326C29.9046 49.3983 30.0622 49.1445 30.2144 48.8879C30.3665 49.1445 30.5252 49.3983 30.7118 49.6326L33.014 52.5096V58.7143H46.0786V52.5096L48.3808 49.6326C49.3027 48.4782 49.8114 47.0299 49.8114 45.5527V41.373C49.8114 40.6526 49.9821 39.9312 50.3041 39.2864L51.4192 37.0552C51.5881 36.7164 51.6777 36.3385 51.6777 35.9615C51.6777 34.614 50.5812 33.5184 49.2346 33.5184C48.0336 33.5184 46.9436 33.9598 46.0786 34.6662V31.652C46.0786 30.1085 44.8225 28.8525 43.279 28.8525C42.9505 28.8525 42.6389 28.9197 42.3459 29.0241V27.9192C42.3459 27.5907 42.2786 27.279 42.1742 26.986H49.9056C50.3395 29.1127 52.2236 30.7187 54.4772 30.7187C57.05 30.7187 59.1431 28.6256 59.1431 26.0528C59.1431 23.4801 57.0497 21.3871 54.477 21.3871ZM5.95158 28.8526C4.40809 28.8526 3.15207 27.5966 3.15207 26.0531C3.15207 24.5096 4.40809 23.2535 5.95158 23.2535C7.49508 23.2535 8.7511 24.5096 8.7511 26.0531C8.75121 27.5966 7.49508 28.8526 5.95158 28.8526ZM25.5484 7.38938C25.5484 4.81666 27.6416 2.72352 30.2143 2.72352C32.787 2.72352 34.8802 4.81666 34.8802 7.38938C34.8802 9.96211 32.787 12.0552 30.2143 12.0552C27.6416 12.0552 25.5484 9.96222 25.5484 7.38938ZM21.8156 25.7329C21.8156 23.3365 23.765 21.3871 26.1615 21.3871C27.3214 21.3871 28.4133 21.8388 29.2335 22.659L30.2143 23.6407L31.1941 22.6599C32.0153 21.8388 33.1071 21.3871 34.2671 21.3871C36.6636 21.3871 38.613 23.3365 38.613 25.7329V25.8934C38.613 26.9684 38.2163 28.0014 37.4978 28.8003L31.0785 35.9335C30.6371 36.4216 29.7917 36.4216 29.3503 35.9335L22.931 28.8003C22.2124 28.0014 21.8159 26.9684 21.8159 25.8934V25.7329H21.8156ZM25.5484 56.848H16.2166V53.1153H25.5484V56.848ZM28.2583 48.4671L26.0328 51.2488H15.7323L13.5067 48.4671C12.847 47.6421 12.4839 46.6073 12.4839 45.5527V41.373C12.4839 40.3633 12.245 39.3536 11.7943 38.4512L10.6791 36.22C10.6381 36.1398 10.6176 36.0501 10.6176 35.9614C10.6176 35.6432 10.876 35.3848 11.1942 35.3848C12.9337 35.3848 14.3502 36.8004 14.3502 38.5408V40.0508V42.5899L14.9886 42.8027C16.281 43.2329 17.1499 44.4385 17.1499 45.801V47.5161H19.0162V45.801C19.0162 43.8665 17.915 42.1308 16.2167 41.2938V40.0508V38.5408V31.6521C16.2167 31.1379 16.6348 30.7189 17.1499 30.7189C17.6649 30.7189 18.0831 31.1379 18.0831 31.6521V40.0508H19.9494V31.6521V27.9194C19.9494 27.7169 20.0278 27.5405 20.137 27.3875C20.3796 28.3692 20.8556 29.2847 21.5442 30.0498L21.8157 30.3512V40.0506H23.6821V32.4247L25.5484 34.4982V40.0505H27.4148V36.5725L27.9635 37.182C28.3218 37.5795 28.7819 37.8567 29.2811 38.019V45.5516C29.2811 46.6073 28.9182 47.6421 28.2583 48.4671ZM44.212 56.848H34.8802V53.1153H44.212V56.848ZM43.2788 30.7189C43.7939 30.7189 44.212 31.1379 44.212 31.6521V38.5408V40.0508V41.2938C42.5136 42.1308 41.4125 43.8665 41.4125 45.801V47.5161H43.2788V45.801C43.2788 44.4385 44.1476 43.2329 45.4401 42.8027L46.0783 42.5899V40.0508V38.5408C46.0783 36.8005 47.4949 35.3848 49.2344 35.3848C49.5526 35.3848 49.811 35.6433 49.811 35.9614C49.811 36.0501 49.7905 36.1396 49.7503 36.219L48.6352 38.4502C48.1836 39.3526 47.9447 40.3632 47.9447 41.3729V45.5526C47.9447 46.6071 47.5817 47.6429 46.9219 48.4678L44.6963 51.2487H34.3958L32.1702 48.4669C31.5105 47.642 31.1475 46.6071 31.1475 45.5526V38.02C31.6476 37.8567 32.1067 37.5804 32.4651 37.182L33.0138 36.5725V40.0505H34.8802V34.4982L36.7465 32.4247V40.0506H38.6128V30.3512L38.8844 30.0498C39.573 29.2846 40.0481 28.3692 40.2916 27.3875C40.4008 27.5405 40.4792 27.7169 40.4792 27.9194V31.6521V40.0508H42.3455V31.6521C42.3456 31.1379 42.7636 30.7189 43.2788 30.7189ZM54.477 28.8526C52.9335 28.8526 51.6775 27.5966 51.6775 26.0531C51.6775 24.5096 52.9335 23.2535 54.477 23.2535C56.0205 23.2535 57.2765 24.5096 57.2765 26.0531C57.2765 27.5966 56.0204 28.8526 54.477 28.8526Z" fill="#FF8A35"/>
<path d="M35.8133 13.9217C34.2698 13.9217 33.0138 15.1777 33.0138 16.7212V17.6544H34.8801V16.7212C34.8801 16.2071 35.2982 15.788 35.8133 15.788H42.3633C44.0681 18.0491 46.7679 19.5207 49.811 19.5207C54.9566 19.5207 59.1428 15.3345 59.1428 10.1889C59.1428 5.04335 54.9566 0.857178 49.811 0.857178C44.6655 0.857178 40.4792 5.04346 40.4792 10.189C40.4792 11.516 40.7619 12.7777 41.264 13.9217H35.8133ZM45.6939 16.4105C46.4927 14.8996 48.0707 13.9217 49.8111 13.9217C51.5516 13.9217 53.1296 14.8996 53.9284 16.4105C52.7469 17.1944 51.3323 17.6544 49.8111 17.6544C48.29 17.6544 46.8752 17.1944 45.6939 16.4105ZM47.0115 9.25584C47.0115 7.71234 48.2675 6.45633 49.811 6.45633C51.3545 6.45633 52.6105 7.71234 52.6105 9.25584C52.6105 10.7993 51.3545 12.0554 49.811 12.0554C48.2675 12.0554 47.0115 10.7992 47.0115 9.25584ZM49.811 2.72352C53.9272 2.72352 57.2765 6.07268 57.2765 10.189C57.2765 12.1058 56.5439 13.8498 55.3532 15.1731C54.728 14.1597 53.8517 13.3385 52.8131 12.7981C53.8219 11.9415 54.477 10.6798 54.477 9.25573C54.477 6.68301 52.3838 4.58987 49.8111 4.58987C47.2384 4.58987 45.1453 6.68301 45.1453 9.25573C45.1453 10.6798 45.8003 11.9415 46.8091 12.7981C45.7696 13.3394 44.8942 14.1606 44.269 15.174C43.0783 13.8498 42.3457 12.1056 42.3457 10.1889C42.3456 6.07268 45.6948 2.72352 49.811 2.72352Z" fill="#FF8A35"/>
<path d="M10.6176 19.5207C13.6607 19.5207 16.3603 18.0491 18.0653 15.788H24.6153C25.1303 15.788 25.5484 16.2071 25.5484 16.7212V17.6544H27.4148V16.7212C27.4148 15.1777 26.1588 13.9217 24.6153 13.9217H19.1646C19.6667 12.7777 19.9494 11.516 19.9494 10.189C19.9493 5.04346 15.7631 0.857178 10.6176 0.857178C5.472 0.857178 1.28572 5.04346 1.28572 10.189C1.28572 15.3346 5.472 19.5207 10.6176 19.5207ZM6.50032 16.4105C7.29914 14.8996 8.8771 13.9217 10.6176 13.9217C12.358 13.9217 13.936 14.8996 14.7348 16.4105C13.5534 17.1944 12.1387 17.6544 10.6176 17.6544C9.09644 17.6544 7.68176 17.1944 6.50032 16.4105ZM7.81793 9.25584C7.81793 7.71234 9.07395 6.45633 10.6174 6.45633C12.1609 6.45633 13.417 7.71234 13.417 9.25584C13.417 10.7993 12.1609 12.0554 10.6176 12.0554C9.07417 12.0554 7.81793 10.7992 7.81793 9.25584ZM10.6176 2.72352C14.7338 2.72352 18.0831 6.07268 18.0831 10.189C18.0831 12.1058 17.3505 13.8498 16.1598 15.1731C15.5345 14.1597 14.6583 13.3385 13.6197 12.7981C14.6285 11.9415 15.2835 10.6798 15.2835 9.25573C15.2835 6.68301 13.1904 4.58987 10.6177 4.58987C8.04495 4.58987 5.95181 6.68301 5.95181 9.25573C5.95181 10.6798 6.60688 11.9415 7.61565 12.7981C6.57615 13.3394 5.70072 14.1606 5.07559 15.174C3.88489 13.8498 3.15229 12.1056 3.15229 10.1889C3.15207 6.07268 6.50123 2.72352 10.6176 2.72352Z" fill="#FF8A35"/>
</g>
<defs>
<clipPath id="clip0_2005_3202">
<rect width="57.8571" height="57.8571" fill="white" transform="translate(1.28572 0.857178)"/>
</clipPath>
</defs>
</svg>
