<svg width="114" height="110" viewBox="0 0 114 110" fill="none" xmlns="http://www.w3.org/2000/svg">
<path d="M5.631 64.7762C5.62541 63.7193 5.80565 62.6694 6.16346 61.6731L12.1048 45.129C13.2097 42.0521 15.8052 39.7259 19.0164 38.9343M24.8847 53.5996V59.0589H33.0802C34.9439 59.0589 36.4547 60.5487 36.4547 62.3865C36.4547 64.2243 34.9439 65.7141 33.0802 65.7141H21.3442C19.217 65.7141 17.4924 64.0137 17.4924 61.9159V52.0865M100.355 43.2046C102.491 44.6844 103.546 45.3693 103.912 47.9178L105.444 57.6514C105.925 60.4872 103.612 63.0882 100.11 62.4719L87.7542 58.7002L87.1077 65.5009M90.3306 44.1025C88.3421 44.5861 86.7769 46.0966 86.2438 48.0468L84.737 52.9621M95.2144 54.9929C94.4261 53.2323 92.241 53.4654 90.018 53.5119L81.2623 53.7031C79.899 54.0268 78.9401 55.2321 78.9459 56.615C78.9547 58.6378 80.9595 60.0654 82.9095 59.4371L99.3924 55.9373M85.0335 72.8581L75.9057 70.1806C73.9429 69.6104 72.8208 67.5792 73.3989 65.644C73.9772 63.7085 76.037 62.602 77.9995 63.172L96.9842 68.6156M101.116 64.0133V67.4136M60.108 67.0206H66.508L73.9834 79.3572H41.2283L48.7037 67.0206H51.0093M51.669 72.8524V71.1983M63.9522 72.4039V70.7498M55.5359 67.4692V65.8151M56.4685 75.0955V73.4414M31.4568 65.7796L18.6835 69.51M28.2708 74.0017L38.7755 71.0018C40.6464 70.4583 41.7162 68.5224 41.165 66.6775C40.8289 65.5527 39.5074 63.5744 36.3767 63.7949M33.7645 44.1025L40.2814 50.0994C41.0954 50.8485 42.159 51.2787 43.2722 51.3091L52.205 51.5537C53.7603 51.6033 54.995 52.8609 54.995 54.3953C54.995 55.9872 53.6695 57.4895 52.0554 57.4584L40.8649 57.2763C39.7885 57.258 38.7531 56.8657 37.9414 56.1682L31.9298 51.0026M57.1856 57.4814L55.8334 56.658M34.1364 38.9541C34.1364 42.8815 30.9076 46.0653 26.9248 46.0653C22.942 46.0653 19.7133 42.8815 19.7133 38.9541C19.7133 35.0267 22.942 31.8429 26.9248 31.8429C30.9076 31.8429 34.1364 35.0267 34.1364 38.9541ZM101.713 38.2048C101.713 41.9472 98.6368 44.981 94.8416 44.981C91.0464 44.981 87.9697 41.9472 87.9697 38.2048C87.9697 34.4624 91.0464 31.4286 94.8416 31.4286C98.6368 31.4286 101.713 34.4624 101.713 38.2048ZM109.172 73.2652L89.8983 77.8995C87.9105 78.3776 85.9061 77.176 85.4213 75.2159C84.9365 73.2557 86.155 71.2792 88.1428 70.8012L107.417 66.1668C109.404 65.6887 111.409 66.8903 111.894 68.8505C112.378 70.8109 111.16 72.7873 109.172 73.2652ZM4.69557 73.3042L23.067 77.7216C24.9618 78.1772 26.8725 77.0318 27.3345 75.1634C27.7965 73.295 26.635 71.4109 24.7402 70.9553L6.36875 66.5379C4.47395 66.0824 2.56328 67.2277 2.10126 69.0961C1.63947 70.9648 2.80077 72.8486 4.69557 73.3042Z" stroke="#FF8A35" stroke-width="3" stroke-miterlimit="10" stroke-linecap="round" stroke-linejoin="round"/>
</svg>
