<svg width="246" height="61" viewBox="0 0 246 61" fill="none" xmlns="http://www.w3.org/2000/svg">
<path d="M242.006 30.3224L230.434 4.75185L3.36784 4.75551L3.37043 55.899H230.437L242.006 30.3254V30.3224ZM1.80022 0.00305031L229.888 0C230.62 4.10496e-05 231.341 0.260508 231.984 0.757368C232.626 1.25423 233.17 1.97148 233.564 2.84293L246.001 30.3242L233.566 57.8067C233.172 58.6776 232.628 59.3944 231.986 59.8909C231.344 60.3875 230.623 60.6478 229.891 60.6478L1.80022 60.6515C1.564 60.6515 1.33009 60.5858 1.11186 60.4583C0.893634 60.3307 0.695351 60.1437 0.528341 59.908C0.36133 59.6722 0.228864 59.3924 0.138507 59.0844C0.0481498 58.7764 0.00167257 58.4463 0.00172935 58.113L0 2.54095C0.00034386 1.86758 0.190174 1.22197 0.527755 0.746057C0.865336 0.270143 1.32303 0.00288839 1.80022 0.00305031Z" fill="white"/>
<path d="M49.5016 30.724L49.5029 55.8974H45.9677L45.9656 1.18555H49.5003L49.5016 22.61V30.724Z" fill="white"/>
<path d="M66.9828 33.4638C66.8259 32.2833 66.4861 31.3603 66.0152 30.6611C66.5124 29.9229 66.8263 29.0005 66.9828 27.8548L68.4735 17.3408H65.6231L64.1852 27.967C64.1065 28.5576 63.7961 28.7418 63.4018 28.7418H63.1424V17.3427H60.1594V46.4504H63.1424V33.0581H63.4018C63.8203 33.0581 64.1342 33.3162 64.1852 33.8329L65.493 46.4504H68.5517L66.9824 33.4638H66.9828ZM77.756 18.8538C77.7037 17.8576 77.2852 17.3427 76.6319 17.3427H73.2598C72.632 17.3427 72.2654 17.8576 72.2135 18.8538L70.4877 46.4504H73.6783L74.7228 21.6205C74.7228 21.4375 74.8015 21.3618 74.9333 21.3618H75.0903C75.22 21.3618 75.2995 21.4356 75.2995 21.6205L76.3444 46.4504H79.4823L77.756 18.8538ZM89.9152 17.3427H86.908V34.5711H85.4445C85.0001 34.5711 84.7908 34.0916 84.7908 33.1679V17.3427H81.8108V33.6486C81.8108 36.8961 82.6465 38.5195 84.346 38.5195H86.9339V41.1013C86.9339 41.9871 86.6745 42.4666 86.2538 42.4666H82.5159V46.4504H87.3528C89.0527 46.4504 89.9157 44.8282 89.9157 41.5808V17.3427H89.9152ZM95.8252 42.4666C95.6423 42.4666 95.5658 42.319 95.5658 42.0609V32.0631H96.9777C97.3954 32.0631 97.6306 32.5432 97.6306 33.4662V41.1013C97.6306 42.0237 97.3954 42.4666 96.9777 42.4666H95.8252ZM100.479 32.9495C100.479 29.8143 99.5899 28.2276 97.9172 28.2276H95.5636V21.7693C95.5636 21.4741 95.6423 21.3264 95.823 21.3264H99.6136V17.3427H93.7591C92.9757 17.3427 92.5836 17.9314 92.5836 19.0387V44.7544C92.5836 45.8971 92.9757 46.4504 93.7591 46.4504H97.9172C99.5899 46.4504 100.479 44.8642 100.479 41.6918V32.9495ZM114.206 19.0399C114.206 17.9332 113.814 17.3445 113.031 17.3445H107.304C106.52 17.3445 106.128 17.9332 106.128 19.0399V46.4504H109.108V21.7687C109.108 21.4734 109.186 21.3264 109.369 21.3264H110.963C111.12 21.3264 111.223 21.4741 111.223 21.7687V46.4504H114.206V19.038L114.206 19.0399ZM119.802 35.2001H122.156C123.828 35.2001 124.718 33.6505 124.718 30.4781V22.1012C124.718 18.9288 123.828 17.3427 122.156 17.3427H117.999C117.214 17.3427 116.822 17.9314 116.822 19.0387V46.4504H119.802V35.1982V35.2001ZM119.802 31.3621V21.7693C119.802 21.4741 119.881 21.363 120.064 21.363H121.215C121.633 21.363 121.868 21.8431 121.868 22.7284V29.9968C121.868 30.9192 121.633 31.3609 121.215 31.3609H119.802V31.3621ZM135.779 46.4504V18.4847C135.779 17.7099 135.519 17.3427 134.942 17.3427H133.452C132.903 17.3427 132.642 17.7087 132.537 18.3743L130.445 32.5048C130.419 32.6524 130.366 32.7256 130.288 32.7256H130.21C130.131 32.7256 130.105 32.6524 130.105 32.5048V17.3427H127.256V45.3449C127.256 46.0813 127.412 46.4504 127.962 46.4504H129.111C129.634 46.4504 129.922 46.1197 130.027 45.4169L132.484 29.7753C132.484 29.6277 132.537 29.5538 132.642 29.5538H132.72C132.772 29.5538 132.825 29.6277 132.825 29.7753V46.4504H135.779ZM145.271 33.4638C145.114 32.2833 144.775 31.3603 144.304 30.6611C144.801 29.9229 145.114 29.0005 145.271 27.8548L146.76 17.3427H143.911L142.473 27.967C142.394 28.5576 142.08 28.7418 141.688 28.7418H141.426V17.3427H138.446V46.4504H141.426V33.0581H141.688C142.106 33.0581 142.42 33.3162 142.473 33.8329L143.78 46.4504H146.839L145.271 33.4638H145.271ZM156.044 18.8538C155.991 17.8576 155.573 17.3427 154.92 17.3427H151.548C150.922 17.3427 150.554 17.8576 150.503 18.8538L148.777 46.4504H151.966L153.012 21.6205C153.012 21.4375 153.09 21.3618 153.221 21.3618H153.378C153.508 21.3618 153.588 21.4356 153.588 21.6205L154.633 46.4504H157.771L156.046 18.8538H156.044ZM172.045 22.1012C172.045 18.9288 171.183 17.3427 169.483 17.3427H166.66C164.961 17.3427 164.124 18.9288 164.124 22.1012V29.7753H162.972V17.3427H160.097V46.4504H162.972V33.6486H164.123V41.7284C164.123 44.9008 164.96 46.4504 166.659 46.4504H169.482C171.182 46.4504 172.044 44.902 172.044 41.7284L172.045 22.1012ZM167.679 42.4666C167.234 42.4666 167.024 42.0237 167.024 41.1013V22.7284C167.024 21.8431 167.234 21.363 167.679 21.363H168.41C168.854 21.363 169.089 21.8431 169.089 22.7284V41.1013C169.089 42.0237 168.854 42.4666 168.41 42.4666H167.679ZM182.321 17.3427H179.314V31.3603H177.931C177.46 31.3603 177.252 30.9192 177.252 29.9968V17.3427H174.428V30.4763C174.428 33.6486 175.265 35.1982 176.99 35.1982H179.314V46.4504H182.322V17.3427H182.321ZM191.237 42.4666H188.203C188.021 42.4666 187.944 42.3562 187.944 42.0609V33.6486H191.238V29.7753H187.944V21.7693C187.944 21.4741 188.022 21.3636 188.203 21.3636H191.237V17.3427H186.167C185.356 17.3427 184.963 17.9314 184.963 19.0387V44.755C184.963 45.8971 185.356 46.4504 186.167 46.4504H191.239V42.4666H191.237ZM201.853 17.3427H198.899V29.7753H196.807V17.3427H193.827V46.4504H196.807V33.6486H198.899V46.4504H201.853V17.3427ZM213.045 46.4504V18.4847C213.045 17.7099 212.783 17.3427 212.208 17.3427H210.717C210.169 17.3427 209.907 17.7087 209.802 18.3743L207.711 32.5048C207.685 32.6524 207.633 32.7256 207.554 32.7256H207.476C207.397 32.7256 207.371 32.6524 207.371 32.5048V17.3427H204.523V45.3449C204.523 46.0813 204.68 46.4504 205.228 46.4504H206.378C206.901 46.4504 207.189 46.1197 207.293 45.4169L209.751 29.7753C209.751 29.6277 209.803 29.5538 209.908 29.5538H209.986C210.038 29.5538 210.092 29.6277 210.092 29.7753V46.4504H213.045ZM224.236 46.4504V18.4847C224.236 17.7099 223.977 17.3427 223.399 17.3427H221.909C221.361 17.3427 221.098 17.7087 220.993 18.3743L218.903 32.5048C218.876 32.6524 218.824 32.7256 218.746 32.7256H218.667C218.589 32.7256 218.562 32.6524 218.562 32.5048V17.3427H215.716V45.3449C215.716 46.0813 215.873 46.4504 216.421 46.4504H217.572C218.095 46.4504 218.382 46.1197 218.487 45.4169L220.945 29.7753C220.945 29.6277 220.996 29.5538 221.101 29.5538H221.18C221.232 29.5538 221.285 29.6277 221.285 29.7753V46.4504H224.236Z" fill="white"/>
<path d="M221.882 12.1695C221.882 12.7514 221.759 13.3201 221.53 13.8039C221.301 14.2876 220.975 14.6647 220.595 14.8873C220.214 15.11 219.794 15.1683 219.39 15.0548C218.986 14.9414 218.614 14.6613 218.322 14.2499C218.031 13.8386 217.832 13.3145 217.752 12.7439C217.671 12.1732 217.712 11.5817 217.87 11.0441C218.027 10.5064 218.295 10.0468 218.637 9.72329C218.98 9.39978 219.383 9.22692 219.795 9.22656C220.069 9.2264 220.341 9.30241 220.594 9.45023C220.847 9.59806 221.077 9.81481 221.271 10.0881C221.464 10.3614 221.618 10.6859 221.723 11.043C221.828 11.4002 221.882 11.783 221.882 12.1695Z" fill="white"/>
<path d="M16.0593 31.3218L10.6733 45.459L7.47021 45.462L20.6947 11.6836L22.1897 15.6576L17.6191 27.2368L16.0593 31.3218Z" fill="white"/>
<path d="M25.36 31.407L30.6435 45.2947L33.8466 45.2965L20.7241 11.77L19.2291 15.744L23.7997 27.322L25.36 31.407Z" fill="white"/>
<path d="M37.5542 45.4491L40.7569 45.4521L31.3278 20.1274L29.8337 24.1021L37.5542 45.4491Z" fill="white"/>
<path d="M10.7062 41.4653L9.21338 45.465L40.7569 45.4522L37.6986 41.7655L10.7062 41.4653Z" fill="white"/>
<path d="M28.2319 35.893L26.4149 32.5059L31.2288 20.3203L32.723 24.2943L28.2319 35.893Z" fill="white"/>
<path d="M20.5092 34.5938L18.8037 31.9113L23.9908 24.0811L24.756 28.4486L20.5092 34.5938Z" fill="white"/>
<path d="M20.5092 34.5936L22.4616 31.7678L17.3052 23.9863L16.5413 28.352L20.5092 34.5936Z" fill="white"/>
<path d="M242.006 30.3224L230.434 4.75185L3.36784 4.75551L3.37043 55.899H230.437L242.006 30.3254V30.3224ZM1.80022 0.00305031L229.888 0C230.62 4.10496e-05 231.341 0.260508 231.984 0.757368C232.626 1.25423 233.17 1.97148 233.564 2.84293L246.001 30.3242L233.566 57.8067C233.172 58.6776 232.628 59.3944 231.986 59.8909C231.344 60.3875 230.623 60.6478 229.891 60.6478L1.80022 60.6515C1.564 60.6515 1.33009 60.5858 1.11186 60.4583C0.893634 60.3307 0.695351 60.1437 0.528341 59.908C0.36133 59.6722 0.228864 59.3924 0.138507 59.0844C0.0481498 58.7764 0.00167257 58.4463 0.00172935 58.113L0 2.54095C0.00034386 1.86758 0.190174 1.22197 0.527755 0.746057C0.865336 0.270143 1.32303 0.00288839 1.80022 0.00305031Z" fill="white"/>
<path d="M49.5016 30.724L49.5029 55.8974H45.9677L45.9656 1.18555H49.5003L49.5016 22.61V30.724Z" fill="white"/>
<path d="M66.9828 33.4638C66.8259 32.2833 66.4861 31.3603 66.0152 30.6611C66.5124 29.9229 66.8263 29.0005 66.9828 27.8548L68.4735 17.3408H65.6231L64.1852 27.967C64.1065 28.5576 63.7961 28.7418 63.4018 28.7418H63.1424V17.3427H60.1594V46.4504H63.1424V33.0581H63.4018C63.8203 33.0581 64.1342 33.3162 64.1852 33.8329L65.493 46.4504H68.5517L66.9824 33.4638H66.9828ZM77.756 18.8538C77.7037 17.8576 77.2852 17.3427 76.6319 17.3427H73.2598C72.632 17.3427 72.2654 17.8576 72.2135 18.8538L70.4877 46.4504H73.6783L74.7228 21.6205C74.7228 21.4375 74.8015 21.3618 74.9333 21.3618H75.0903C75.22 21.3618 75.2995 21.4356 75.2995 21.6205L76.3444 46.4504H79.4823L77.756 18.8538ZM89.9152 17.3427H86.908V34.5711H85.4445C85.0001 34.5711 84.7908 34.0916 84.7908 33.1679V17.3427H81.8108V33.6486C81.8108 36.8961 82.6465 38.5195 84.346 38.5195H86.9339V41.1013C86.9339 41.9871 86.6745 42.4666 86.2538 42.4666H82.5159V46.4504H87.3528C89.0527 46.4504 89.9157 44.8282 89.9157 41.5808V17.3427H89.9152ZM95.8252 42.4666C95.6423 42.4666 95.5658 42.319 95.5658 42.0609V32.0631H96.9777C97.3954 32.0631 97.6306 32.5432 97.6306 33.4662V41.1013C97.6306 42.0237 97.3954 42.4666 96.9777 42.4666H95.8252ZM100.479 32.9495C100.479 29.8143 99.5899 28.2276 97.9172 28.2276H95.5636V21.7693C95.5636 21.4741 95.6423 21.3264 95.823 21.3264H99.6136V17.3427H93.7591C92.9757 17.3427 92.5836 17.9314 92.5836 19.0387V44.7544C92.5836 45.8971 92.9757 46.4504 93.7591 46.4504H97.9172C99.5899 46.4504 100.479 44.8642 100.479 41.6918V32.9495ZM114.206 19.0399C114.206 17.9332 113.814 17.3445 113.031 17.3445H107.304C106.52 17.3445 106.128 17.9332 106.128 19.0399V46.4504H109.108V21.7687C109.108 21.4734 109.186 21.3264 109.369 21.3264H110.963C111.12 21.3264 111.223 21.4741 111.223 21.7687V46.4504H114.206V19.038L114.206 19.0399ZM119.802 35.2001H122.156C123.828 35.2001 124.718 33.6505 124.718 30.4781V22.1012C124.718 18.9288 123.828 17.3427 122.156 17.3427H117.999C117.214 17.3427 116.822 17.9314 116.822 19.0387V46.4504H119.802V35.1982V35.2001ZM119.802 31.3621V21.7693C119.802 21.4741 119.881 21.363 120.064 21.363H121.215C121.633 21.363 121.868 21.8431 121.868 22.7284V29.9968C121.868 30.9192 121.633 31.3609 121.215 31.3609H119.802V31.3621ZM135.779 46.4504V18.4847C135.779 17.7099 135.519 17.3427 134.942 17.3427H133.452C132.903 17.3427 132.642 17.7087 132.537 18.3743L130.445 32.5048C130.419 32.6524 130.366 32.7256 130.288 32.7256H130.21C130.131 32.7256 130.105 32.6524 130.105 32.5048V17.3427H127.256V45.3449C127.256 46.0813 127.412 46.4504 127.962 46.4504H129.111C129.634 46.4504 129.922 46.1197 130.027 45.4169L132.484 29.7753C132.484 29.6277 132.537 29.5538 132.642 29.5538H132.72C132.772 29.5538 132.825 29.6277 132.825 29.7753V46.4504H135.779ZM145.271 33.4638C145.114 32.2833 144.775 31.3603 144.304 30.6611C144.801 29.9229 145.114 29.0005 145.271 27.8548L146.76 17.3427H143.911L142.473 27.967C142.394 28.5576 142.08 28.7418 141.688 28.7418H141.426V17.3427H138.446V46.4504H141.426V33.0581H141.688C142.106 33.0581 142.42 33.3162 142.473 33.8329L143.78 46.4504H146.839L145.271 33.4638H145.271ZM156.044 18.8538C155.991 17.8576 155.573 17.3427 154.92 17.3427H151.548C150.922 17.3427 150.554 17.8576 150.503 18.8538L148.777 46.4504H151.966L153.012 21.6205C153.012 21.4375 153.09 21.3618 153.221 21.3618H153.378C153.508 21.3618 153.588 21.4356 153.588 21.6205L154.633 46.4504H157.771L156.046 18.8538H156.044ZM172.045 22.1012C172.045 18.9288 171.183 17.3427 169.483 17.3427H166.66C164.961 17.3427 164.124 18.9288 164.124 22.1012V29.7753H162.972V17.3427H160.097V46.4504H162.972V33.6486H164.123V41.7284C164.123 44.9008 164.96 46.4504 166.659 46.4504H169.482C171.182 46.4504 172.044 44.902 172.044 41.7284L172.045 22.1012ZM167.679 42.4666C167.234 42.4666 167.024 42.0237 167.024 41.1013V22.7284C167.024 21.8431 167.234 21.363 167.679 21.363H168.41C168.854 21.363 169.089 21.8431 169.089 22.7284V41.1013C169.089 42.0237 168.854 42.4666 168.41 42.4666H167.679ZM182.321 17.3427H179.314V31.3603H177.931C177.46 31.3603 177.252 30.9192 177.252 29.9968V17.3427H174.428V30.4763C174.428 33.6486 175.265 35.1982 176.99 35.1982H179.314V46.4504H182.322V17.3427H182.321ZM191.237 42.4666H188.203C188.021 42.4666 187.944 42.3562 187.944 42.0609V33.6486H191.238V29.7753H187.944V21.7693C187.944 21.4741 188.022 21.3636 188.203 21.3636H191.237V17.3427H186.167C185.356 17.3427 184.963 17.9314 184.963 19.0387V44.755C184.963 45.8971 185.356 46.4504 186.167 46.4504H191.239V42.4666H191.237ZM201.853 17.3427H198.899V29.7753H196.807V17.3427H193.827V46.4504H196.807V33.6486H198.899V46.4504H201.853V17.3427ZM213.045 46.4504V18.4847C213.045 17.7099 212.783 17.3427 212.208 17.3427H210.717C210.169 17.3427 209.907 17.7087 209.802 18.3743L207.711 32.5048C207.685 32.6524 207.633 32.7256 207.554 32.7256H207.476C207.397 32.7256 207.371 32.6524 207.371 32.5048V17.3427H204.523V45.3449C204.523 46.0813 204.68 46.4504 205.228 46.4504H206.378C206.901 46.4504 207.189 46.1197 207.293 45.4169L209.751 29.7753C209.751 29.6277 209.803 29.5538 209.908 29.5538H209.986C210.038 29.5538 210.092 29.6277 210.092 29.7753V46.4504H213.045ZM224.236 46.4504V18.4847C224.236 17.7099 223.977 17.3427 223.399 17.3427H221.909C221.361 17.3427 221.098 17.7087 220.993 18.3743L218.903 32.5048C218.876 32.6524 218.824 32.7256 218.746 32.7256H218.667C218.589 32.7256 218.562 32.6524 218.562 32.5048V17.3427H215.716V45.3449C215.716 46.0813 215.873 46.4504 216.421 46.4504H217.572C218.095 46.4504 218.382 46.1197 218.487 45.4169L220.945 29.7753C220.945 29.6277 220.996 29.5538 221.101 29.5538H221.18C221.232 29.5538 221.285 29.6277 221.285 29.7753V46.4504H224.236Z" fill="white"/>
<path d="M221.882 12.1695C221.882 12.7514 221.759 13.3201 221.53 13.8039C221.301 14.2876 220.975 14.6647 220.595 14.8873C220.214 15.11 219.794 15.1683 219.39 15.0548C218.986 14.9414 218.614 14.6613 218.322 14.2499C218.031 13.8386 217.832 13.3145 217.752 12.7439C217.671 12.1732 217.712 11.5817 217.87 11.0441C218.027 10.5064 218.295 10.0468 218.637 9.72329C218.98 9.39978 219.383 9.22692 219.795 9.22656C220.069 9.2264 220.341 9.30241 220.594 9.45023C220.847 9.59806 221.077 9.81481 221.271 10.0881C221.464 10.3614 221.618 10.6859 221.723 11.043C221.828 11.4002 221.882 11.783 221.882 12.1695Z" fill="white"/>
<path d="M16.0593 31.3218L10.6733 45.459L7.47021 45.462L20.6947 11.6836L22.1897 15.6576L17.6191 27.2368L16.0593 31.3218Z" fill="white"/>
<path d="M25.36 31.407L30.6435 45.2947L33.8466 45.2965L20.7241 11.77L19.2291 15.744L23.7997 27.322L25.36 31.407Z" fill="white"/>
<path d="M37.5542 45.4491L40.7569 45.4521L31.3278 20.1274L29.8337 24.1021L37.5542 45.4491Z" fill="white"/>
<path d="M10.7062 41.4653L9.21338 45.465L40.7569 45.4522L37.6986 41.7655L10.7062 41.4653Z" fill="white"/>
<path d="M28.2319 35.893L26.4149 32.5059L31.2288 20.3203L32.723 24.2943L28.2319 35.893Z" fill="white"/>
<path d="M20.5092 34.5938L18.8037 31.9113L23.9908 24.0811L24.756 28.4486L20.5092 34.5938Z" fill="white"/>
<path d="M20.5092 34.5936L22.4616 31.7678L17.3052 23.9863L16.5413 28.352L20.5092 34.5936Z" fill="white"/>
</svg>
