<svg width="59" height="59" viewBox="0 0 59 59" fill="none" xmlns="http://www.w3.org/2000/svg">
<g clip-path="url(#clip0_2005_3213)">
<path d="M46.4392 23.6068V5.47991C46.4392 5.2321 46.3039 5.00406 46.0864 4.8853C41.1154 2.17177 35.4783 0.737549 29.784 0.737549C24.0897 0.737549 18.4525 2.17177 13.4849 4.8853C13.2675 5.00406 13.1322 5.2321 13.1322 5.47991V23.6069C13.1322 33.7613 25.7435 37.9312 29.6086 38.9673C29.6662 38.9827 29.7251 38.9904 29.7841 38.9904C29.8431 38.9904 29.9021 38.9827 29.9596 38.9673C33.8255 37.931 46.4393 33.7606 46.4393 23.6069L46.4392 23.6068ZM29.784 37.6109C25.964 36.5632 14.4871 32.6537 14.4871 23.6068V5.88469C19.1693 3.40271 24.4494 2.09245 29.784 2.09245C35.1186 2.09245 40.399 3.40282 45.0842 5.8848V23.6069C45.0842 32.653 33.6048 36.563 29.784 37.611V37.6109ZM42.7546 6.89007C38.6766 4.99253 34.3127 4.03043 29.784 4.03043C25.2553 4.03043 20.8913 4.99253 16.8166 6.89018C16.5778 7.00138 16.4251 7.24094 16.4251 7.50435V23.6069C16.4251 26.5753 17.9935 29.2377 21.0867 31.5207C24.0369 33.6982 27.6814 34.9744 29.5912 35.5413C29.6542 35.5601 29.719 35.5694 29.784 35.5694C29.849 35.5694 29.9137 35.5601 29.9767 35.5414C31.8872 34.9745 35.5329 33.6985 38.4843 31.5207C41.5777 29.238 43.1463 26.5753 43.1463 23.6069V7.50435C43.1463 7.24083 42.9935 7.00126 42.7546 6.89007ZM41.7914 23.6068C41.7914 29.9773 32.8492 33.2513 29.7841 34.1843C26.7198 33.2509 17.78 29.9762 17.78 23.6068V7.93963C21.5617 6.2446 25.5981 5.38533 29.784 5.38533C33.97 5.38533 38.0066 6.2446 41.7914 7.93963V23.6068ZM27.939 51.4733H27.3241L27.2616 46.1943C27.24 44.3912 26.5988 42.8469 25.3558 41.604L23.0272 39.2753C22.1889 38.437 21.2634 37.9021 20.1123 37.5912L19.1605 37.3369L13.6193 31.7959C13.0514 31.2279 12.2942 30.9151 11.4874 30.9151C10.9284 30.9151 10.3929 31.0653 9.92806 31.3466L10.1816 24.77C10.2351 23.3674 9.14879 22.5232 8.04815 22.4143C6.92988 22.3039 5.68177 22.9271 5.45611 24.3333L3.80978 34.6857C3.44218 36.9881 4.10799 39.1244 5.6846 40.7009L14.1026 49.119C14.6685 49.6848 14.9267 50.376 14.8699 51.1751L14.8493 51.4732H14.1716C13.7974 51.4732 13.4942 51.7765 13.4942 52.1506V57.0131C13.4942 57.3874 13.7975 57.6906 14.1716 57.6906H27.939C28.3133 57.6906 28.6165 57.3873 28.6165 57.0131V52.1506C28.6165 51.7764 28.3132 51.4732 27.939 51.4732V51.4733ZM15.0606 48.161L6.64263 39.7429C5.36311 38.4633 4.84623 36.7883 5.14772 34.8989L6.79405 24.5471C6.89847 23.8966 7.4628 23.7176 7.91458 23.7628C8.07245 23.7784 8.85872 23.8978 8.82741 24.718L8.47824 33.7734V33.7794C8.43643 34.627 8.75419 35.4571 9.35242 36.06L9.35525 36.0628L14.1888 40.8965C14.3211 41.0288 14.4945 41.0949 14.6678 41.0949C14.8412 41.0949 15.0145 41.0288 15.1468 40.8965C15.4115 40.632 15.4115 40.203 15.1468 39.9384L10.3144 35.1058C9.98173 34.7708 9.80579 34.3085 9.83155 33.8373C9.85551 33.4253 10.0265 33.0406 10.3133 32.7539C10.6253 32.4418 11.0421 32.27 11.487 32.27C11.9319 32.27 12.3489 32.4419 12.6609 32.7539L18.3307 38.4236C18.4149 38.5078 18.5198 38.5683 18.6349 38.5991L19.7605 38.8998C20.6841 39.1492 21.396 39.5606 22.0688 40.2334L24.3974 42.5622C25.3954 43.5601 25.8889 44.7535 25.9065 46.2104L25.9687 51.4733H16.2074L16.2214 51.2698C16.3059 50.0799 15.9045 49.0048 15.0606 48.161ZM27.2616 56.3358H14.8491V52.8282H27.2616V56.3358ZM53.8868 40.701C55.4634 39.1245 56.1292 36.9882 55.7618 34.686L54.112 24.3335C53.8888 22.9286 52.6399 22.3041 51.5233 22.4142C50.4209 22.5223 49.3331 23.3664 49.3866 24.7704L49.6402 31.346C49.1768 31.0657 48.6431 30.9156 48.0847 30.9152H48.082C47.2744 30.9152 46.5168 31.228 45.949 31.796L40.4076 37.3373L39.4579 37.5916C38.3066 37.9016 37.3798 38.4368 36.5411 39.2754L34.2125 41.6041C32.9717 42.8448 32.3314 44.3892 32.3098 46.1941L32.2445 51.4734H31.6324C31.2581 51.4734 30.9549 51.7767 30.9549 52.1509V57.0133C30.9549 57.3876 31.2582 57.6908 31.6324 57.6908H45.3966C45.7709 57.6908 46.0741 57.3875 46.0741 57.0133V52.1509C46.0741 51.7766 45.7708 51.4734 45.3966 51.4734H44.719L44.6983 51.1739C44.6418 50.3783 44.901 49.6871 45.4688 49.1192L53.8868 40.7011V40.701ZM44.7191 56.3358H32.3098V52.8282H44.7191V56.3358ZM44.5107 48.161C43.6649 49.0067 43.2622 50.0818 43.3464 51.2683L43.3606 51.4732H33.5995L33.6646 46.2103C33.682 44.7511 34.1746 43.5577 35.1704 42.562L37.499 40.2333C38.1722 39.5601 38.8849 39.1489 39.809 38.9L40.9333 38.5988C41.0483 38.5681 41.1529 38.5075 41.237 38.4235L46.9068 32.7538C47.2189 32.4417 47.636 32.2699 48.0817 32.2699H48.0833C48.5279 32.2704 48.9434 32.4418 49.2544 32.7539C49.5439 33.0433 49.7148 33.4269 49.7359 33.8344V33.8355V33.8366C49.7619 34.3098 49.5868 34.7716 49.2551 35.1037C49.2548 35.104 49.2544 35.1044 49.254 35.1047L44.4236 39.9384C44.1591 40.2031 44.1593 40.6321 44.4239 40.8965C44.5562 41.0286 44.7295 41.0947 44.9028 41.0947C45.0762 41.0947 45.2497 41.0285 45.3821 40.8962L50.2124 36.0625C50.8126 35.4622 51.1313 34.6309 51.0892 33.7792C51.0892 33.7771 51.0892 33.7752 51.0892 33.7732L50.7401 24.7181C50.7158 24.0813 51.2178 23.8054 51.655 23.7624C51.7553 23.7523 52.6375 23.691 52.7733 24.5462L54.4231 34.8993C54.7246 36.7883 54.2078 38.4632 52.9282 39.7428L44.5102 48.1609L44.5107 48.161ZM23.6675 9.28526V11.8447C23.6675 12.2188 23.9708 12.5221 24.345 12.5221H24.7182V14.9806C24.7182 16.9411 26.382 18.1724 27.8843 18.8853C26.382 19.5976 24.7182 20.8282 24.7182 22.7868V25.2454H24.345C23.9707 25.2454 23.6675 25.5487 23.6675 25.9228V28.4854C23.6675 28.8596 23.9708 29.1628 24.345 29.1628H35.2232C35.5974 29.1628 35.9006 28.8595 35.9006 28.4854V25.9228C35.9006 25.5485 35.5973 25.2454 35.2232 25.2454H34.8499V22.7868C34.8499 20.8282 33.1862 19.5976 31.6837 18.8853C33.1861 18.1725 34.8499 16.9412 34.8499 14.9806V12.5221H35.2232C35.5974 12.5221 35.9006 12.2188 35.9006 11.8447V9.28526C35.9006 8.91111 35.5973 8.60782 35.2232 8.60782H24.345C23.9707 8.60782 23.6675 8.91111 23.6675 9.28526ZM34.5457 27.8079H25.0226V26.6003H34.5457V27.8079ZM33.495 22.7868V25.2454H26.0731V22.7868C26.0731 20.9638 28.7026 19.9383 29.784 19.5941C30.8654 19.9383 33.495 20.9638 33.495 22.7868ZM33.495 14.9806C33.495 16.8061 30.8654 17.8322 29.784 18.1765C28.7026 17.8322 26.0731 16.8061 26.0731 14.9806V12.5221H33.495V14.9806ZM25.0224 9.96271H34.5456V11.1672H25.0224V9.96271Z" fill="#FF8A35"/>
</g>
<defs>
<clipPath id="clip0_2005_3213">
<rect width="57.8571" height="57.8571" fill="white" transform="translate(0.85714 0.285645)"/>
</clipPath>
</defs>
</svg>
