<svg width="22" height="23" viewBox="0 0 22 23" fill="none" xmlns="http://www.w3.org/2000/svg">
<g clip-path="url(#clip0_2051_244)">
<path d="M11 1.41895C8.995 1.42122 7.07277 2.21871 5.65502 3.63646C4.23727 5.05421 3.43977 6.97644 3.4375 8.98145C3.4375 15.4525 10.3125 20.3398 10.6055 20.5443C10.7211 20.6253 10.8589 20.6688 11 20.6688C11.1411 20.6688 11.2789 20.6253 11.3945 20.5443C11.6875 20.3398 18.5625 15.4525 18.5625 8.98145C18.5602 6.97644 17.7627 5.05421 16.345 3.63646C14.9272 2.21871 13.005 1.42122 11 1.41895ZM11 6.23145C11.5439 6.23145 12.0756 6.39273 12.5278 6.6949C12.9801 6.99708 13.3325 7.42657 13.5407 7.92907C13.7488 8.43156 13.8033 8.9845 13.6972 9.51794C13.5911 10.0514 13.3291 10.5414 12.9445 10.926C12.5599 11.3106 12.0699 11.5725 11.5365 11.6786C11.0031 11.7847 10.4501 11.7303 9.94762 11.5221C9.44512 11.314 9.01563 10.9615 8.71346 10.5093C8.41128 10.057 8.25 9.52534 8.25 8.98145C8.25 8.2521 8.53973 7.55263 9.05546 7.0369C9.57118 6.52118 10.2707 6.23145 11 6.23145Z" fill="#FFFFFF"/>
</g>
<defs>
<clipPath id="clip0_2051_244">
<rect width="22" height="22" fill="white" transform="translate(0 0.0439453)"/>
</clipPath>
</defs>
</svg>
