<svg width="16" height="21" viewBox="0 0 16 21" fill="none" xmlns="http://www.w3.org/2000/svg">
<path d="M8 0.918945C5.995 0.92122 4.07277 1.71871 2.65502 3.13646C1.23727 4.55421 0.439775 6.47644 0.4375 8.48145C0.4375 14.9525 7.3125 19.8398 7.60555 20.0443C7.72114 20.1253 7.85886 20.1688 8 20.1688C8.14114 20.1688 8.27886 20.1253 8.39445 20.0443C8.6875 19.8398 15.5625 14.9525 15.5625 8.48145C15.5602 6.47644 14.7627 4.55421 13.345 3.13646C11.9272 1.71871 10.005 0.92122 8 0.918945ZM8 5.73145C8.5439 5.73145 9.07558 5.89273 9.52782 6.1949C9.98005 6.49708 10.3325 6.92657 10.5407 7.42907C10.7488 7.93156 10.8033 8.4845 10.6972 9.01794C10.5911 9.55139 10.3291 10.0414 9.94454 10.426C9.55995 10.8106 9.06995 11.0725 8.5365 11.1786C8.00305 11.2847 7.45012 11.2303 6.94762 11.0221C6.44512 10.814 6.01563 10.4615 5.71346 10.0093C5.41128 9.55703 5.25 9.02534 5.25 8.48145C5.25 7.7521 5.53973 7.05263 6.05546 6.5369C6.57118 6.02118 7.27065 5.73145 8 5.73145Z" fill="white"/>
</svg>
