<svg width="110" height="110" viewBox="0 0 110 110" fill="none" xmlns="http://www.w3.org/2000/svg">
<g clip-path="url(#clip0_2011_2944)">
<g clip-path="url(#clip1_2011_2944)">
<path d="M55.0265 45.5665L6.2168 94.1931L7.88308 95.8531L56.6928 47.2265L55.0265 45.5665Z" fill="#FF8A35"/>
<path fill-rule="evenodd" clip-rule="evenodd" d="M4.71429 82.4187L20.5315 66.5933L28.3074 74.3287L26.6516 75.9895L20.5372 69.9092L6.38135 84.0739L4.71429 82.4187Z" fill="#FF8A35"/>
<path d="M54.9762 45.5731L53.3099 47.2332L101.904 95.6448L103.57 93.9848L54.9762 45.5731Z" fill="#FF8A35"/>
<path fill-rule="evenodd" clip-rule="evenodd" d="M81.6927 73.4617L88.5982 66.5933L105.286 83.2745L103.619 84.9296L88.5982 69.9092L83.3484 75.1225L81.6927 73.4617Z" fill="#FF8A35"/>
<path fill-rule="evenodd" clip-rule="evenodd" d="M39.9146 62.185L45.3339 67.4715L55.0028 58.0471L64.6661 67.4715L70.0854 62.185L71.7355 63.8571L64.6661 70.748L55.0028 61.3237L45.3339 70.748L38.2645 63.8571L39.9146 62.185Z" fill="#FF8A35"/>
</g>
<g clip-path="url(#clip2_2011_2944)">
<path d="M16.2939 28.3628L8.54044 36.2091L10.8515 38.5479L18.605 30.7015L16.2939 28.3628Z" fill="#FF8A35"/>
<path d="M34.1876 0.00535758L26.4341 7.85168L28.7452 10.1904L36.4987 2.34411L34.1876 0.00535758Z" fill="#FF8A35"/>
<path d="M26.4274 52.1524L18.6739 59.9988L20.985 62.3375L28.7385 54.4912L26.4274 52.1524Z" fill="#FF8A35"/>
<path d="M20.985 52.1604L18.6739 54.4991L26.4274 62.3455L28.7385 60.0067L20.985 52.1604Z" fill="#FF8A35"/>
<path d="M10.8515 28.3628L8.54044 30.7015L16.2939 38.5479L18.605 36.2091L10.8515 28.3628Z" fill="#FF8A35"/>
<path d="M28.7452 0.00536035L26.4341 2.34412L34.1876 10.1904L36.4987 7.85169L28.7452 0.00536035Z" fill="#FF8A35"/>
<path d="M44.9199 30.7789L37.1664 38.6252L39.4775 40.964L47.231 33.1177L44.9199 30.7789Z" fill="#FF8A35"/>
<path d="M39.4831 30.7844L37.172 33.1232L44.9255 40.9695L47.2365 38.6307L39.4831 30.7844Z" fill="#FF8A35"/>
<path d="M96.2103 54.3231L88.4569 62.1694L90.768 64.5082L98.5214 56.6619L96.2103 54.3231Z" fill="#FF8A35"/>
<path d="M90.768 54.3152L88.4569 56.6539L96.2103 64.5003L98.5214 62.1615L90.768 54.3152Z" fill="#FF8A35"/>
<path d="M62.2246 6.6483L54.4712 14.4946L56.7822 16.8334L64.5357 8.98706L62.2246 6.6483Z" fill="#FF8A35"/>
<path d="M86.9721 16.5976L79.2187 24.444L81.5297 26.7827L89.2832 18.9364L86.9721 16.5976Z" fill="#FF8A35"/>
<path d="M56.7822 6.64037L54.4712 8.97913L62.2246 16.8255L64.5357 14.4867L56.7822 6.64037Z" fill="#FF8A35"/>
<path d="M81.5219 16.5976L79.2108 18.9364L86.9643 26.7827L89.2754 24.444L81.5219 16.5976Z" fill="#FF8A35"/>
<path d="M78.6215 38.6406L70.868 46.4869L73.1791 48.8257L80.9326 40.9794L78.6215 38.6406Z" fill="#FF8A35"/>
<path d="M73.1791 38.6327L70.868 40.9714L78.6215 48.8178L80.9326 46.479L73.1791 38.6327Z" fill="#FF8A35"/>
</g>
</g>
<defs>
<clipPath id="clip0_2011_2944">
<rect width="110" height="110" fill="white"/>
</clipPath>
<clipPath id="clip1_2011_2944">
<rect width="100.571" height="50.2857" fill="white" transform="translate(4.71429 45.5714)"/>
</clipPath>
<clipPath id="clip2_2011_2944">
<rect width="133.571" height="77.7857" fill="white" transform="translate(-13.3571)"/>
</clipPath>
</defs>
</svg>
