<svg width="60" height="60" viewBox="0 0 60 60" fill="none" xmlns="http://www.w3.org/2000/svg">
<g clip-path="url(#clip0_2005_3224)">
<path d="M23.2045 21.1828C22.7538 21.1828 22.3884 20.8175 22.3884 20.3667V19.0609C22.4258 17.9802 23.9835 17.9811 24.0206 19.0609V20.3667C24.0206 20.8174 23.6552 21.1828 23.2045 21.1828Z" fill="#FF8A35"/>
<path d="M36.7954 21.1828C36.3445 21.1828 35.9792 20.8175 35.9792 20.3667V19.0609C36.0167 17.9802 37.5745 17.9811 37.6115 19.0609V20.3667C37.6115 20.8174 37.2462 21.1828 36.7954 21.1828Z" fill="#FF8A35"/>
<path d="M30 21.9602C29.0774 21.9602 28.2001 21.5606 27.5931 20.8641C27.297 20.5243 27.3323 20.0088 27.6722 19.7126C28.0121 19.4165 28.5275 19.4519 28.8237 19.7917C29.4129 20.5001 30.587 20.5 31.1763 19.7918C31.4723 19.4518 31.988 19.4165 32.3277 19.7126C32.6675 20.0087 32.703 20.5243 32.4069 20.864C31.7998 21.5606 30.9225 21.9602 30 21.9602Z" fill="#FF8A35"/>
<path d="M56.3881 41.0376V35.2746C56.3881 34.4135 55.8137 33.6841 55.0279 33.4495V21.9238C55.6707 21.6176 56.1161 20.9615 56.1161 20.2034V19.409C56.1161 18.6646 55.6826 17.9992 55.0279 17.6885V13.8542C57.1723 12.7774 56.651 9.56818 54.2631 9.23412L53.602 7.25114C53.3428 6.47191 52.6165 5.94828 51.795 5.94828H49.5621L51.4 4.723C52.2783 4.09241 51.4136 2.79683 50.4946 3.36496L48.4989 4.69547V2.95592C48.4615 1.87526 46.9037 1.87613 46.8667 2.95592V4.69547L44.871 3.36496C44.4961 3.1149 43.9892 3.21621 43.7393 3.5913C43.4892 3.96629 43.5906 4.47305 43.9656 4.723L45.8035 5.94828H43.5706C42.7489 5.94828 42.0227 6.47191 41.7637 7.2506L41.1025 9.23412C38.7129 9.56895 38.1946 12.7785 40.3376 13.8542V14.6536H19.6624V13.8542C21.8068 12.7774 21.2855 9.56818 18.8975 9.23412L18.2365 7.25114C17.9773 6.47191 17.251 5.94828 16.4295 5.94828H14.1965L16.0345 4.723C16.9128 4.09241 16.0481 2.79683 15.1291 3.36496L13.1334 4.69547V2.95592C13.096 1.87526 11.5381 1.87613 11.5011 2.95592V4.69547L9.50544 3.36496C9.13057 3.1149 8.6237 3.21621 8.37374 3.5913C8.12368 3.96629 8.2251 4.47305 8.60008 4.723L10.438 5.94828H8.20508C7.3834 5.94828 6.65716 6.47191 6.39817 7.2506L5.737 9.23412C3.34738 9.56906 2.82908 12.7785 4.97212 13.8543V17.6885C4.31748 17.9992 3.88395 18.6645 3.88395 19.409V20.2034C3.88395 20.9615 4.32934 21.6176 4.97212 21.9238V26.4658C5.00956 27.5465 6.56727 27.5456 6.60438 26.4658V22.1077H18.0302V33.3703H15.3097V26.7324C15.3097 25.9334 14.9984 25.1821 14.433 24.6167C12.5839 22.7362 9.30761 24.0951 9.3248 26.7324V33.3703H6.60438V30.2744C6.56695 29.1938 5.00923 29.1946 4.97212 30.2744V33.4494C4.18636 33.684 3.61191 34.4135 3.61191 35.2745V41.0375C2.77097 41.235 2.14288 41.9914 2.14288 42.8917V55.9498C2.14288 56.9998 2.99721 57.8541 4.04718 57.8541H55.9529C57.0028 57.8541 57.8572 56.9998 57.8572 55.9498V42.8917C57.8572 41.9914 57.2291 41.235 56.3881 41.0376ZM43.3123 7.76639C43.3493 7.65529 43.4531 7.58064 43.5706 7.58064H51.795C51.9125 7.58064 52.0163 7.65529 52.0534 7.76694L52.5354 9.2129H42.8301L43.3123 7.76639ZM41.4258 10.8452H53.9398C55.0202 10.8836 55.0194 12.4393 53.9398 12.4774H41.4258C40.3454 12.439 40.3461 10.8831 41.4258 10.8452ZM50.1312 38.8111C49.6803 38.8111 49.315 39.1764 49.315 39.6272V40.9875H40.6097V35.2746C40.6097 35.1245 40.7317 35.0025 40.8817 35.0025H54.4838C54.6339 35.0025 54.7559 35.1245 54.7559 35.2746V40.9875H50.9473V39.6272C50.9473 39.1764 50.582 38.8111 50.1312 38.8111ZM49.7985 24.6166C47.9494 22.7361 44.6731 24.0951 44.6903 26.7323V33.3702H41.9699V22.1076H53.3957V33.3702H50.6753V26.7323C50.6753 25.9334 50.3639 25.1821 49.7985 24.6166ZM49.043 26.7324V33.3703H46.3226V26.7324C46.3148 25.5334 47.8042 24.9161 48.6443 25.7709C48.9014 26.0279 49.043 26.3694 49.043 26.7324ZM41.1538 20.4755C41.0037 20.4755 40.8817 20.3535 40.8817 20.2034V19.409C40.8817 19.2858 40.9651 19.1776 41.0842 19.146L47.335 17.494C47.5625 17.4339 47.8028 17.4339 48.0303 17.494L54.2811 19.146C54.4005 19.1776 54.4837 19.2858 54.4837 19.409V20.2034C54.4837 20.3535 54.3618 20.4755 54.2117 20.4755H41.1538ZM53.3957 17.2237L48.4472 15.9159C47.9471 15.7837 47.4182 15.7836 46.9181 15.9159L41.9699 17.2237V14.1097H53.3957V17.2237ZM40.3376 16.286V17.6885C39.683 17.9992 39.2495 18.6645 39.2495 19.409V20.2034C39.2495 20.9615 39.6949 21.6176 40.3376 21.9238V33.4494C39.5519 33.684 38.9774 34.4135 38.9774 35.2745V40.9873H37.3452V33.405C37.3077 32.3243 35.7499 32.3252 35.7129 33.405V40.9873H34.0807V36.7141C34.0807 35.956 33.6353 35.2999 32.9925 34.9937V25.8073C32.9848 24.6082 34.4741 23.9909 35.3142 24.8458C35.5713 25.1028 35.7129 25.4443 35.7129 25.8073V29.5963C35.7504 30.6769 37.3082 30.6761 37.3452 29.5963V25.8073C37.3452 25.0082 37.0338 24.257 36.4684 23.6915C34.6193 21.8111 31.343 23.1701 31.3602 25.8073V34.8097H28.6398V25.8073C28.6398 25.0083 28.3285 24.257 27.7631 23.6915C25.9139 21.8111 22.6376 23.1701 22.6549 25.8073V40.9872H21.0226V35.2743C21.0226 34.4133 20.4482 33.6839 19.6624 33.4493V21.9238C20.3052 21.6176 20.7506 20.9615 20.7506 20.2034V19.409C20.7506 18.6646 20.3171 17.9992 19.6624 17.6885V16.2859H40.3376V16.286ZM32.4484 36.7142V44.252H27.5516V36.7142C27.5516 36.5642 27.6737 36.4422 27.8237 36.4422H32.1764C32.3264 36.4422 32.4484 36.5642 32.4484 36.7142ZM27.0076 25.8075V34.9939C26.3648 35.3001 25.9194 35.9562 25.9194 36.7143V40.9876H24.2871V25.8076C24.2794 24.6084 25.7687 23.9913 26.6089 24.846C26.866 25.103 27.0076 25.4445 27.0076 25.8075ZM18.0302 17.2237L13.0817 15.9159C12.5816 15.7837 12.0527 15.7836 11.5526 15.9159L6.60438 17.2237V14.1097H18.0302V17.2237ZM7.94674 7.76639C7.98374 7.65529 8.08755 7.58064 8.20508 7.58064H16.4295C16.547 7.58064 16.6508 7.65529 16.6879 7.76694L17.1699 9.2129H7.46469L7.94674 7.76639ZM5.24417 11.6613C5.24417 11.2112 5.61023 10.8452 6.06029 10.8452H18.5742C19.6547 10.8836 19.6539 12.4393 18.5742 12.4774H6.06029C5.61023 12.4774 5.24417 12.1112 5.24417 11.6613ZM5.78825 20.4755C5.63819 20.4755 5.51621 20.3535 5.51621 20.2034V19.409C5.51621 19.2858 5.59956 19.1776 5.71872 19.146L11.9695 17.494C12.197 17.4339 12.4373 17.4339 12.6648 17.494L18.9156 19.146C19.035 19.1776 19.1182 19.2858 19.1182 19.409V20.2034C19.1182 20.3535 18.9962 20.4755 18.8462 20.4755H5.78825ZM10.9571 26.7324C10.9493 25.5334 12.4387 24.9161 13.2788 25.7709C13.5359 26.0279 13.6775 26.3694 13.6775 26.7324V33.3703H10.9571V26.7324ZM5.24417 35.2746C5.24417 35.1245 5.36615 35.0025 5.51621 35.0025H19.1183C19.2684 35.0025 19.3904 35.1245 19.3904 35.2746V40.9875H10.685V39.6272C10.6476 38.5466 9.08976 38.5474 9.05276 39.6272V40.9875H5.24417V35.2746ZM6.33234 56.2218H4.04718C3.89723 56.2218 3.77514 56.0998 3.77514 55.9498V42.8917C3.77514 42.7417 3.89723 42.6197 4.04718 42.6197H9.05276V44.252H7.31169C6.26171 44.252 5.40739 45.1063 5.40739 46.1563V47.2444C5.40739 47.9365 5.77857 48.5436 6.33234 48.877V56.2218ZM11.7732 56.2218H7.96459V49.1487H11.7732V56.2218ZM12.6981 47.2444C12.6981 47.3945 12.5761 47.5165 12.4261 47.5165H7.31169C7.16163 47.5165 7.03965 47.3945 7.03965 47.2444V46.1563C7.03965 46.0062 7.16163 45.8842 7.31169 45.8842H12.4261C12.5761 45.8842 12.6981 46.0062 12.6981 46.1563V47.2444ZM15.8453 56.2218H13.4054V48.877C13.9592 48.5436 14.3304 47.9365 14.3304 47.2444V46.1563C14.3304 45.1063 13.4761 44.252 12.4261 44.252H10.685V42.6197H25.9194V44.252H22.3828C21.3329 44.252 20.4785 45.1063 20.4785 46.1563V50.781H20.0476C18.8173 50.781 17.7268 51.5191 17.2691 52.6619L15.8453 56.2218ZM17.6033 56.2218L18.7845 53.2683C18.9925 52.7489 19.4883 52.4132 20.0475 52.4132H25.1608C26.2415 52.3758 26.2406 50.8181 25.1608 50.781H22.1108V46.1563C22.1108 46.0062 22.2329 45.8842 22.3828 45.8842H37.6172C37.7673 45.8842 37.8893 46.0062 37.8893 46.1563V50.781H28.9695C27.8889 50.8184 27.8897 52.3761 28.9695 52.4132H39.9524C40.5117 52.4132 41.0074 52.7489 41.2154 53.268L42.3967 56.2218H17.6033ZM46.5946 56.2218H44.1547L42.7307 52.6614C42.2733 51.5191 41.1826 50.781 39.9524 50.781H39.5215V46.1563C39.5215 45.1063 38.6672 44.252 37.6172 44.252H34.0807V42.6197H49.315V44.252H47.574C46.524 44.252 45.6697 45.1063 45.6697 46.1563V47.2444C45.6697 47.9365 46.0408 48.5436 46.5946 48.877V56.2218ZM52.0355 56.2218H48.2269V49.1487H52.0355V56.2218ZM52.9604 47.2444C52.9604 47.3945 52.8384 47.5165 52.6884 47.5165H47.574C47.4239 47.5165 47.3019 47.3945 47.3019 47.2444V46.1563C47.3019 46.0062 47.4239 45.8842 47.574 45.8842H52.6884C52.8384 45.8842 52.9604 46.0062 52.9604 46.1563V47.2444ZM56.2249 55.9498C56.2249 56.0998 56.1029 56.2218 55.9529 56.2218H53.6677V48.877C54.2215 48.5436 54.5927 47.9365 54.5927 47.2444V46.1563C54.5927 45.1063 53.7383 44.252 52.6884 44.252H50.9473V42.6197H55.9529C56.1029 42.6197 56.2249 42.7417 56.2249 42.8917V55.9498Z" fill="#FF8A35"/>
</g>
<defs>
<clipPath id="clip0_2005_3224">
<rect width="55.7143" height="55.7143" fill="white" transform="translate(2.14288 2.14282)"/>
</clipPath>
</defs>
</svg>
