<svg width="80" height="80" viewBox="0 0 80 80" fill="none" xmlns="http://www.w3.org/2000/svg">
<rect x="0.5" y="0.5" width="79" height="79" rx="9.5" fill="url(#paint0_linear_2002_3085)"/>
<rect x="0.5" y="0.5" width="79" height="79" rx="9.5" stroke="url(#paint1_linear_2002_3085)"/>
<g clip-path="url(#clip0_2002_3085)">
<path fill-rule="evenodd" clip-rule="evenodd" d="M52.8523 57.4024V61.1345C52.8523 61.716 53.0831 62.274 53.4941 62.6853C53.9052 63.0966 54.4623 63.3276 55.0438 63.3276H55.6195C56.201 63.3276 56.7581 63.0966 57.1691 62.6853C57.5802 62.274 57.811 61.716 57.811 61.1345V57.4024C57.811 56.9989 57.4838 56.6714 57.0805 56.6714C56.6773 56.6714 56.35 56.9989 56.35 57.4024V61.1345C56.35 61.3285 56.273 61.5142 56.1362 61.6516C55.9993 61.7886 55.8133 61.8656 55.6195 61.8656H55.0438C54.85 61.8656 54.664 61.7886 54.5271 61.6516C54.3903 61.5142 54.3133 61.3285 54.3133 61.1345V57.4024C54.3133 56.9989 53.986 56.6714 53.5828 56.6714C53.1795 56.6714 52.8523 56.9989 52.8523 57.4024Z" fill="white"/>
<path fill-rule="evenodd" clip-rule="evenodd" d="M44.1124 20.9835V29.2811C44.1124 29.6851 44.4392 30.0121 44.8429 30.0121H54.5253C54.9285 30.0121 55.2558 29.6851 55.2558 29.2811V20.9835C55.2558 20.5799 54.9285 20.2524 54.5253 20.2524C54.122 20.2524 53.7947 20.5799 53.7947 20.9835V28.5501H45.5735V20.9835C45.5735 20.5799 45.2462 20.2524 44.8429 20.2524C44.4397 20.2524 44.1124 20.5799 44.1124 20.9835Z" fill="white"/>
<path fill-rule="evenodd" clip-rule="evenodd" d="M56.4868 19.7321V18.735C56.4868 17.793 55.7237 17.0293 54.7823 17.0293C52.5065 17.0293 46.861 17.0293 44.5852 17.0293C43.6443 17.0293 42.8812 17.793 42.8807 18.735V19.7321C42.8812 20.6742 43.6443 21.4379 44.5852 21.4379H54.7823C55.7237 21.4379 56.4868 20.6742 56.4868 19.7321ZM55.0258 18.735V19.7321C55.0258 19.8671 54.9167 19.9758 54.7823 19.9758C52.5065 19.9758 46.861 19.9758 44.5852 19.9758C44.4508 19.9758 44.3422 19.8671 44.3417 19.7321V18.735C44.3422 18.6005 44.4508 18.4914 44.5852 18.4914H54.7823C54.9167 18.4914 55.0258 18.6005 55.0258 18.735Z" fill="white"/>
<path fill-rule="evenodd" clip-rule="evenodd" d="M61.1402 54.3828V32.8556C61.1402 31.7137 60.6868 30.6186 59.8799 29.8116C59.0734 29.004 57.979 28.5503 56.838 28.5503H42.5295C41.389 28.5503 40.2946 29.004 39.4877 29.8116C38.6812 30.6186 38.2278 31.7137 38.2278 32.8556V40.4714C38.2278 40.8749 38.555 41.2024 38.9583 41.2024C39.3615 41.2024 39.6888 40.8749 39.6888 40.4714V32.8556C39.6888 32.1016 39.9883 31.3784 40.5211 30.8452C41.0534 30.3121 41.7761 30.0123 42.5295 30.0123H56.838C57.5914 30.0123 58.3141 30.3121 58.8469 30.8452C59.3797 31.3784 59.6792 32.1016 59.6792 32.8556V54.3828C59.6792 54.7864 60.0065 55.1139 60.4097 55.1139C60.8125 55.1139 61.1402 54.7864 61.1402 54.3828Z" fill="white"/>
<path fill-rule="evenodd" clip-rule="evenodd" d="M55.7344 33.5826V51.1433C55.7344 51.5468 56.0622 51.8743 56.4649 51.8743C56.8682 51.8743 57.1954 51.5468 57.1954 51.1433V33.5826C57.1954 33.1795 56.8682 32.8516 56.4649 32.8516C56.0622 32.8516 55.7344 33.1795 55.7344 33.5826Z" fill="white"/>
<path fill-rule="evenodd" clip-rule="evenodd" d="M48.9532 33.5826V48.479C48.9532 48.8825 49.2805 49.21 49.6838 49.21C50.087 49.21 50.4143 48.8825 50.4143 48.479V33.5826C50.4143 33.1795 50.087 32.8516 49.6838 32.8516C49.2805 32.8516 48.9532 33.1795 48.9532 33.5826Z" fill="white"/>
<path fill-rule="evenodd" clip-rule="evenodd" d="M42.1721 33.5826V40.4713C42.1721 40.8748 42.4994 41.2023 42.9026 41.2023C43.3059 41.2023 43.6331 40.8748 43.6331 40.4713V33.5826C43.6331 33.1795 43.3059 32.8516 42.9026 32.8516C42.4994 32.8516 42.1721 33.1795 42.1721 33.5826Z" fill="white"/>
<path fill-rule="evenodd" clip-rule="evenodd" d="M48.8223 58.1336H58.9487C59.5297 58.1336 60.0874 57.9026 60.4984 57.4913C60.9089 57.08 61.1403 56.522 61.1403 55.9406C61.1403 54.1534 61.1403 51.3638 61.1403 51.3638C61.1403 50.9603 60.813 50.6328 60.4098 50.6328H48.8223C48.419 50.6328 48.0917 50.9603 48.0917 51.3638C48.0917 51.7674 48.419 52.0949 48.8223 52.0949H59.6792V55.9406C59.6792 56.1345 59.6023 56.3202 59.465 56.4576C59.3281 56.5946 59.1421 56.6716 58.9487 56.6716H48.8223C48.419 56.6716 48.0917 56.9991 48.0917 57.4026C48.0917 57.8061 48.419 58.1336 48.8223 58.1336Z" fill="white"/>
<path fill-rule="evenodd" clip-rule="evenodd" d="M46.9716 45.1906C46.9716 43.9796 45.9907 42.9976 44.78 42.9976C40.1295 42.9976 25.7023 42.9976 21.0513 42.9976C19.8411 42.9976 18.8597 43.9796 18.8597 45.1906V61.1348C18.8597 62.3459 19.8411 63.3279 21.0513 63.3279H44.78C45.9907 63.3279 46.9716 62.3459 46.9716 61.1348V45.1906ZM45.5106 45.1906V61.1348C45.5106 61.5384 45.1838 61.8659 44.78 61.8659H21.0513C20.6481 61.8659 20.3208 61.5384 20.3208 61.1348V45.1906C20.3208 44.7871 20.6481 44.4596 21.0513 44.4596H44.78C45.1838 44.4596 45.5106 44.7871 45.5106 45.1906Z" fill="white"/>
<path fill-rule="evenodd" clip-rule="evenodd" d="M25.45 62.9552C27.6591 59.0335 27.6713 55.2502 27.7497 51.6653C27.7585 51.2617 27.4385 50.9269 27.0357 50.9181C26.6325 50.9094 26.2979 51.2296 26.2891 51.6331C26.2156 54.9973 26.2502 58.5569 24.1774 62.2379C23.9792 62.5892 24.1039 63.0352 24.455 63.2335C24.8062 63.4314 25.2523 63.3071 25.45 62.9552Z" fill="white"/>
<path fill-rule="evenodd" clip-rule="evenodd" d="M41.6529 62.1331C39.5812 58.4887 39.6162 54.9641 39.5427 51.6326C39.5334 51.2296 39.1993 50.9094 38.7961 50.9181C38.3928 50.9269 38.0729 51.2617 38.0821 51.6653C38.1605 55.2185 38.1732 58.9687 40.3833 62.8558C40.5825 63.2067 41.0291 63.3295 41.3792 63.1297C41.7299 62.9304 41.8526 62.4835 41.6529 62.1331Z" fill="white"/>
<path fill-rule="evenodd" clip-rule="evenodd" d="M37.6993 43.5248L37.0053 41.128C36.794 40.3989 36.1268 39.8975 35.368 39.8975H30.4638C29.705 39.8975 29.0378 40.3989 28.8264 41.128L28.132 43.5248C28.02 43.9127 28.243 44.3182 28.6302 44.4308C29.0178 44.5429 29.423 44.3197 29.5355 43.9322L30.2295 41.5354C30.2597 41.4312 30.3552 41.3595 30.4638 41.3595H35.368C35.4766 41.3595 35.5716 41.4312 35.6018 41.5354L36.2963 43.9322C36.4088 44.3197 36.8139 44.5429 37.2011 44.4308C37.5888 44.3182 37.8118 43.9127 37.6993 43.5248Z" fill="white"/>
<path fill-rule="evenodd" clip-rule="evenodd" d="M21.9401 51.7472C22.5011 51.9714 23.1128 52.0947 23.7537 52.0947H42.0781C44.781 52.0947 46.9716 49.9021 46.9716 47.1978C46.9716 46.7943 46.6443 46.4668 46.2411 46.4668C45.8383 46.4668 45.5105 46.7943 45.5105 47.1978C45.5105 49.0946 43.974 50.6327 42.0781 50.6327H23.7537C23.3042 50.6327 22.8752 50.5464 22.4816 50.3895C22.1071 50.2399 21.682 50.4226 21.5325 50.7974C21.3829 51.1722 21.5656 51.5976 21.9401 51.7472Z" fill="white"/>
</g>
<defs>
<linearGradient id="paint0_linear_2002_3085" x1="12" y1="5.6" x2="67.6" y2="80" gradientUnits="userSpaceOnUse">
<stop stop-color="#FFB987"/>
<stop offset="0.515" stop-color="#FF8A35"/>
<stop offset="1" stop-color="#FF8A35"/>
</linearGradient>
<linearGradient id="paint1_linear_2002_3085" x1="12" y1="5.6" x2="67.6" y2="80" gradientUnits="userSpaceOnUse">
<stop stop-color="#FFC79F"/>
<stop offset="0.515" stop-color="#FF914F"/>
<stop offset="1" stop-color="#FB8129"/>
</linearGradient>
<clipPath id="clip0_2002_3085">
<rect width="42.8571" height="46.7857" fill="white" transform="translate(18.5714 16.7856)"/>
</clipPath>
</defs>
</svg>
