<svg width="80" height="80" viewBox="0 0 80 80" fill="none" xmlns="http://www.w3.org/2000/svg">
<rect x="0.5" y="0.5" width="79" height="79" rx="9.5" fill="url(#paint0_linear_2002_3053)"/>
<rect x="0.5" y="0.5" width="79" height="79" rx="9.5" stroke="url(#paint1_linear_2002_3053)"/>
<g clip-path="url(#clip0_2002_3053)">
<path fill-rule="evenodd" clip-rule="evenodd" d="M44.9921 60.602V63.2176C44.9921 63.6516 45.3421 64.0037 45.7734 64.0037C46.2046 64.0037 46.5546 63.6516 46.5546 63.2176V60.602C46.5546 60.1686 46.2046 59.8159 45.7734 59.8159C45.3421 59.8159 44.9921 60.1686 44.9921 60.602ZM48.8484 63.2176V60.602C48.8484 60.1686 48.4984 59.8159 48.0671 59.8159C47.6359 59.8159 47.2859 60.1686 47.2859 60.602V63.2176C47.2859 63.6516 47.6359 64.0037 48.0671 64.0037C48.4984 64.0037 48.8484 63.6516 48.8484 63.2176Z" fill="white"/>
<path fill-rule="evenodd" clip-rule="evenodd" d="M43.5218 63.2176V60.602C43.5218 60.1686 43.1718 59.8159 42.7406 59.8159C42.3093 59.8159 41.9593 60.1686 41.9593 60.602V63.2176C41.9593 63.6516 42.3093 64.0037 42.7406 64.0037C43.1718 64.0037 43.5218 63.6516 43.5218 63.2176ZM39.6656 60.602V63.2176C39.6656 63.6516 40.0156 64.0037 40.4468 64.0037C40.8781 64.0037 41.2281 63.6516 41.2281 63.2176V60.602C41.2281 60.1686 40.8781 59.8159 40.4468 59.8159C40.0156 59.8159 39.6656 60.1686 39.6656 60.602Z" fill="white"/>
<path fill-rule="evenodd" clip-rule="evenodd" d="M47.4624 46.3664V42.8022C47.4624 42.3683 47.1124 42.0161 46.6812 42.0161C46.2499 42.0161 45.8999 42.3683 45.8999 42.8022V46.3664C45.8999 46.8003 46.2499 47.1525 46.6812 47.1525C47.1124 47.1525 47.4624 46.8003 47.4624 46.3664ZM41.0515 44.8209V46.3664C41.0515 46.8003 41.4015 47.1525 41.8328 47.1525C42.264 47.1525 42.614 46.8003 42.614 46.3664V44.8209C42.614 44.3875 42.264 44.0348 41.8328 44.0348C41.4015 44.0348 41.0515 44.3875 41.0515 44.8209Z" fill="white"/>
<path fill-rule="evenodd" clip-rule="evenodd" d="M43.1406 41.0834H46.6765C46.7453 41.0834 46.8119 41.1112 46.8604 41.1605C46.9093 41.2092 46.9369 41.2763 46.9369 41.3455V41.4225C46.9369 41.4917 46.9093 41.5582 46.8604 41.6075C46.8119 41.6568 46.7453 41.6845 46.6765 41.6845H41.8375C41.4062 41.6845 41.0562 42.0367 41.0562 42.4706C41.0562 42.9041 41.4062 43.2567 41.8375 43.2567H46.6765C47.1599 43.2567 47.6234 43.0634 47.9656 42.7191C48.3073 42.3753 48.4994 41.9088 48.4994 41.4225C48.4994 41.3968 48.4994 41.3711 48.4994 41.3455C48.4994 40.8591 48.3073 40.3927 47.9656 40.0484C47.6234 39.7046 47.1599 39.5112 46.6765 39.5112H43.1406C42.7093 39.5112 42.3593 39.8634 42.3593 40.2973C42.3593 40.7313 42.7093 41.0834 43.1406 41.0834Z" fill="white"/>
<path fill-rule="evenodd" clip-rule="evenodd" d="M50.4088 48.243C50.4088 47.557 50.1385 46.8993 49.6562 46.4145C49.1744 45.9297 48.5208 45.6572 47.8395 45.6572H40.6744C39.9932 45.6572 39.3395 45.9297 38.8577 46.4145C38.3754 46.8993 38.1046 47.557 38.1046 48.243V56.9871C38.1046 57.4215 38.4546 57.7732 38.8859 57.7732H49.6275C50.0593 57.7732 50.4088 57.4215 50.4088 56.9871V48.243ZM48.8463 48.2425V56.201H39.6671V48.243C39.6671 47.9741 39.7734 47.7163 39.9624 47.5261C40.151 47.3363 40.4072 47.2294 40.6744 47.2294H47.8395C48.1067 47.2294 48.3624 47.3363 48.5515 47.5261C48.7406 47.7163 48.8463 47.9741 48.8463 48.2425Z" fill="white"/>
<path fill-rule="evenodd" clip-rule="evenodd" d="M38.1046 56.9868V59.0296C38.1046 59.6553 38.352 60.2549 38.7916 60.6972C39.2307 61.1395 39.827 61.3879 40.4489 61.3879H48.065C48.6869 61.3879 49.2827 61.1395 49.7223 60.6972C50.1619 60.2549 50.4088 59.6553 50.4088 59.0296V56.9868C50.4088 56.5534 50.0588 56.2007 49.6275 56.2007C49.1963 56.2007 48.8463 56.5534 48.8463 56.9868V59.0296C48.8463 59.2382 48.764 59.4384 48.6176 59.5856C48.4713 59.7329 48.2723 59.8157 48.065 59.8157H40.4484C40.2416 59.8157 40.0426 59.7329 39.8963 59.5856C39.7499 59.4384 39.6671 59.2382 39.6671 59.0296V56.9868C39.6671 56.5534 39.3171 56.2007 38.8859 56.2007C38.4551 56.2007 38.1046 56.5534 38.1046 56.9868Z" fill="white"/>
<path fill-rule="evenodd" clip-rule="evenodd" d="M33.4838 24.4576C32.8911 25.6991 31.6296 26.557 30.1703 26.557C28.1432 26.557 26.4968 24.9009 26.4968 22.8607C26.4968 20.8205 28.1432 19.1645 30.1703 19.1645C31.9812 19.1645 33.488 20.4857 33.789 22.2214C33.863 22.649 34.2682 22.9357 34.6927 22.8607C35.1177 22.7863 35.4026 22.3786 35.3281 21.9515C34.8994 19.4768 32.752 17.5923 30.1703 17.5923C27.2807 17.5923 24.9343 19.9532 24.9343 22.8607C24.9343 25.7683 27.2807 28.1292 30.1703 28.1292C32.2494 28.1292 34.0473 26.9071 34.8921 25.1389C35.0786 24.7474 34.9151 24.2773 34.5265 24.0897C34.1375 23.9015 33.6703 24.0666 33.4838 24.4576Z" fill="white"/>
<path fill-rule="evenodd" clip-rule="evenodd" d="M30.8416 23.8627C30.3307 24.13 29.8198 24.1148 29.3083 23.8575C28.9229 23.6636 28.4531 23.8208 28.2604 24.2086C28.0671 24.5969 28.2239 25.0697 28.6093 25.2636C29.5937 25.7588 30.5776 25.7724 31.5614 25.2583C31.9442 25.0581 32.0937 24.5833 31.8948 24.1981C31.6963 23.8135 31.2244 23.6631 30.8416 23.8627Z" fill="white"/>
<path fill-rule="evenodd" clip-rule="evenodd" d="M35.4479 38.2091L39.3947 42.3063C40.4083 43.3586 42.0807 43.3848 43.1265 42.3644C44.1723 41.3446 44.1984 39.6618 43.1848 38.6095L36.1916 31.3496C35.4312 30.5598 34.0281 30.0929 32.3562 29.9142C29.0765 29.563 24.7208 30.2066 23.2135 30.4597L20.3281 25.5151C19.5906 24.2511 17.9718 23.8276 16.7156 24.5697C15.4598 25.3118 15.039 26.9406 15.7765 28.2046L19.475 34.5422C19.9489 35.3545 20.8151 35.8534 21.751 35.8534H24.7187C24.7479 37.8124 24.6401 42.2927 24.6276 42.7821L22.2489 60.3363C21.9765 62.0584 23.1411 63.6815 24.8531 63.9624C26.5687 64.2433 28.1885 63.0699 28.4677 61.3441C28.4687 61.3383 28.4697 61.3321 28.4703 61.3263L29.5671 53.437L30.3458 60.7582C30.4463 62.4934 31.9218 63.8266 33.6505 63.7381C35.3859 63.6484 36.7234 62.158 36.6348 60.4113L35.7406 42.8052C35.725 42.4965 35.6036 40.6078 35.4479 38.2091ZM22.1406 31.7264C22.2812 31.9669 22.5375 32.1142 22.8145 32.1142C22.8145 32.1142 22.9666 32.0979 23.2411 32.0497C24.4036 31.8464 28.8739 31.1221 32.1911 31.4775C33.4307 31.61 34.5057 31.8585 35.0697 32.4438L42.063 39.7038C42.4765 40.133 42.4656 40.8195 42.039 41.2356C41.6125 41.6517 40.9302 41.6412 40.5166 41.212L35.0916 35.5793C34.8635 35.343 34.513 35.2743 34.2135 35.408C33.914 35.5416 33.7296 35.8492 33.751 36.1778L33.8026 36.9776C33.9968 39.9716 34.1619 42.5227 34.1802 42.8854L35.0744 60.4914C35.1187 61.3719 34.4453 62.1229 33.5703 62.1674C32.6958 62.2125 31.9494 61.5349 31.9046 60.6544C31.9041 60.6398 31.9031 60.6256 31.9015 60.6109L30.4473 46.9354C30.4057 46.5407 30.0781 46.2394 29.6833 46.2326C29.289 46.2263 28.9515 46.5166 28.8968 46.9097L26.9244 61.0978C26.7807 61.9641 25.9666 62.5516 25.1041 62.4106C24.2401 62.2686 23.6526 61.4474 23.7932 60.5779C23.7942 60.5711 23.7953 60.5643 23.7963 60.5575L26.1817 42.9514C26.1859 42.9226 26.188 42.8938 26.1885 42.8649C26.1885 42.8649 26.3494 36.2234 26.2505 35.0034C26.2177 34.5951 25.8791 34.2812 25.4718 34.2812H21.751C21.3692 34.2812 21.0161 34.0779 20.8223 33.7461L17.1239 27.4086C16.8229 26.8929 16.9947 26.2284 17.5067 25.9255C18.0192 25.6231 18.6796 25.7955 18.9807 26.3112L22.1406 31.7264Z" fill="white"/>
<path fill-rule="evenodd" clip-rule="evenodd" d="M35.5098 52.8745H32.9109C32.4796 52.8745 32.1296 53.2267 32.1296 53.6606C32.1296 54.0945 32.4796 54.4467 32.9109 54.4467H35.5098C35.9406 54.4467 36.2911 54.0945 36.2911 53.6606C36.2911 53.2267 35.9406 52.8745 35.5098 52.8745ZM28.5973 52.8745H23.9421C23.5109 52.8745 23.1609 53.2267 23.1609 53.6606C23.1609 54.0945 23.5109 54.4467 23.9421 54.4467H28.5973C29.0286 54.4467 29.3786 54.0945 29.3786 53.6606C29.3786 53.2267 29.0286 52.8745 28.5973 52.8745Z" fill="white"/>
<path fill-rule="evenodd" clip-rule="evenodd" d="M38.2349 21.3003H22.1057C21.6745 21.3003 21.3245 21.6525 21.3245 22.0864C21.3245 22.5198 21.6745 22.8725 22.1057 22.8725H38.2349C38.6661 22.8725 39.0161 22.5198 39.0161 22.0864C39.0161 21.6525 38.6661 21.3003 38.2349 21.3003Z" fill="white"/>
<path fill-rule="evenodd" clip-rule="evenodd" d="M26.3791 31.5607C26.3791 31.5607 27.5671 32.7561 28.377 33.571C29.089 34.2874 30.2432 34.2874 30.9552 33.571L32.7307 31.784C33.0359 31.4774 33.0359 30.9795 32.7307 30.6724C32.426 30.3658 31.9307 30.3658 31.626 30.6724L29.8499 32.4595C29.7484 32.5617 29.5833 32.5617 29.4817 32.4595L27.4838 30.4492C27.1791 30.1426 26.6838 30.1426 26.3791 30.4492C26.0739 30.7558 26.0739 31.2541 26.3791 31.5607Z" fill="white"/>
<path fill-rule="evenodd" clip-rule="evenodd" d="M28.8895 36.4116V37.4183C28.8895 37.8523 29.2395 38.2044 29.6708 38.2044C30.102 38.2044 30.452 37.8523 30.452 37.4183V36.4116C30.452 35.9777 30.102 35.6255 29.6708 35.6255C29.2395 35.6255 28.8895 35.9777 28.8895 36.4116Z" fill="white"/>
<path fill-rule="evenodd" clip-rule="evenodd" d="M28.8895 40.6582V41.6649C28.8895 42.0988 29.2395 42.451 29.6708 42.451C30.102 42.451 30.452 42.0988 30.452 41.6649V40.6582C30.452 40.2242 30.102 39.8721 29.6708 39.8721C29.2395 39.8721 28.8895 40.2242 28.8895 40.6582Z" fill="white"/>
<path fill-rule="evenodd" clip-rule="evenodd" d="M23.1609 31.1382V35.0671C23.1609 35.501 23.5109 35.8532 23.9421 35.8532C24.3734 35.8532 24.7234 35.501 24.7234 35.0671V31.1382C24.7234 30.7042 24.3734 30.3521 23.9421 30.3521C23.5109 30.3521 23.1609 30.7042 23.1609 31.1382Z" fill="white"/>
<path fill-rule="evenodd" clip-rule="evenodd" d="M36.7197 38.4076L39.4061 35.824C39.7176 35.5242 39.7291 35.0264 39.4311 34.7124C39.1327 34.3991 38.6379 34.3875 38.3265 34.6873L35.64 37.2709C35.3285 37.5707 35.3176 38.0691 35.6155 38.3825C35.9134 38.6959 36.4082 38.7074 36.7197 38.4076Z" fill="white"/>
<path fill-rule="evenodd" clip-rule="evenodd" d="M60.8193 16.0713C58.5713 16.0713 56.7463 17.9076 56.7463 20.1695C56.7463 22.4314 58.5713 24.2677 60.8193 24.2677C63.0672 24.2677 64.8922 22.4314 64.8922 20.1695C64.8922 17.9076 63.0672 16.0713 60.8193 16.0713ZM60.8193 17.6435C62.2047 17.6435 63.3297 18.7755 63.3297 20.1695C63.3297 21.5635 62.2047 22.6955 60.8193 22.6955C59.4338 22.6955 58.3088 21.5635 58.3088 20.1695C58.3088 18.7755 59.4338 17.6435 60.8193 17.6435Z" fill="white"/>
<path fill-rule="evenodd" clip-rule="evenodd" d="M43.2588 24.1177C43.1057 23.8195 43.0192 23.481 43.0192 23.1225C43.0192 21.9271 43.9802 20.9555 45.1651 20.9555C45.9942 20.9555 46.714 21.4319 47.0713 22.1278C47.2505 22.4769 47.6583 22.6388 48.0265 22.5078C48.1739 22.4549 48.3322 22.4266 48.4974 22.4266C49.0932 22.4266 49.6031 22.7992 49.8125 23.3248C49.8927 23.5261 50.0515 23.6849 50.2515 23.7645C50.452 23.8436 50.6755 23.8363 50.8703 23.7441C50.9729 23.6953 51.0875 23.6686 51.2083 23.6686C51.651 23.6686 52.0093 24.0323 52.0093 24.4788C52.0093 24.9127 52.3593 25.2649 52.7906 25.2649C53.2218 25.2649 53.5718 24.9127 53.5718 24.4788C53.5718 23.1634 52.5125 22.0964 51.2083 22.0964C51.1114 22.0964 51.0161 22.1022 50.9218 22.1137C50.3817 21.3517 49.4968 20.8544 48.4974 20.8544C48.3729 20.8544 48.25 20.8622 48.1291 20.8774C47.4526 19.9703 46.376 19.3833 45.1651 19.3833C43.1187 19.3833 41.4567 21.0582 41.4567 23.1225C41.4567 23.7415 41.6067 24.3258 41.8708 24.8399C42.0692 25.2256 42.5411 25.3765 42.9239 25.1769C43.3067 24.9777 43.4567 24.5029 43.2588 24.1177Z" fill="white"/>
<path fill-rule="evenodd" clip-rule="evenodd" d="M54.4161 32.1962C54.327 32.0222 54.2765 31.8251 54.2765 31.616C54.2765 30.919 54.8364 30.3525 55.5265 30.3525C56.0098 30.3525 56.4291 30.6308 56.6374 31.0359C56.8166 31.3849 57.2244 31.5474 57.5926 31.4158C57.6697 31.388 57.7531 31.3734 57.8395 31.3734C58.1525 31.3734 58.4202 31.5694 58.5307 31.8461C58.6103 32.0468 58.7692 32.2056 58.9697 32.2852C59.1697 32.3644 59.3937 32.357 59.5885 32.2648C59.6286 32.2459 59.6739 32.2355 59.7213 32.2355C59.8968 32.2355 60.0379 32.3801 60.0379 32.5572C60.0379 32.9912 60.3879 33.3433 60.8192 33.3433C61.2504 33.3433 61.6004 32.9912 61.6004 32.5572C61.6004 31.5112 60.7577 30.6633 59.7213 30.6633C59.6916 30.6633 59.6624 30.6638 59.6333 30.6653C59.2103 30.1381 58.5635 29.8012 57.8395 29.8012C57.79 29.8012 57.74 29.8027 57.6911 29.8059C57.1755 29.1791 56.3968 28.7803 55.5265 28.7803C53.9749 28.7803 52.714 30.0501 52.714 31.616C52.714 32.085 52.8275 32.5284 53.0281 32.9183C53.2265 33.304 53.6984 33.455 54.0812 33.2553C54.464 33.0561 54.614 32.5813 54.4161 32.1962Z" fill="white"/>
<path fill-rule="evenodd" clip-rule="evenodd" d="M20.8817 64.0038H61.5067C61.938 64.0038 62.288 63.6517 62.288 63.2177C62.288 62.7838 61.938 62.4316 61.5067 62.4316H20.8817C20.4505 62.4316 20.1005 62.7838 20.1005 63.2177C20.1005 63.6517 20.4505 64.0038 20.8817 64.0038Z" fill="white"/>
<path fill-rule="evenodd" clip-rule="evenodd" d="M55.0942 63.2586C55.1827 61.5654 54.6411 60.1137 53.2197 58.999C52.8796 58.7322 52.388 58.7936 52.1228 59.1358C51.8577 59.478 51.9187 59.9722 52.2588 60.2389C53.2369 61.0062 53.5947 62.0113 53.5338 63.1763C53.5114 63.6097 53.8426 63.9797 54.2734 64.0028C54.7036 64.0253 55.0718 63.692 55.0942 63.2586Z" fill="white"/>
<path fill-rule="evenodd" clip-rule="evenodd" d="M60.0457 63.2586C60.1119 61.9914 59.704 60.9061 58.64 60.0717C58.2999 59.805 57.8087 59.8663 57.5436 60.2085C57.2785 60.5507 57.3395 61.0449 57.6796 61.3117C58.2999 61.798 58.5238 62.4374 58.4853 63.1763C58.4629 63.6097 58.7936 63.9797 59.2244 64.0028C59.6551 64.0253 60.0228 63.692 60.0457 63.2586Z" fill="white"/>
<path fill-rule="evenodd" clip-rule="evenodd" d="M55.1099 63.1763C55.0494 62.0113 55.4072 61.0062 56.3849 60.2389C56.725 59.9722 56.7859 59.478 56.5208 59.1358C56.2562 58.7936 55.7645 58.7322 55.4244 58.999C54.0031 60.1137 53.4614 61.5654 53.55 63.2586C53.5724 63.692 53.9401 64.0253 54.3708 64.0028C54.8015 63.9797 55.1328 63.6097 55.1099 63.1763Z" fill="white"/>
<path fill-rule="evenodd" clip-rule="evenodd" d="M60.0567 63.1763C60.0182 62.4374 60.2416 61.798 60.8624 61.3117C61.2026 61.0449 61.2635 60.5507 60.9984 60.2085C60.7333 59.8663 60.2416 59.805 59.902 60.0717C58.838 60.9061 58.4302 61.9914 58.4963 63.2586C58.5192 63.692 58.8869 64.0253 59.3177 64.0028C59.7479 63.9797 60.0791 63.6097 60.0567 63.1763Z" fill="white"/>
<path fill-rule="evenodd" clip-rule="evenodd" d="M25.3057 44.8896H34.664C35.0952 44.8896 35.4452 44.5374 35.4452 44.1035C35.4452 43.6696 35.0952 43.3174 34.664 43.3174H25.3057C24.8744 43.3174 24.5244 43.6696 24.5244 44.1035C24.5244 44.5374 24.8744 44.8896 25.3057 44.8896Z" fill="white"/>
</g>
<defs>
<linearGradient id="paint0_linear_2002_3053" x1="12" y1="5.6" x2="67.6" y2="80" gradientUnits="userSpaceOnUse">
<stop stop-color="#FFB987"/>
<stop offset="0.515" stop-color="#FF8A35"/>
<stop offset="1" stop-color="#FF8A35"/>
</linearGradient>
<linearGradient id="paint1_linear_2002_3053" x1="12" y1="5.6" x2="67.6" y2="80" gradientUnits="userSpaceOnUse">
<stop stop-color="#FFC79F"/>
<stop offset="0.515" stop-color="#FF914F"/>
<stop offset="1" stop-color="#FB8129"/>
</linearGradient>
<clipPath id="clip0_2002_3053">
<rect width="50" height="48.2143" fill="white" transform="translate(15 16.0713)"/>
</clipPath>
</defs>
</svg>
