<svg width="87" height="93" viewBox="0 0 87 93" fill="none" xmlns="http://www.w3.org/2000/svg">
<g clip-path="url(#clip0_2011_2926)">
<path d="M58.4237 84.8343H44.2652C43.5729 84.8343 43.0087 84.2701 43.0087 83.5778C43.0087 82.8854 43.5729 82.3212 44.2652 82.3212H58.4237C58.6989 80.3295 59.628 78.5421 60.9843 77.186C62.6202 75.5503 64.8819 74.5401 67.3759 74.5401C69.8701 74.5401 72.1317 75.5503 73.7675 77.186C75.1235 78.5421 76.0531 80.3295 76.3279 82.3212H81.9894C82.4636 82.3212 82.8903 82.1314 83.2033 81.8184C83.5115 81.5058 83.7059 81.0787 83.7059 80.6092V78.893H81.3825C80.2681 78.893 79.2583 78.4375 78.5282 77.7074C77.793 76.9726 77.3427 75.9624 77.3427 74.8529C77.3427 73.7389 77.7979 72.7287 78.5282 71.9986C79.2583 71.2684 80.2681 70.8133 81.3825 70.8133H83.7059V67.7502H8.98786V72.4492C8.98786 73.5636 8.53255 74.5734 7.80241 75.3037C7.07227 76.0338 6.06229 76.489 4.94809 76.489H3.07984V80.6094C3.07984 81.0791 3.27421 81.5059 3.58717 81.8186C3.89529 82.1315 4.32685 82.3214 4.79621 82.3214H6.51743C6.79728 80.3297 7.72178 78.5422 9.0827 77.1862C10.7184 75.5504 12.9756 74.5403 15.4743 74.5403C17.9683 74.5403 20.2253 75.5504 21.8612 77.1862C23.222 78.5422 24.1466 80.3297 24.4263 82.3214H38.58C39.277 82.3214 39.8365 82.8856 39.8365 83.5779C39.8365 84.2703 39.277 84.8345 38.58 84.8345H24.4263C24.1466 86.826 23.222 88.6135 21.8612 89.9695C20.2253 91.6053 17.9683 92.6151 15.4743 92.6151C12.9756 92.6151 10.7184 91.6053 9.0827 89.9695C7.72178 88.6135 6.79728 86.826 6.51743 84.8345H4.79621C3.63451 84.8345 2.57719 84.3556 1.81376 83.592C1.04566 82.8287 0.571442 81.7711 0.571442 80.6092V46.7261C0.571442 45.5597 1.04566 44.5071 1.81393 43.7388C2.57719 42.9757 3.63468 42.5013 4.79638 42.5013H9.79411V37.4991C9.79411 36.8067 10.3583 36.2472 11.0506 36.2472H13.7675V27.57C13.7675 26.8777 14.327 26.3135 15.0192 26.3135H35.6308C36.3232 26.3135 36.8825 26.8777 36.8825 27.57V36.2469H40.6428C41.3351 36.2469 41.8945 36.8066 41.8945 37.4987V42.501H75.8823C78.879 42.501 81.4867 45.1659 83.3218 49.201C85.1048 53.1178 86.2143 58.4188 86.2143 63.7105V80.6092C86.2143 81.7711 85.7401 82.8287 84.9768 83.5918C84.2087 84.3552 83.1561 84.8343 81.9895 84.8343H76.3281C76.0531 86.8258 75.1236 88.6133 73.7677 89.9694C72.1319 91.6051 69.8701 92.6149 67.3761 92.6149C64.882 92.6149 62.6202 91.6051 60.9845 89.9694C59.6282 88.6133 58.6989 86.8258 58.4237 84.8343ZM6.47963 67.7502H3.07984V73.9807H4.94793C5.36995 73.9807 5.74932 73.8098 6.029 73.5303C6.30884 73.2506 6.47946 72.8714 6.47946 72.4492L6.47963 67.7502ZM16.2757 36.2469H34.3744V28.8217H16.2757V36.2469ZM12.307 42.5011H39.3862V38.7554C30.3583 38.7554 21.3303 38.7554 12.307 38.7554V42.5011ZM83.7061 76.3801V73.3215H81.3827C80.9606 73.3215 80.5813 73.4923 80.3016 73.772C80.0218 74.052 79.8511 74.4312 79.8511 74.8531C79.8511 75.2702 80.0219 75.6545 80.3016 75.9296C80.5813 76.2093 80.9605 76.3801 81.3827 76.3801H83.7061ZM20.088 78.9594C18.9072 77.7786 17.2761 77.0485 15.4743 77.0485C13.6676 77.0485 12.0365 77.7786 10.8559 78.9594C9.67518 80.1402 8.94036 81.7761 8.94036 83.5778C8.94036 85.3794 9.67534 87.0154 10.8559 88.196C12.0365 89.3767 13.6676 90.1069 15.4743 90.1069C17.276 90.1069 18.9072 89.3767 20.088 88.196C21.2733 87.0152 22.0034 85.3794 22.0034 83.5778C22.0034 81.7761 21.2733 80.14 20.088 78.9594ZM15.4745 79.1678C16.6882 79.1678 17.793 79.6611 18.5897 80.4577C19.3911 81.2592 19.8842 82.3592 19.8842 83.5778C19.8842 84.7963 19.3911 85.8963 18.5897 86.6977C17.7932 87.4942 16.6882 87.9872 15.4745 87.9872C14.2559 87.9872 13.1511 87.4942 12.3545 86.6977C11.5531 85.8963 11.06 84.7963 11.06 83.5778C11.06 82.3592 11.5531 81.2592 12.3545 80.4577C13.1511 79.6611 14.2559 79.1678 15.4745 79.1678ZM16.8162 82.2311C16.4748 81.8897 15.996 81.6764 15.4745 81.6764C14.9481 81.6764 14.4692 81.8897 14.1278 82.2311C13.7817 82.5773 13.5682 83.0514 13.5682 83.5778C13.5682 84.104 13.7815 84.578 14.1278 84.9245C14.4692 85.2659 14.9481 85.4791 15.4745 85.4791C15.996 85.4791 16.4748 85.2659 16.8162 84.9245C17.1622 84.5782 17.3757 84.1042 17.3757 83.5778C17.3757 83.0515 17.1624 82.5775 16.8162 82.2311ZM67.3759 79.1678C68.5946 79.1678 69.6946 79.6611 70.4958 80.4577C71.2925 81.2592 71.7857 82.3592 71.7857 83.5778C71.7857 84.7963 71.2925 85.8963 70.4958 86.6977C69.6946 87.4942 68.5946 87.9872 67.3759 87.9872C66.1573 87.9872 65.0573 87.4942 64.2559 86.6977C63.4594 85.8963 62.9663 84.7963 62.9663 83.5778C62.9663 82.3592 63.4594 81.2592 64.2559 80.4577C65.0573 79.6611 66.1573 79.1678 67.3759 79.1678ZM68.7226 82.2311C68.3765 81.8897 67.9023 81.6764 67.3761 81.6764C66.8498 81.6764 66.3756 81.8897 66.0294 82.2311C65.688 82.5773 65.4747 83.0514 65.4747 83.5778C65.4747 84.104 65.688 84.578 66.0294 84.9245C66.3754 85.2659 66.8496 85.4791 67.3761 85.4791C67.9025 85.4791 68.3765 85.2659 68.7226 84.9245C69.064 84.5782 69.2773 84.1042 69.2773 83.5778C69.2773 83.0515 69.064 82.5775 68.7226 82.2311ZM71.9942 78.9594C70.8135 77.7786 69.1777 77.0485 67.3759 77.0485C65.574 77.0485 63.9381 77.7786 62.7577 78.9594C61.5769 80.1402 60.8468 81.7761 60.8468 83.5778C60.8468 85.3794 61.5771 87.0154 62.7577 88.196C63.9383 89.3767 65.574 90.1069 67.3759 90.1069C69.1777 90.1069 70.8135 89.3767 71.9942 88.196C73.1748 87.0152 73.9051 85.3794 73.9051 83.5778C73.9051 81.7761 73.1748 80.14 71.9942 78.9594ZM32.8524 72.6247C32.1601 72.6247 31.5959 72.0605 31.5959 71.3681C31.5959 70.6758 32.1601 70.1163 32.8524 70.1163H36.8827C37.575 70.1163 38.1394 70.676 38.1394 71.3681C38.1394 72.0605 37.575 72.6247 36.8827 72.6247H32.8524ZM57.7742 72.6247C57.082 72.6247 56.5225 72.0605 56.5225 71.3681C56.5225 70.6758 57.0822 70.1163 57.7742 70.1163H61.8094C62.5018 70.1163 63.066 70.676 63.066 71.3681C63.066 72.0605 62.5018 72.6247 61.8094 72.6247H57.7742ZM3.07984 65.242H7.736H83.7059V63.7105C83.7059 58.7649 82.6817 53.8431 81.0411 50.2299C79.6091 47.0864 77.7788 45.0095 75.8823 45.0095C52.1885 45.0095 28.4947 45.0095 4.79604 45.0095C4.32668 45.0095 3.89512 45.2039 3.58701 45.512C3.27404 45.825 3.07967 46.2566 3.07967 46.7261V65.242H3.07984ZM77.888 59.7323C77.7883 58.9452 77.6606 58.1676 77.504 57.409C77.267 56.2614 76.9587 55.133 76.5795 54.0519C76.1999 52.9852 75.5551 51.4913 74.8723 50.5808H59.0307V59.7323H77.888ZM79.9507 56.9062C80.2257 58.2196 80.4152 59.5427 80.5244 60.8416C80.6097 61.5861 80.0313 62.2405 79.2774 62.2405H57.7742C57.082 62.2405 56.5225 61.6763 56.5225 60.9839V49.3243C56.5225 48.632 57.0822 48.0678 57.7742 48.0678H75.4129C75.7021 48.0678 75.9962 48.172 76.2334 48.3807C76.7312 48.8074 77.2195 49.5331 77.6417 50.3105C78.2296 51.3871 78.7227 52.6103 78.9408 53.2174C79.3532 54.3933 79.6899 55.6356 79.9507 56.9062ZM39.6897 48.0678C40.382 48.0678 40.9415 48.632 40.9415 49.3243C40.9415 50.0166 40.382 50.5808 39.6897 50.5808H34.1041V59.7323H50.951V50.5808H45.37C44.6779 50.5808 44.1135 50.0166 44.1135 49.3243C44.1135 48.632 44.6779 48.0678 45.37 48.0678H52.2074C52.8997 48.0678 53.4591 48.632 53.4591 49.3243V60.9841C53.4591 61.6764 52.8996 62.2406 52.2074 62.2406H32.8524C32.1601 62.2406 31.5959 61.6764 31.5959 60.9841V49.3243C31.5959 48.632 32.1601 48.0678 32.8524 48.0678H39.6897ZM14.692 48.0678C15.3843 48.0678 15.9485 48.632 15.9485 49.3243C15.9485 50.0166 15.3843 50.5808 14.692 50.5808H9.03988V59.7323H26.0291V50.5808H20.3772C19.6849 50.5808 19.1206 50.0166 19.1206 49.3243C19.1206 48.632 19.6849 48.0678 20.3772 48.0678H27.281C27.9733 48.0678 28.5375 48.632 28.5375 49.3243V60.9841C28.5375 61.6764 27.9733 62.2406 27.281 62.2406H7.78819C7.09586 62.2406 6.53165 61.6764 6.53165 60.9841V49.3243C6.53165 48.632 7.09586 48.0678 7.78819 48.0678H14.692Z" fill="#FF8A35"/>
<path d="M62.9418 24.5H74.1297C76.4635 24.5 78.3572 22.5535 78.3572 20.1779C78.3572 18.9011 77.8146 17.6976 76.8525 16.8708C76.2383 16.3371 75.4808 16.0022 74.6927 15.8976C74.4245 12.5612 70.6126 10.7727 68.0086 12.758C65.2837 10.7089 61.3245 12.713 61.3245 16.1906C59.7686 16.8499 58.7143 18.3883 58.7143 20.1779C58.7143 22.5535 60.6079 24.5 62.9418 24.5Z" fill="#FF8A35"/>
<path d="M43.9603 11.0715C45.2856 11.0715 46.3611 12.3515 46.3611 13.9286C46.3611 14.5572 46.7933 15.0715 47.3214 15.0715C47.8496 15.0715 48.2817 14.5572 48.2817 13.9286C48.2817 12.3515 49.3573 11.0715 50.6825 11.0715C51.2107 11.0715 51.6429 10.5572 51.6429 9.92862C51.6429 9.28862 51.2107 8.78577 50.6825 8.78577C49.3285 8.78577 48.1185 9.52862 47.3214 10.6943C46.5244 9.52862 45.3144 8.78577 43.9603 8.78577C43.4321 8.78577 43 9.28862 43 9.92862C43 10.5572 43.4321 11.0715 43.9603 11.0715Z" fill="#FF8A35"/>
</g>
<defs>
<clipPath id="clip0_2011_2926">
<rect width="85.6429" height="91.9286" fill="white" transform="translate(0.571442 0.928589)"/>
</clipPath>
</defs>
</svg>
